<svg width="905" height="328" viewBox="0 0 905 328" fill="none" xmlns="http://www.w3.org/2000/svg">
<rect width="905" height="328" fill="rgba(255,255,255,0)"/>
<path d="M72.9062 93.1094C72.9062 90.3906 72.6719 88.4219 72.2031 87.2031C71.8281 85.9844 71.6406 84.8594 71.6406 83.8281C71.6406 82.4219 72.3906 81.25 73.8906 80.3125C75.3906 79.375 77.1719 78.9062 79.2344 78.9062C84.0156 78.9062 87.8594 80.1719 90.7656 82.7031C93.7656 85.1406 95.2656 88.1406 95.2656 91.7031V198.438C95.2656 205.375 95.8281 211.281 96.9531 216.156C98.0781 221.031 99.7656 225.016 102.016 228.109C104.266 231.203 107.031 233.5 110.312 235C113.594 236.406 117.344 237.109 121.562 237.109C125.594 237.109 129.297 236.359 132.672 234.859C136.141 233.359 139.141 231.297 141.672 228.672C144.203 226.047 146.172 222.953 147.578 219.391C148.984 215.828 149.688 211.938 149.688 207.719C149.688 201.25 148.562 195.859 146.312 191.547C144.062 187.234 141.109 183.766 137.453 181.141C133.891 178.516 129.812 176.688 125.219 175.656C120.719 174.531 116.219 173.969 111.719 173.969C110.875 173.969 110.031 173.453 109.188 172.422C108.344 171.297 107.641 169.938 107.078 168.344C106.516 166.75 106.094 165.062 105.812 163.281C105.531 161.406 105.484 159.672 105.672 158.078C105.859 156.484 106.281 155.172 106.938 154.141C107.688 153.016 108.812 152.453 110.312 152.453C112.562 152.453 115.281 152.172 118.469 151.609C121.656 151.047 124.984 150.062 128.453 148.656C131.922 147.156 135.344 145.188 138.719 142.75C142.094 140.312 145.141 137.219 147.859 133.469C150.578 129.625 152.781 125.125 154.469 119.969C156.156 114.719 157 108.625 157 101.688C157 96.25 156.062 90.9062 154.188 85.6562C152.406 80.3125 149.5 75.5781 145.469 71.4531C141.438 67.2344 136.281 63.8594 130 61.3281C123.719 58.7031 116.172 57.3906 107.359 57.3906C95.8281 57.3906 85.9375 59.1719 77.6875 62.7344C69.4375 66.2969 62.6875 71.0781 57.4375 77.0781C52.2812 83.0781 48.4844 90.0625 46.0469 98.0312C43.6094 105.906 42.3906 114.25 42.3906 123.062C42.3906 129.438 42.9062 134.828 43.9375 139.234C45.0625 143.547 46.2812 147.109 47.5938 149.922C48.9062 152.641 50.125 154.656 51.25 155.969C52.375 157.281 53.0312 158.031 53.2188 158.219C54.8125 157.75 55.9375 157.938 56.5938 158.781C57.25 159.625 57.5781 160.75 57.5781 162.156C57.5781 163.469 57.1094 165.438 56.1719 168.062C55.3281 170.688 54.1562 173.172 52.6562 175.516C51.1562 177.766 49.4219 179.5 47.4531 180.719C45.4844 181.844 43.4688 181.609 41.4062 180.016C40.2812 178.984 38.5469 177.109 36.2031 174.391C33.8594 171.672 31.5156 168.062 29.1719 163.562C26.9219 158.969 24.9062 153.484 23.125 147.109C21.3438 140.641 20.4531 133.188 20.4531 124.75C20.4531 111.25 22.5625 99.0625 26.7812 88.1875C31 77.2188 36.9062 67.8437 44.5 60.0625C52.1875 52.2813 61.3281 46.2812 71.9219 42.0625C82.5156 37.8438 94.2344 35.7344 107.078 35.7344C117.953 35.7344 127.797 37.2344 136.609 40.2344C145.516 43.1406 153.109 47.4062 159.391 53.0312C165.672 58.6562 170.5 65.5469 173.875 73.7031C177.344 81.7656 179.078 90.9062 179.078 101.125C179.078 109 178.141 116.125 176.266 122.5C174.391 128.875 171.766 134.594 168.391 139.656C165.109 144.719 161.172 149.219 156.578 153.156C152.078 157 147.203 160.328 141.953 163.141C146.172 164.359 150.109 166.188 153.766 168.625C157.422 170.969 160.609 173.969 163.328 177.625C166.047 181.281 168.203 185.594 169.797 190.562C171.391 195.438 172.188 200.969 172.188 207.156C172.188 214.375 170.875 221.031 168.25 227.125C165.719 233.219 162.203 238.469 157.703 242.875C153.203 247.281 147.859 250.703 141.672 253.141C135.578 255.672 128.969 256.938 121.844 256.938C112.375 256.938 104.5 255.484 98.2188 252.578C91.9375 249.766 86.9219 245.781 83.1719 240.625C79.4219 235.375 76.75 229.141 75.1562 221.922C73.6562 214.609 72.9062 206.5 72.9062 197.594V93.1094ZM256.844 252.016C253.469 252.016 250 251.5 246.438 250.469C242.969 249.438 239.781 247.656 236.875 245.125C234.062 242.594 231.719 239.266 229.844 235.141C228.062 230.922 227.172 225.625 227.172 219.25C227.172 209.969 228.391 200.172 230.828 189.859C233.359 179.453 236.969 168.016 241.656 155.547H219.719H216.484C216.391 158.359 216.203 161.922 215.922 166.234C215.734 170.547 215.359 175.141 214.797 180.016C214.234 184.891 213.484 189.812 212.547 194.781C211.703 199.75 210.625 204.344 209.312 208.562C208.375 211.562 206.875 213.297 204.812 213.766C202.844 214.234 200.875 213.906 198.906 212.781C196.938 211.562 195.344 209.828 194.125 207.578C192.906 205.328 192.625 202.984 193.281 200.547C194.031 197.641 194.688 194.125 195.25 190C195.812 185.781 196.234 181.375 196.516 176.781C196.891 172.094 197.172 167.453 197.359 162.859C197.547 158.172 197.688 154 197.781 150.344C194.219 148.375 191.266 145.891 188.922 142.891C186.578 139.797 185.406 136.141 185.406 131.922C185.406 129.953 185.781 128.172 186.531 126.578C187.375 124.891 188.453 123.484 189.766 122.359C191.078 121.141 192.625 120.25 194.406 119.688C196.188 119.031 198.016 118.703 199.891 118.703C201.578 118.703 203.312 118.938 205.094 119.406C206.969 119.875 208.703 120.719 210.297 121.938C211.984 123.156 213.484 124.75 214.797 126.719C216.109 128.688 217.188 131.125 218.031 134.031C220.375 134.312 222.344 134.547 223.938 134.734C225.625 134.828 227.031 134.922 228.156 135.016C229.281 135.109 230.219 135.156 230.969 135.156C231.719 135.156 232.469 135.156 233.219 135.156H248.266C249.109 135.156 250.328 135.672 251.922 136.703C253.609 137.734 255.25 139.094 256.844 140.781C258.438 142.375 259.75 144.109 260.781 145.984C261.906 147.859 262.328 149.641 262.047 151.328C262.047 151.891 261.719 153.25 261.062 155.406C260.406 157.562 259.609 160.281 258.672 163.562C257.734 166.844 256.703 170.641 255.578 174.953C254.453 179.172 253.422 183.625 252.484 188.312C251.547 193 250.75 197.875 250.094 202.938C249.438 207.906 249.109 212.781 249.109 217.562C249.109 219.531 249.344 221.453 249.812 223.328C250.281 225.203 250.984 226.891 251.922 228.391C252.859 229.797 254.031 230.922 255.438 231.766C256.938 232.609 258.672 233.031 260.641 233.031C263.922 233.031 266.734 232 269.078 229.938C271.422 227.875 273.391 225.297 274.984 222.203C276.578 219.109 277.844 215.781 278.781 212.219C279.812 208.562 280.656 205.141 281.312 201.953C281.875 198.953 282.812 196.797 284.125 195.484C285.438 194.078 286.797 193.375 288.203 193.375C289.328 193.375 290.5 193.75 291.719 194.5C292.938 195.156 294.016 196.047 294.953 197.172C295.984 198.297 296.781 199.562 297.344 200.969C298 202.375 298.328 203.781 298.328 205.188C298.328 205.656 298.281 206.031 298.188 206.312C298.094 206.594 298.047 206.875 298.047 207.156C296.734 211.938 295 216.953 292.844 222.203C290.781 227.453 288.109 232.281 284.828 236.688C281.547 241.094 277.609 244.75 273.016 247.656C268.422 250.562 263.031 252.016 256.844 252.016ZM364.141 233.031C367.047 233.031 369.531 232 371.594 229.938C373.75 227.875 375.578 225.297 377.078 222.203C378.672 219.109 379.938 215.781 380.875 212.219C381.906 208.562 382.75 205.141 383.406 201.953C384.062 198.953 385 196.797 386.219 195.484C387.531 194.078 388.938 193.375 390.438 193.375C391.562 193.375 392.688 193.75 393.812 194.5C395.031 195.156 396.109 196.047 397.047 197.172C398.078 198.297 398.875 199.562 399.438 200.969C400.094 202.375 400.422 203.781 400.422 205.188C400.422 205.375 400.422 205.609 400.422 205.891C400.422 206.172 400.328 206.594 400.141 207.156C398.922 211.938 397.234 216.953 395.078 222.203C393.016 227.453 390.344 232.281 387.062 236.688C383.781 241.094 379.797 244.75 375.109 247.656C370.516 250.562 365.125 252.016 358.938 252.016C353.875 252.016 349.469 250.938 345.719 248.781C341.969 246.625 339.016 243.766 336.859 240.203C333.953 243.484 330.438 246.25 326.312 248.5C322.281 250.844 317.547 252.016 312.109 252.016C306.484 252.016 301.516 250.891 297.203 248.641C292.984 246.391 289.422 243.344 286.516 239.5C283.609 235.562 281.406 230.969 279.906 225.719C278.5 220.375 277.797 214.656 277.797 208.562C277.797 196.562 279.719 185.781 283.562 176.219C287.406 166.656 292.516 158.547 298.891 151.891C305.266 145.141 312.531 139.984 320.688 136.422C328.938 132.859 337.469 131.078 346.281 131.078C350.219 131.078 353.406 132.156 355.844 134.312C358.281 136.469 359.5 139.422 359.5 143.172C359.5 145.609 359.219 147.344 358.656 148.375C358.188 149.312 357.25 149.781 355.844 149.781C354.531 149.781 353.172 149.688 351.766 149.5C350.359 149.312 348.906 149.219 347.406 149.219C341.969 149.219 336.438 150.438 330.812 152.875C325.188 155.219 320.078 158.875 315.484 163.844C310.984 168.719 307.281 174.953 304.375 182.547C301.469 190.047 300.016 199 300.016 209.406C300.016 217 301.469 222.859 304.375 226.984C307.281 231.016 311.266 233.031 316.328 233.031C320.266 233.031 323.547 231.578 326.172 228.672C328.797 225.672 330.906 222.156 332.5 218.125V173.688C332.5 172.281 332.406 171.109 332.219 170.172C332.125 169.234 331.984 168.438 331.797 167.781C331.703 167.125 331.609 166.562 331.516 166.094C331.422 165.531 331.375 165.016 331.375 164.547C331.375 163.047 332.078 161.875 333.484 161.031C334.984 160.094 336.766 159.625 338.828 159.625C343.609 159.625 347.406 160.891 350.219 163.422C353.031 165.859 354.438 168.812 354.438 172.281V219.812C354.438 221.406 354.625 223 355 224.594C355.375 226.094 355.938 227.5 356.688 228.812C357.438 230.031 358.422 231.062 359.641 231.906C360.953 232.656 362.453 233.031 364.141 233.031ZM384.812 148.094C384.812 145.375 384.578 143.406 384.109 142.188C383.734 140.969 383.547 139.844 383.547 138.812C383.547 137.406 384.297 136.281 385.797 135.438C387.297 134.5 389.078 134.031 391.141 134.031C395.922 134.031 399.672 135.297 402.391 137.828C405.203 140.266 406.609 143.219 406.609 146.688V159.625C408.578 155.594 410.688 151.844 412.938 148.375C415.281 144.906 417.766 141.906 420.391 139.375C423.109 136.75 425.969 134.734 428.969 133.328C432.062 131.828 435.391 131.078 438.953 131.078C443.734 131.078 447.672 131.969 450.766 133.75C453.859 135.531 456.297 137.828 458.078 140.641C459.859 143.453 461.078 146.594 461.734 150.062C462.484 153.531 462.859 156.906 462.859 160.188V219.812C462.859 220.469 462.906 221.547 463 223.047C463.094 224.453 463.375 225.906 463.844 227.406C464.312 228.906 465.016 230.219 465.953 231.344C466.984 232.469 468.438 233.031 470.312 233.031C473.219 233.031 475.703 232 477.766 229.938C479.922 227.875 481.75 225.297 483.25 222.203C484.844 219.109 486.109 215.781 487.047 212.219C488.078 208.562 488.922 205.141 489.578 201.953C490.141 198.953 491.078 196.797 492.391 195.484C493.703 194.078 495.062 193.375 496.469 193.375C497.594 193.375 498.766 193.75 499.984 194.5C501.203 195.156 502.281 196.047 503.219 197.172C504.25 198.297 505.047 199.562 505.609 200.969C506.266 202.375 506.594 203.781 506.594 205.188C506.594 205.375 506.594 205.609 506.594 205.891C506.594 206.172 506.5 206.594 506.312 207.156C505.094 211.938 503.406 216.953 501.25 222.203C499.188 227.453 496.469 232.281 493.094 236.688C489.812 241.094 485.875 244.75 481.281 247.656C476.688 250.562 471.297 252.016 465.109 252.016C461.266 252.016 457.844 251.266 454.844 249.766C451.938 248.359 449.406 246.438 447.25 244C445.188 241.562 443.594 238.703 442.469 235.422C441.438 232.141 440.922 228.672 440.922 225.016V166.516C440.922 164.266 440.875 162.156 440.781 160.188C440.688 158.219 440.406 156.484 439.938 154.984C439.562 153.484 438.953 152.312 438.109 151.469C437.359 150.531 436.281 150.062 434.875 150.062C432.812 150.062 430.281 151.469 427.281 154.281C424.281 157.094 421.328 160.75 418.422 165.25C415.516 169.75 412.938 174.859 410.688 180.578C408.531 186.203 407.172 191.875 406.609 197.594V239.641C406.609 241.047 406.562 242.5 406.469 244C406.469 245.406 406.188 246.672 405.625 247.797C405.156 249.016 404.359 250 403.234 250.75C402.203 251.594 400.656 252.016 398.594 252.016C397.188 252.016 395.641 251.828 393.953 251.453C392.359 251.172 390.859 250.562 389.453 249.625C388.141 248.781 387.016 247.516 386.078 245.828C385.234 244.234 384.812 242.078 384.812 239.359V148.094ZM534.859 252.016C528.484 252.016 522.297 250.844 516.297 248.5C510.297 246.156 504.953 242.688 500.266 238.094C495.672 233.5 491.969 227.828 489.156 221.078C486.438 214.328 485.078 206.5 485.078 197.594C485.078 189.344 486.25 181.234 488.594 173.266C490.938 165.297 494.172 158.219 498.297 152.031C502.422 145.75 507.344 140.688 513.062 136.844C518.875 133 525.203 131.078 532.047 131.078C537.016 131.078 541.234 132.109 544.703 134.172C548.172 136.141 550.984 138.578 553.141 141.484C555.297 144.297 556.844 147.344 557.781 150.625C558.812 153.906 559.328 156.812 559.328 159.344C559.328 161.219 558.812 162.906 557.781 164.406C556.844 165.906 555.672 167.172 554.266 168.203C552.859 169.234 551.312 170.031 549.625 170.594C547.938 171.062 546.438 171.25 545.125 171.156C543.812 171.062 542.734 170.594 541.891 169.75C541.141 168.906 540.906 167.641 541.188 165.953C540.812 164.734 540.438 163.234 540.062 161.453C539.781 159.672 539.219 157.984 538.375 156.391C537.625 154.703 536.547 153.297 535.141 152.172C533.734 150.953 531.812 150.344 529.375 150.344C526.75 150.344 524.172 151.609 521.641 154.141C519.203 156.578 517 159.953 515.031 164.266C513.156 168.578 511.609 173.594 510.391 179.312C509.266 185.031 508.703 191.125 508.703 197.594C508.703 203.312 509.406 208.375 510.812 212.781C512.312 217.188 514.375 220.891 517 223.891C519.625 226.891 522.719 229.188 526.281 230.781C529.938 232.281 533.875 233.031 538.094 233.031C543.719 233.031 548.594 232 552.719 229.938C556.938 227.781 560.5 224.969 563.406 221.5C566.312 218.031 568.656 214.141 570.438 209.828C572.219 205.516 573.531 201.156 574.375 196.75C575.031 193.562 576.344 191.453 578.312 190.422C580.375 189.297 582.438 189.016 584.5 189.578C586.656 190.141 588.484 191.359 589.984 193.234C591.578 195.016 592.234 197.172 591.953 199.703C591.578 202.609 590.875 205.938 589.844 209.688C588.906 213.438 587.5 217.234 585.625 221.078C583.75 224.922 581.359 228.719 578.453 232.469C575.641 236.125 572.172 239.406 568.047 242.312C563.922 245.219 559.094 247.562 553.562 249.344C548.125 251.125 541.891 252.016 534.859 252.016ZM574.375 66.5312C574.375 64.4687 574.188 62.8281 573.812 61.6094C573.531 60.3906 573.203 59.4531 572.828 58.7969C572.547 58.0469 572.219 57.4844 571.844 57.1094C571.562 56.6406 571.422 56.1719 571.422 55.7031C571.422 55.1406 571.703 54.6719 572.266 54.2969C572.828 53.9219 573.578 53.5938 574.516 53.3125C575.453 53.0312 576.438 52.8438 577.469 52.75C578.594 52.5625 579.672 52.4688 580.703 52.4688C585.484 52.4688 589.234 53.7344 591.953 56.2656C594.766 58.7031 596.172 61.6562 596.172 65.125V159.625C598.141 155.594 600.25 151.844 602.5 148.375C604.844 144.906 607.328 141.906 609.953 139.375C612.672 136.75 615.531 134.734 618.531 133.328C621.625 131.828 624.953 131.078 628.516 131.078C633.297 131.078 637.234 131.969 640.328 133.75C643.422 135.531 645.859 137.828 647.641 140.641C649.422 143.453 650.641 146.594 651.297 150.062C652.047 153.531 652.422 156.906 652.422 160.188V219.812C652.422 220.469 652.469 221.547 652.562 223.047C652.656 224.453 652.938 225.906 653.406 227.406C653.875 228.906 654.578 230.219 655.516 231.344C656.547 232.469 658 233.031 659.875 233.031C662.781 233.031 665.266 232 667.328 229.938C669.484 227.875 671.312 225.297 672.812 222.203C674.406 219.109 675.672 215.781 676.609 212.219C677.641 208.562 678.484 205.141 679.141 201.953C679.703 199.047 680.547 196.938 681.672 195.625C682.891 194.312 684.156 193.609 685.469 193.516C686.875 193.328 688.281 193.656 689.688 194.5C691.094 195.344 692.312 196.469 693.344 197.875C694.375 199.188 695.125 200.688 695.594 202.375C696.156 204.062 696.25 205.656 695.875 207.156C694.562 211.938 692.828 216.953 690.672 222.203C688.609 227.453 685.938 232.281 682.656 236.688C679.375 241.094 675.438 244.75 670.844 247.656C666.25 250.562 660.859 252.016 654.672 252.016C650.828 252.016 647.406 251.266 644.406 249.766C641.5 248.359 638.969 246.438 636.812 244C634.75 241.562 633.156 238.703 632.031 235.422C631 232.141 630.484 228.672 630.484 225.016V166.516C630.484 164.266 630.438 162.156 630.344 160.188C630.25 158.219 629.969 156.484 629.5 154.984C629.125 153.484 628.516 152.312 627.672 151.469C626.922 150.531 625.844 150.062 624.438 150.062C622.375 150.062 619.844 151.469 616.844 154.281C613.844 157.094 610.891 160.75 607.984 165.25C605.078 169.75 602.5 174.859 600.25 180.578C598.094 186.203 596.734 191.875 596.172 197.594V239.641C596.172 241.047 596.125 242.5 596.031 244C596.031 245.406 595.75 246.672 595.188 247.797C594.719 249.016 593.922 250 592.797 250.75C591.766 251.594 590.219 252.016 588.156 252.016C586.75 252.016 585.203 251.828 583.516 251.453C581.922 251.172 580.422 250.562 579.016 249.625C577.703 248.781 576.578 247.516 575.641 245.828C574.797 244.234 574.375 242.078 574.375 239.359V66.5312ZM746.641 160.188C746.641 165.531 745.703 171.016 743.828 176.641C742.047 182.266 739.328 187.609 735.672 192.672C732.109 197.641 727.656 202.141 722.312 206.172C717.062 210.109 710.969 213.109 704.031 215.172C704.969 217.609 706.188 219.953 707.688 222.203C709.281 224.359 711.156 226.234 713.312 227.828C715.469 229.422 717.953 230.688 720.766 231.625C723.672 232.562 727 233.031 730.75 233.031C736.375 233.031 741.203 232 745.234 229.938C749.266 227.781 752.641 224.969 755.359 221.5C758.172 218.031 760.422 214.141 762.109 209.828C763.797 205.516 765.062 201.156 765.906 196.75C766.562 193.562 767.875 191.453 769.844 190.422C771.906 189.297 773.969 189.016 776.031 189.578C778.188 190.141 780.016 191.359 781.516 193.234C783.109 195.016 783.766 197.172 783.484 199.703C783.109 202.609 782.453 205.938 781.516 209.688C780.672 213.438 779.359 217.234 777.578 221.078C775.797 224.922 773.5 228.719 770.688 232.469C767.969 236.125 764.594 239.406 760.562 242.312C756.531 245.219 751.797 247.562 746.359 249.344C740.922 251.125 734.688 252.016 727.656 252.016C721.094 252.016 714.719 250.703 708.531 248.078C702.438 245.547 697 241.891 692.219 237.109C687.531 232.234 683.734 226.281 680.828 219.25C678.016 212.125 676.609 204.062 676.609 195.062C676.609 185.969 677.875 177.531 680.406 169.75C682.938 161.875 686.266 155.078 690.391 149.359C694.516 143.641 699.203 139.188 704.453 136C709.703 132.719 715.094 131.078 720.625 131.078C724.656 131.078 728.266 131.781 731.453 133.188C734.734 134.594 737.5 136.609 739.75 139.234C742 141.766 743.688 144.812 744.812 148.375C746.031 151.938 746.641 155.875 746.641 160.188ZM700.234 194.219C700.234 195.062 700.281 195.906 700.375 196.75C700.469 197.594 700.516 198.484 700.516 199.422C704.078 197.734 707.312 195.578 710.219 192.953C713.125 190.328 715.609 187.328 717.672 183.953C719.734 180.578 721.328 176.922 722.453 172.984C723.578 168.953 724.141 164.781 724.141 160.469C724.141 157.281 723.578 154.797 722.453 153.016C721.422 151.234 719.969 150.344 718.094 150.344C715.75 150.344 713.641 151.141 711.766 152.734C709.984 154.328 708.391 156.438 706.984 159.062C705.672 161.594 704.547 164.5 703.609 167.781C702.766 170.969 702.062 174.203 701.5 177.484C700.938 180.766 700.562 183.906 700.375 186.906C700.188 189.812 700.141 192.25 700.234 194.219ZM782.219 204.484C781.469 207.484 780.062 209.359 778 210.109C775.938 210.766 773.875 210.672 771.812 209.828C769.844 208.984 768.156 207.531 766.75 205.469C765.438 203.406 765.062 201.156 765.625 198.719C767.031 192.344 769.047 185.312 771.672 177.625C774.391 169.844 777.062 162.109 779.688 154.422C778.281 152.266 777.156 150.109 776.312 147.953C775.469 145.703 775.047 143.359 775.047 140.922C775.047 138.484 775.938 135.953 777.719 133.328C779.594 130.609 781.797 128.125 784.328 125.875C786.953 123.625 789.625 121.797 792.344 120.391C795.156 118.891 797.547 118.141 799.516 118.141C802.984 118.141 805.562 119.312 807.25 121.656C809.031 124 809.922 127.141 809.922 131.078C809.922 133.234 809.547 135.391 808.797 137.547C808.141 139.609 807.391 141.578 806.547 143.453C805.703 145.234 804.906 146.781 804.156 148.094C803.5 149.406 803.125 150.25 803.031 150.625C806.406 156.625 809.922 161.922 813.578 166.516C817.234 171.109 820.562 175.656 823.562 180.156C826.656 184.656 829.188 189.438 831.156 194.5C833.125 199.562 834.109 205.516 834.109 212.359C834.109 214.047 833.969 215.781 833.688 217.562C833.5 219.344 833.172 221.031 832.703 222.625C836.078 221.969 839.031 220.938 841.562 219.531C844.188 218.125 846.438 216.531 848.312 214.75C850.281 212.875 851.875 210.859 853.094 208.703C854.406 206.547 855.484 204.297 856.328 201.953C857.359 199.234 858.391 197.266 859.422 196.047C860.453 194.828 861.625 194.219 862.938 194.219C864.156 194.219 865.375 194.641 866.594 195.484C867.906 196.234 869.031 197.219 869.969 198.438C871 199.656 871.797 200.922 872.359 202.234C873.016 203.547 873.344 204.719 873.344 205.75C873.344 207.156 872.969 208.844 872.219 210.812C871.469 212.781 870.438 214.797 869.125 216.859C867.906 218.922 866.5 220.938 864.906 222.906C863.312 224.781 861.672 226.422 859.984 227.828C855.484 231.484 850.188 234.578 844.094 237.109C838 239.547 830.453 241.094 821.453 241.75C817.984 244.75 813.859 247.188 809.078 249.062C804.391 251.031 799.094 252.016 793.188 252.016C790.188 252.016 787.094 251.641 783.906 250.891C780.812 250.141 777.812 249.156 774.906 247.938C772.094 246.812 769.516 245.547 767.172 244.141C764.828 242.734 762.953 241.328 761.547 239.922C757.984 236.547 755.688 233.172 754.656 229.797C753.625 226.328 753.391 223.234 753.953 220.516C754.422 217.797 755.406 215.594 756.906 213.906C758.406 212.125 759.953 211.234 761.547 211.234C762.484 211.234 763.938 211.656 765.906 212.5C767.969 213.25 770.312 214.281 772.938 215.594C775.562 216.812 778.422 218.125 781.516 219.531C784.609 220.938 787.703 222.297 790.797 223.609C793.891 224.828 796.891 225.859 799.797 226.703C802.797 227.453 805.516 227.828 807.953 227.828C809.547 225.953 811 223.469 812.312 220.375C813.625 217.281 814.281 213.906 814.281 210.25C814.281 205.75 813.672 201.578 812.453 197.734C811.234 193.891 809.641 190.328 807.672 187.047C805.703 183.766 803.453 180.719 800.922 177.906C798.484 175 796 172.281 793.469 169.75C791.219 175.281 789.25 180.766 787.562 186.203C785.875 191.547 784.094 197.641 782.219 204.484Z" fill="black"/>
<path d="M607.385 107.098L608.53 105.652L606.772 106.365L601.747 108.404C601.297 106.043 601.044 102.523 601.633 99.0055C602.272 95.1843 603.89 91.4362 607.243 89.1274C614.123 84.3914 622.647 84.1903 626.024 84.682L626.122 84.6963L626.218 84.672C628.227 84.165 631.281 83.2524 633.922 82.1586C635.24 81.6124 636.474 81.0136 637.426 80.3882C637.819 80.1299 638.173 79.8614 638.468 79.5835C638.418 80.4253 638.304 81.5762 638.096 82.9454C637.568 86.4123 636.442 91.241 634.249 95.9545C632.055 100.669 628.807 105.238 624.052 108.233C619.434 111.142 613.348 112.595 605.32 111.195C606.072 109.726 606.774 108.33 607.385 107.098ZM597.966 120.567C599.459 118.005 601.426 115.107 603.319 112.483L603.75 111.912C603.773 111.917 603.797 111.922 603.82 111.927C601.825 115.79 599.579 119.965 597.805 122.889C596.866 124.436 596.081 125.595 595.544 126.181C595.533 126.193 595.523 126.204 595.512 126.215C595.564 125.683 595.782 124.956 596.163 124.059C596.597 123.038 597.22 121.849 597.966 120.567Z" stroke="black"/>
<path d="M625 94.2967C623.179 94.8816 621.401 95.6099 619.536 96.0513C617.905 96.4373 615.316 97.221 616.725 94.7675C616.807 94.6243 621.371 89.4023 621.447 91.4936C621.459 91.8268 620.486 94.4778 621.447 94.2111C623.035 93.7705 621.017 93.9652 620.435 94.1255C618.214 94.7373 616.136 95.3532 614.161 96.5221C612.652 97.416 610.217 98.906 608.989 100.074C608.068 100.951 609.925 101.389 608 102" stroke="black" stroke-width="3" stroke-linecap="round"/>
<path d="M619 99.6339C620.572 98.1601 622.306 96.8986 624.049 95.6415C624.647 95.2096 625.331 94.4899 624.822 95.5542C624.136 96.99 623.706 99.1429 622.588 100.31C621.989 100.935 620.006 102.541 620.482 101.816C621.321 100.538 623.357 99.7124 623.834 98.2595" stroke="black" stroke-linecap="round"/>
<path d="M623 85C624.29 85 625.581 85 626.871 85C627.545 85 628.251 85 629 85" stroke="black" stroke-linecap="round"/>
<path d="M623 85C624.501 84.7621 625.99 84.8185 627.467 84.463C628.519 84.2097 629.923 84.0796 631 84" stroke="black" stroke-linecap="round"/>
<path d="M594 126.849C594.282 126.635 594.94 126.274 595.007 125.905C595.063 125.596 595.085 125.047 595.375 124.877C595.765 124.648 595.912 124.018 596.25 123.849" stroke="black" stroke-linecap="round"/>
<path d="M607 107C606.298 107.515 605.884 107.898 605.781 108.716C605.756 108.919 605.358 109.769 605.217 109.902C604.628 110.454 603.889 111.269 603.502 111.956C603.092 112.683 602.502 113.233 601.877 113.82C601.221 114.435 601.002 115.779 600.297 116.192C599.924 116.411 599.807 117.058 599.484 117.378C599.094 117.766 598.481 118.356 598.221 118.818C597.736 119.677 596.708 120.559 595.828 121.063C594.865 121.616 594 122.56 594 123.626C594 124.243 593.988 123.991 594.361 123.626C594.69 123.305 595.01 123.002 595.422 122.779C595.894 122.522 596.173 122.087 596.641 121.868" stroke="black" stroke-linecap="round"/>
<path d="M597 120C598.271 119.076 599.131 118.304 600 117" stroke="black" stroke-linecap="round"/>
<path d="M600 117C600.286 116.311 601.624 115 600.65 115" stroke="black" stroke-linecap="round"/>
<path d="M600 116C600.487 115.639 600.831 115.021 601.338 114.808C601.606 114.695 602.27 114.074 602.425 113.854C602.851 113.248 603.492 112.736 603.866 112.098C604.373 111.233 606.023 108 607 108" stroke="black" stroke-linecap="round"/>
<path d="M595.66 121.402C595.695 119.977 596.174 119.772 597.319 119.205C597.887 118.924 599.171 117.546 598.61 117.84C597.678 118.33 596.822 118.996 596.074 119.716C595.858 119.924 595.339 120.896 596.051 120.426C597.402 119.533 597.8 117.326 599.278 116.809C599.825 116.617 600.418 115.534 599.589 116.232C598.881 116.828 598.885 117.602 598.356 118.207C597.842 118.794 597.173 119.461 596.708 120.104C595.901 121.222 594.688 121.807 594 123" stroke="black" stroke-linecap="round"/>
<path d="M612 96.1956C611.033 96.1246 609.518 95.6098 608.876 96.6084C608.402 97.3456 608.136 98.219 607.977 99.0851C607.915 99.4217 607.622 99.7172 607.589 100.006C607.505 100.745 607.143 101.718 606.629 102.25C605.553 103.366 605.59 104.694 604.016 105.161C603.889 105.198 603.854 105.716 603.689 105.87C603.077 106.441 603.751 104.96 603.811 104.78C604.189 103.66 604.281 102.327 604.281 101.139C604.281 98.588 603.626 100.964 603.178 102.006C602.741 103.027 603.235 101.784 603.321 101.382C603.525 100.432 604.059 99.7038 604.465 98.8629" stroke="black" stroke-width="2" stroke-linecap="round"/>
<path d="M604 99C604.427 97.7426 605.278 94.8722 606.641 94.0938C607.069 93.8498 607.44 93.1333 607.776 92.7637C607.975 92.5459 606.526 93.5717 606.357 93.7232C606.326 93.751 605.261 94.8791 605.266 94.7916C605.342 93.3423 607.269 92.5683 608.224 91.8261C608.855 91.3355 609.524 90.8814 610.199 90.4524C610.426 90.3083 610.987 90.0452 611.105 89.8091C611.359 89.302 610.009 90.1543 609.533 90.4633C608.941 90.8479 608.642 91.6446 608.126 92.1314C607.409 92.8076 609.382 91.3633 609.61 91.1938C610.927 90.2157 611.938 89.2178 613.43 88.5553C614.498 88.0812 615.419 87.9098 616.595 87.803C617.176 87.7503 617.975 87.5239 618.538 87.3233C619.797 86.8741 617.185 87.2717 616.813 87.3233C616.678 87.3421 615.231 87.6177 615.635 87.6177C616.121 87.6177 617.097 87.3746 617.555 87.1816C618.501 86.7837 619.583 86.8327 620.6 86.8327C621.757 86.8327 622.993 86.6365 624.191 86.6365C625.909 86.6365 627.558 86.7439 629.19 86.2004C630.715 85.6924 632.731 85.387 633.948 84.2815C634.323 83.9411 634.628 83.8168 635.138 83.7037C635.54 83.6144 635.559 83.2084 635.924 83.0059C636.183 82.8623 635.717 85.3784 635.476 85.8297C635.181 86.3829 635.037 87.0315 634.843 87.6613C634.388 89.1453 633.697 90.7704 632.879 92.0878C632.48 92.7291 631.977 93.4028 631.7 94.0938" stroke="black" stroke-width="2" stroke-linecap="round"/>
<path d="M630 87C630.121 86.7957 630.481 85.826 630.754 85.7485C630.901 85.707 631.097 85.7918 631.226 85.6901C631.475 85.492 631.869 85.6631 632.074 85.4795C632.684 84.935 633.241 85.0027 633.936 84.6374C634.59 84.294 635.123 84.4061 635.774 83.8889C635.958 83.7432 636.364 83.7479 636.529 83.5848C636.747 83.3681 636.664 83.1668 637 83" stroke="black" stroke-width="2" stroke-linecap="round"/>
<path d="M604.993 105.742C606.352 105.742 607.174 105.691 608.344 105.012C610.242 103.909 612.043 102.649 613.958 101.554C616.704 99.9841 619.523 98.1038 621.968 96.1214C623.216 95.1103 624.61 94.2957 625.807 93.2224C627.944 91.3082 631.261 90.0117 631.998 87.0379C632.085 86.6875 628.518 88.8681 628.049 89.3142C627.011 90.3002 626.615 91.7232 625.585 92.6856C623.522 94.6144 620.353 95.8293 617.863 97.1092C615.307 98.423 612.697 99.5716 610.319 101.179C610.263 101.216 608.941 102.109 609.32 101.941C611.012 101.192 612.625 100.183 614.18 99.2029C615.299 98.4975 616.597 97.7547 617.553 96.8301C617.849 96.5433 616.723 96.9914 616.343 97.1629C614.126 98.1641 611.938 99.2227 609.675 100.126C608.586 100.561 607.331 101.124 606.114 101.071C604.341 100.995 604.057 99.3567 604.005 97.9467C603.943 96.2321 604.424 95.1882 604.993 93.6734C605.215 93.0814 605.865 92.5959 606.147 92.0199C606.511 91.2763 606.113 91.0011 606.99 90.6241C609.292 89.6339 607.032 95.6108 606.79 96.3362C606.409 97.4799 605.988 98.3182 604.838 98.7842C604.762 98.8146 604.361 99.0872 604.372 99.0848C605.646 98.8151 607.016 97.9775 608.077 97.3025C609.577 96.3487 610.763 95.0078 612.293 94.1029C614.245 92.9487 616.48 92.2822 618.662 91.6763C620.615 91.134 622.581 90.6545 624.52 90.0658C626.447 89.4808 620.856 91.7192 619.095 92.6749C618.458 93.0202 616.63 94.0312 615.855 94.5753C615.768 94.6364 615.537 94.8198 615.644 94.8115C615.916 94.7905 616.161 94.6395 616.41 94.5323C618.571 93.6028 620.616 92.4185 622.656 91.2683C623.543 90.7686 624.43 90.2869 625.352 89.851C626.385 89.3631 623.422 91.0571 622.468 91.6763C621.272 92.4526 617.763 94.6219 619.184 94.3928C620.792 94.1334 622.592 92.718 623.866 91.8374C624.078 91.6909 628.537 88.6097 626.418 88.7881C624.499 88.9495 622.587 89.4196 620.781 90.055C620.124 90.2864 619.782 90.4467 619.195 90.71C619.061 90.7701 618.688 90.866 618.817 90.9355C619.558 91.3339 621.831 90.4505 622.479 90.2483C623.241 90.0105 625.32 88.9906 624.52 89.0243C622.144 89.1242 615.442 91.7748 617.708 91.075C618.73 90.7592 620.268 90.4908 621.081 89.7759C622.101 88.8781 618.337 90.1241 617.009 90.4845C616.065 90.7406 615.147 91.1048 614.18 91.2576C613.846 91.3104 614.721 90.8577 615.023 90.71C615.103 90.6709 618.03 89.2591 617.109 89.5397C615.151 90.1361 613.291 91.2644 611.617 92.385C610.556 93.0949 609.246 93.9561 608.554 95.0585C608.282 95.492 608.233 96.6379 608.41 97.1092C608.613 97.6495 609.546 96.7228 610.03 96.3898C610.982 95.7353 611.875 94.4466 613.115 94.382C614.532 94.3082 616.929 94.634 618.163 94.833C619.275 95.0124 621.872 95.348 622.967 96.2288C624.308 97.3077 621.567 99.3937 620.892 99.9867C619.039 101.615 616.983 103.051 615.212 104.765C613.737 106.192 612.314 107.344 610.496 108.383C608.796 109.355 610.82 106.002 611.095 105.484C611.155 105.373 612.365 103.053 611.694 103.702C611.032 104.343 610.627 104.977 610.585 105.892C610.529 107.119 609.35 107.195 608.832 108.061C608.326 108.906 607.695 109.164 606.946 109.757C605.767 110.69 609.096 108.629 608.732 108.673C608.166 108.741 607.343 108.966 606.89 109.306C606.832 109.35 606.267 109.743 606.435 109.865C607.206 110.424 612.17 104.1 613.225 103.551C614.081 103.107 615.077 102.901 616.01 102.671C616.337 102.591 617.383 102.205 616.632 102.832C616.204 103.189 610.689 107.948 612.438 108.512C612.915 108.666 614.552 108.358 614.823 108.673C614.998 108.876 614.311 108.861 614.047 108.931C613.491 109.077 613.404 109.096 612.87 109.199C612.303 109.309 611.744 109.472 611.184 109.607" stroke="black" stroke-width="2" stroke-linecap="round"/>
<path d="M608 111C609.367 110.969 610.777 110.575 612.138 110.426C613.515 110.275 615.107 110.022 616.376 109.497C618.501 108.618 620.696 109.139 622.431 107.524C623.159 106.846 624.083 105.855 624.954 105.405C626.19 104.766 627.194 104.083 627.981 102.962C628.857 101.716 629.109 100.418 629.192 98.975C629.243 98.11 630.166 97.229 630.964 96.9082C632.065 96.4655 631.908 95.8541 630.852 96.7203C629.993 97.425 629.294 98.5492 629.406 99.6431C629.512 100.687 630.718 100.276 630.796 99.4447C630.951 97.7812 631.8 96.7424 632.512 95.2277C632.745 94.731 633.445 92.7223 632.579 92.9103C629.673 93.5414 627.018 95.5188 625.739 97.9938C625.389 98.6714 624.896 99.575 624.73 100.332C624.605 100.899 625.617 99.5186 626.008 99.069C627.859 96.9407 629.626 94.7413 631.368 92.5346C631.886 91.8774 632.756 90.9182 632.96 90.1129C633.02 89.8752 632.418 90.0725 632.175 90.1651C631.055 90.5923 630.028 91.1982 629.271 92.0961C627.591 94.0881 627.162 96.9019 627.567 99.3508C628.155 102.908 624.358 104.697 621.568 106.407C620.615 106.991 619.607 107.564 618.54 107.952C617.62 108.287 616.547 108.19 615.58 108.182C614.411 108.171 613.99 108.006 614.436 106.825C615.76 103.319 621.358 102.655 624.505 101.418C625.689 100.953 625.736 100.81 624.528 101.814C622.409 103.577 620.441 105.465 617.643 106.198C616.381 106.529 615.112 106.812 613.864 107.19C613.1 107.421 612.797 107.54 613.853 107.054C615.231 106.42 616.624 105.808 618.058 105.29C618.15 105.257 619.697 104.609 618.854 105.322C618.622 105.518 616.121 107.333 616.993 107.159C618.389 106.879 619.654 106.327 620.917 105.739" stroke="black" stroke-width="2" stroke-linecap="round"/>
<path d="M595.5 123.099L595.875 122.599" stroke="black" stroke-linecap="round"/>
<path d="M606 107C605.718 107.376 605.212 107.67 605.011 108.077C604.903 108.294 604.75 108.522 604.602 108.713C604.468 108.888 604.338 109.156 604.237 109.35C604.103 109.604 603.898 109.761 603.774 109.981C603.531 110.41 602.439 111.363 601.79 112.385C600.884 113.811 599.915 115.016 598.742 116.203C597.16 117.803 595.445 119.245 594 121" stroke="black" stroke-linecap="round"/>
<path d="M605 108C604.434 108.431 604.4 108.935 603.99 109.509C603.756 109.836 603.516 110.146 603.385 110.526C603.112 111.321 602.526 112.383 602 113" stroke="black" stroke-linecap="round"/>
<path d="M565.746 74.6984L564.336 73.5489L566.182 73.8499L569.324 74.3621C569.199 72.8024 568.791 70.6304 567.922 68.5757C566.93 66.2313 565.37 64.1126 563.023 63.1601C558.141 61.179 552.978 62.3247 551.034 63.1373L550.937 63.1777L550.833 63.1759C549.522 63.1532 547.507 63.0273 545.713 62.7207C544.818 62.5677 543.958 62.3665 543.262 62.102C543.136 62.0541 543.011 62.0025 542.889 61.9466C543.045 62.4145 543.253 62.9831 543.514 63.6248C544.385 65.766 545.835 68.6873 547.911 71.3721C549.988 74.0589 552.67 76.4788 555.997 77.6702C559.171 78.8067 562.984 78.8439 567.51 76.8458C566.873 76.0792 566.274 75.3494 565.746 74.6984ZM573.624 81.9311C572.701 80.9355 571.609 79.8674 570.496 78.8347C571.872 80.4396 573.255 82.0007 574.379 83.1721C574.844 83.6569 575.256 84.065 575.598 84.3793C575.503 84.2272 575.392 84.0637 575.266 83.8891C574.844 83.3049 574.28 82.64 573.624 81.9311ZM576.479 85.0567C576.479 85.0564 576.475 85.0552 576.469 85.0537C576.476 85.0562 576.479 85.0569 576.479 85.0567Z" stroke="black"/>
<path d="M552.892 68.8641C554.076 68.9615 555.255 69.1559 556.442 69.1564C557.48 69.1568 559.155 69.2653 557.927 67.9293C557.855 67.8514 554.302 65.2409 554.584 66.5696C554.629 66.7813 555.627 68.3065 555.009 68.2815C553.988 68.2402 555.228 68.0626 555.602 68.077C557.029 68.132 558.371 68.2107 559.738 68.6533C560.782 68.9917 562.475 69.5681 563.393 70.1214C564.083 70.5366 563.038 71.0891 564.288 71.1873" stroke="black" stroke-width="3" stroke-linecap="round"/>
<path d="M557.588 71.1761C556.375 70.5103 555.094 70.0009 553.808 69.4955C553.366 69.3219 552.826 68.9837 553.309 69.5621C553.96 70.3423 554.559 71.6056 555.44 72.1527C555.912 72.4455 557.402 73.1289 556.992 72.7549C556.27 72.096 554.866 71.9031 554.344 71.0796" stroke="black" stroke-linecap="round"/>
<path d="M553.024 62.6493C552.215 62.8501 551.407 63.0508 550.598 63.2516C550.175 63.3564 549.673 63.2236 549.203 63.3402" stroke="black" stroke-linecap="round"/>
<path d="M552.539 62.7698C551.608 62.8169 550.738 63.0766 549.8 63.0346C549.132 63.0047 548.278 63.116 547.627 63.2162" stroke="black" stroke-linecap="round"/>
<path d="M576.937 84.7906C576.612 84.6511 575.886 84.4585 575.732 84.1166C575.604 83.8307 575.45 83.3034 575.128 83.2077C574.694 83.0791 574.4 82.5037 574.031 82.421" stroke="black" stroke-linecap="round"/>
<path d="M565.799 74.1609C566.299 74.3844 566.607 74.5669 566.797 75.0721C566.845 75.1978 567.216 75.6799 567.322 75.7434C567.761 76.0076 568.331 76.417 568.671 76.7966C569.031 77.1985 569.469 77.461 569.936 77.7419C570.425 78.0364 570.768 78.8589 571.254 79.0175C571.511 79.1013 571.683 79.4957 571.927 79.6519C572.221 79.8411 572.68 80.1255 572.909 80.3812C573.334 80.8561 574.088 81.2648 574.693 81.4554C575.355 81.6641 576.021 82.1366 576.189 82.8154C576.287 83.208 576.254 83.0456 575.974 82.8689C575.726 82.7133 575.488 82.5683 575.206 82.487C574.884 82.3937 574.648 82.1583 574.335 82.088" stroke="black" stroke-linecap="round"/>
<path d="M573.972 81.1476C573.123 80.803 572.528 80.4868 571.852 79.8707" stroke="black" stroke-linecap="round"/>
<path d="M571.611 79.4156C571.442 79.1912 570.824 78.838 571.187 78.7479" stroke="black" stroke-linecap="round"/>
<path d="M571.46 78.809C571.117 78.656 570.82 78.322 570.487 78.2633C570.312 78.2323 569.825 77.9435 569.7 77.8291C569.355 77.5147 568.899 77.2905 568.58 76.9481C568.148 76.4847 566.676 74.7158 566.101 74.8587" stroke="black" stroke-linecap="round"/>
<path d="M575.184 81.8773C574.948 81.017 574.637 80.9618 573.882 80.7837C573.507 80.6952 572.549 80.0445 572.921 80.142C573.54 80.3039 574.141 80.5844 574.687 80.913C574.845 81.0082 575.295 81.5235 574.807 81.341C573.883 80.9949 573.317 79.712 572.375 79.6122C572.026 79.5753 571.516 79.0033 572.106 79.3069C572.61 79.5666 572.724 80.0371 573.125 80.3276C573.514 80.61 574.006 80.9178 574.375 81.2409C575.016 81.8026 575.813 81.9821 576.395 82.6069" stroke="black" stroke-linecap="round"/>
<path d="M560.958 68.15C561.585 67.9463 562.504 67.3703 563.086 67.901C563.515 68.2927 563.828 68.8054 564.07 69.3309C564.164 69.5351 564.405 69.6752 564.472 69.8537C564.644 70.3105 565.037 70.8706 565.46 71.1253C566.347 71.6596 566.532 72.5115 567.646 72.5505C567.735 72.5537 567.84 72.8775 567.973 72.9486C568.468 73.2119 567.789 72.3791 567.72 72.2744C567.294 71.6235 567.022 70.7894 566.835 70.0328C566.431 68.4087 567.24 69.814 567.7 70.4048C568.15 70.9833 567.627 70.2725 567.507 70.0306C567.222 69.4593 566.754 69.0829 566.354 68.6139" stroke="black" stroke-width="2" stroke-linecap="round"/>
<path d="M566.748 68.6449C566.291 67.933 565.325 66.2889 564.364 66.0167C564.062 65.9314 563.723 65.5454 563.459 65.3684C563.303 65.2642 564.355 65.6763 564.482 65.7441C564.506 65.7565 565.336 66.2907 565.32 66.2373C565.051 65.3531 563.742 65.1698 563.038 64.8574C562.573 64.6509 562.09 64.4727 561.608 64.311C561.446 64.2566 561.059 64.18 560.95 64.0522C560.715 63.7776 561.679 64.0976 562.021 64.2157C562.445 64.3626 562.753 64.8092 563.146 65.0311C563.692 65.3392 562.252 64.7488 562.085 64.679C561.122 64.2762 560.345 63.8142 559.322 63.6334C558.589 63.504 557.994 63.5393 557.252 63.6535C556.885 63.71 556.356 63.6926 555.978 63.6547C555.132 63.57 556.806 63.4155 557.043 63.3904C557.13 63.3813 558.065 63.3299 557.816 63.3917C557.516 63.4662 556.876 63.4655 556.563 63.4166C555.918 63.3156 555.258 63.5117 554.629 63.6676C553.915 63.8449 553.122 63.913 552.382 64.0967C551.321 64.36 550.319 64.6791 549.228 64.5933C548.208 64.5131 546.916 64.6333 545.995 64.1365C545.711 63.9835 545.504 63.9534 545.172 63.9616C544.91 63.9681 544.836 63.7199 544.579 63.6507C544.397 63.6016 545.071 65.0857 545.289 65.3278C545.556 65.6245 545.745 66.0033 545.961 66.363C546.47 67.2106 547.146 68.1094 547.853 68.7983C548.198 69.1337 548.612 69.473 548.889 69.8578" stroke="black" stroke-width="2" stroke-linecap="round"/>
<path d="M548.655 64.7641C548.557 64.6635 548.212 64.1559 548.045 64.15C547.955 64.1469 547.854 64.2237 547.767 64.1833C547.596 64.1045 547.395 64.259 547.251 64.1824C546.825 63.9551 546.516 64.0732 546.066 63.9614C545.643 63.8563 545.354 63.9966 544.907 63.7911C544.782 63.7331 544.55 63.7935 544.433 63.7229C544.277 63.629 544.295 63.5012 544.079 63.4528" stroke="black" stroke-width="2" stroke-linecap="round"/>
<path d="M566.831 73.1319C566.006 73.3368 565.498 73.4287 564.682 73.1788C563.357 72.7732 562.067 72.2537 560.733 71.8551C558.82 71.2834 556.814 70.5283 555.02 69.6525C554.105 69.2058 553.131 68.9047 552.236 68.4116C550.64 67.5321 548.423 67.2184 547.512 65.4629C547.404 65.256 549.911 66.0869 550.266 66.2962C551.05 66.7587 551.512 67.5922 552.287 68.0411C553.841 68.9408 555.956 69.2257 557.668 69.6536C559.425 70.0929 561.19 70.4204 562.885 71.0705C562.924 71.0856 563.867 71.4466 563.61 71.3984C562.466 71.1836 561.329 70.7931 560.232 70.4125C559.442 70.1384 558.537 69.8679 557.813 69.4315C557.588 69.2962 558.342 69.4077 558.599 69.4581C560.102 69.7523 561.596 70.0869 563.112 70.3129C563.841 70.4216 564.691 70.5854 565.423 70.369C566.487 70.0539 566.405 68.9826 566.216 68.0898C565.987 67.0042 565.532 66.4213 564.951 65.5562C564.723 65.2182 564.253 65.0113 563.992 64.6923C563.655 64.2804 563.854 64.0477 563.262 63.9432C561.709 63.6688 564.014 67.0799 564.274 67.4988C564.683 68.1593 565.07 68.622 565.841 68.741C565.892 68.7488 566.178 68.8593 566.171 68.8595C565.355 68.8823 564.392 68.563 563.642 68.2994C562.583 67.9269 561.653 67.264 560.583 66.9266C559.217 66.4964 557.756 66.415 556.336 66.3637C555.065 66.3177 553.796 66.3132 552.526 66.236C551.265 66.1593 555.01 66.7214 556.229 67.0557C556.669 67.1765 557.937 67.5355 558.493 67.7602C558.555 67.7854 558.724 67.8657 558.658 67.8767C558.489 67.9045 558.317 67.8466 558.149 67.8169C556.691 67.5593 555.265 67.1241 553.846 66.7098C553.229 66.5298 552.616 66.3612 551.987 66.2267C551.284 66.076 553.348 66.6926 554.024 66.9375C554.872 67.2444 557.341 68.0771 556.442 68.1475C555.425 68.2272 554.111 67.6101 553.2 67.2494C553.048 67.1894 549.859 65.9276 551.175 65.72C552.365 65.5321 553.6 65.5389 554.796 65.6655C555.231 65.7116 555.464 65.7606 555.862 65.8374C555.953 65.8549 556.194 65.8589 556.126 65.922C555.738 66.2839 554.22 66.072 553.795 66.0427C553.295 66.0083 551.873 65.6817 552.364 65.5822C553.823 65.2867 558.307 65.94 556.822 65.8424C556.152 65.7983 555.176 65.8616 554.571 65.5354C553.811 65.1257 556.292 65.3402 557.154 65.3663C557.768 65.3848 558.382 65.4749 558.994 65.4249C559.205 65.4077 558.603 65.2555 558.396 65.2083C558.341 65.1958 556.343 64.751 556.947 64.7882C558.229 64.8674 559.535 65.2952 560.726 65.7462C561.481 66.0319 562.411 66.375 563.003 66.9627C563.236 67.1938 563.444 67.9057 563.41 68.2283C563.371 68.5981 562.66 68.157 562.314 68.021C561.634 67.7536 560.891 67.0793 560.127 67.2257C559.255 67.3931 557.849 67.959 557.131 68.2699C556.483 68.5502 554.958 69.1525 554.43 69.8705C553.784 70.7499 555.774 71.6461 556.276 71.9166C557.655 72.6593 559.128 73.2505 560.471 74.0594C561.59 74.7329 562.633 75.2413 563.9 75.6197C565.084 75.9736 563.332 74.1736 563.084 73.8903C563.03 73.8292 561.934 72.5554 562.442 72.8618C562.944 73.1642 563.29 73.5016 563.458 74.0694C563.683 74.8309 564.411 74.7013 564.86 75.1666C565.299 75.6208 565.723 75.6876 566.27 75.9471C567.132 76.355 564.789 75.5629 565.016 75.5357C565.371 75.4933 565.906 75.51 566.234 75.6556C566.276 75.6743 566.68 75.8355 566.597 75.9375C566.216 76.405 562.216 73.1836 561.489 72.9983C560.9 72.8483 560.263 72.8691 559.66 72.8655C559.449 72.8643 558.753 72.7797 559.307 73.0603C559.623 73.22 563.715 75.3756 562.74 75.9934C562.474 76.1619 561.432 76.2155 561.316 76.4541C561.241 76.6083 561.657 76.4949 561.828 76.4988C562.188 76.5071 562.244 76.5056 562.584 76.49C562.946 76.4733 563.311 76.4912 563.672 76.4918" stroke="black" stroke-width="2" stroke-linecap="round"/>
<path d="M565.733 77.0106C564.907 77.1945 563.996 77.1505 563.154 77.2573C562.302 77.3653 561.304 77.4395 560.457 77.2898C559.039 77.0391 557.803 77.7032 556.502 76.9193C555.955 76.5903 555.241 76.0884 554.646 75.9275C553.8 75.6992 553.087 75.4082 552.434 74.8021C551.708 74.1278 551.349 73.327 551.067 72.4081C550.899 71.857 550.202 71.426 549.671 71.3379C548.938 71.2164 548.935 70.7981 549.709 71.1999C550.338 71.5267 550.938 72.1482 551.046 72.8712C551.15 73.5613 550.359 73.4759 550.179 72.9506C549.819 71.8997 549.142 71.3555 548.472 70.4836C548.252 70.1978 547.509 69.0052 548.06 68.9974C549.908 68.9714 551.821 69.852 552.986 71.2593C553.305 71.6445 553.746 72.1544 553.967 72.6184C554.133 72.9659 553.304 72.2256 552.997 71.9936C551.543 70.8956 550.128 69.7391 548.728 68.5741C548.311 68.2271 547.634 67.7376 547.382 67.248C547.308 67.1035 547.702 67.141 547.863 67.1646C548.604 67.2734 549.319 67.5114 549.918 67.9782C551.247 69.0137 551.956 70.7665 552.105 72.4081C552.322 74.7929 554.89 75.3816 556.842 76.0693C557.508 76.3042 558.206 76.5238 558.909 76.6151C559.516 76.6939 560.145 76.4718 560.725 76.3218C561.426 76.1404 561.653 75.9711 561.195 75.2749C559.838 73.2085 556.367 73.6152 554.276 73.2859C553.49 73.1622 553.439 73.0769 554.326 73.5454C555.883 74.3674 557.368 75.2927 559.167 75.349C559.979 75.3744 560.787 75.3679 561.597 75.4255C562.094 75.4608 562.295 75.4924 561.582 75.3362C560.653 75.1323 559.717 74.9448 558.772 74.8245C558.712 74.8168 557.678 74.6292 558.299 74.9635C558.47 75.0557 560.264 75.8547 559.712 75.872C558.828 75.8998 557.979 75.7322 557.126 75.5409" stroke="black" stroke-width="2" stroke-linecap="round"/>
<path d="M574.578 81.5124L574.094 81.1175" stroke="black" stroke-linecap="round"/>
<path d="M566.404 74.5258C566.639 74.715 567.001 74.8185 567.19 75.0391C567.291 75.157 567.422 75.274 567.544 75.3698C567.655 75.4571 567.778 75.6032 567.871 75.7072C567.994 75.8443 568.146 75.9092 568.258 76.0262C568.476 76.2547 569.307 76.6751 569.871 77.2071C570.659 77.9501 571.451 78.5458 572.369 79.0985C573.607 79.844 574.903 80.4707 576.079 81.3331" stroke="black" stroke-linecap="round"/>
<path d="M567.45 74.8459C567.885 75.0323 567.987 75.3505 568.344 75.6541C568.547 75.8268 568.752 75.9874 568.898 76.2109C569.201 76.6781 569.75 77.2667 570.189 77.579" stroke="black" stroke-linecap="round"/>
<path d="M608.25 103.25C608.301 103.562 608.555 104.148 608.056 104.125C607.739 104.111 606.225 103.9 606.778 103.458C607.223 103.102 608.348 102.279 607.417 103.306C607.157 103.592 606.832 103.87 606.625 104.201C606.424 104.523 607.386 104.148 607.75 104.042C608.867 103.715 610.138 103.093 611.312 103.028C611.718 103.005 611.08 103.82 610.847 104.153C610.283 104.959 609.802 105.75 609.319 106.597C609.071 107.034 608.75 107.484 608.403 107.847C607.609 108.678 608.528 108 609.153 107.639C612.731 105.571 616.434 103.703 619.972 101.569C621.02 100.938 622.129 100.28 623.056 99.4722C624.087 98.5727 622.096 99.2893 622 99.3194C620.18 99.892 618.401 100.612 616.639 101.34C616.039 101.588 615.245 101.848 614.667 102.194C612.884 103.264 618.513 100.614 620.403 99.75C621.142 99.412 620.52 99.7644 620.285 99.9167C619.397 100.491 618.532 101.1 617.639 101.667C617.429 101.8 617.218 101.931 617 102.049C616.413 102.365 616.961 101.942 617.132 101.812C618.906 100.466 620.78 99.2455 622.597 97.9583C624.728 96.4491 627.365 94.8861 629 92.7778C629.794 91.7533 627.002 94.4804 626.278 95.5556C625.185 97.1773 624.688 99.0269 623.972 100.819C623.352 102.373 622.323 103.643 620.958 104.611C620.638 104.838 620.122 105.476 619.91 105.146C619.772 104.932 620.562 103.922 620.611 103.847C620.842 103.499 621.55 102.612 621.146 102.715C620.439 102.896 619.688 103.613 619.125 104.028C617.743 105.044 616.398 106.095 614.847 106.847C614.003 107.257 613.083 107.561 612.306 108.097C611.721 108.501 611.192 108.985 610.597 109.375C610.207 109.631 609.725 109.682 609.278 109.778C608.688 109.904 608.215 110.283 607.625 110.472C606.924 110.698 604.794 110.184 605.5 109.125" stroke="black" stroke-width="3" stroke-linecap="round"/>
<path d="M613.625 110.625C614.245 110.522 615.506 110.513 616.007 110.062C616.455 109.659 617.121 109.391 617.681 109.194C618.978 108.738 620.057 107.972 621.243 107.319C622.338 106.717 623.451 106.16 624.549 105.569C624.844 105.41 623.856 105.732 623.653 106C623.574 106.104 622.995 107.086 623.056 107.222C623.237 107.631 624.745 106.72 624.924 106.569C625.205 106.331 625.398 105.89 625.625 105.597C625.992 105.123 626.254 104.546 626.75 104.188C627.22 103.848 627.557 103.535 627.944 103.125C628.678 102.349 629.552 101.676 630.167 100.806C630.316 100.594 630.348 99.6446 630.069 99.6875C628.253 99.967 626.314 101.153 624.729 102.021C624.424 102.188 623.51 102.572 623.264 102.917C622.92 103.397 624.356 102.463 624.889 102.208C625.085 102.115 628.13 100.363 627.625 101.431C627.339 102.034 625.922 104.07 626.833 102.139C628.043 99.5752 629.465 97.1033 630.91 94.6667C630.927 94.6375 632.591 92.0973 632.007 92.4444C629.842 93.7314 629.877 96.3555 630.75 98.375C631.061 99.0938 630.886 99.0014 631.722 98.5833C632.26 98.3144 632.123 97.8366 632.375 97.3056C632.635 96.7574 632.901 96.2393 633.132 95.6806C633.45 94.9125 633.483 93.8838 633.896 93.1875C634.704 91.8233 635.75 90.1402 635.75 88.5139C635.75 87.9167 635.75 87.3194 635.75 86.7222C635.75 86.0578 636.058 85.5121 636.125 84.875C636.197 84.189 636.527 83.64 636.847 83.0347C636.961 82.8193 637.115 82.5051 637.167 82.2639C637.233 81.9538 636.102 82.6308 636.014 82.6944C635.5 83.0668 635.2 83.5734 634.625 83.8472C633.886 84.1989 633.08 84.4422 632.319 84.75C631.559 85.0576 630.809 85.3898 630.049 85.6875C629.722 85.8153 629.502 85.8695 630.042 85.875C630.688 85.8815 631.372 85.8047 632.014 85.9028C632.589 85.9906 633.357 86.0957 633.868 86.3819C634.441 86.7029 633.143 88.6511 633.028 88.8611C632.477 89.8641 630.729 92.8136 631.229 91.7847C631.501 91.2263 632.065 90.5431 632.042 89.8889C632.003 88.8101 630.132 88.9397 629.535 88.9097C629.354 88.9007 625.725 89.1313 626.417 88.3194C627.079 87.5423 628.012 87.0362 628.569 86.1528C629.017 85.4426 628.457 85.625 627.875 85.625C626.569 85.625 625.264 85.625 623.958 85.625C623.699 85.625 622.782 85.6119 622.785 85.6111C623.339 85.4725 623.87 85.25 624.444 85.25C626.179 85.25 627.886 85.125 629.618 85.125C630.207 85.125 629.843 85.2867 629.431 85.5556C627.377 86.893 625.411 87.8487 622.972 88.2639C622.494 88.3452 621.05 88.4861 621.535 88.4861C622.91 88.4861 624.308 88.38 625.681 88.5139C627.318 88.6736 625.764 89.2142 625.201 89.375C623.526 89.8537 621.664 90.1806 619.917 90.1806C617.209 90.1806 623.012 87.1222 622.854 86.5694C622.8 86.38 621.611 86.5 621.431 86.5C621.355 86.5 620.814 86.5119 620.993 86.4931C622.454 86.3392 620.192 86.3045 619.75 86.4028C619.297 86.5034 618.84 86.5669 618.375 86.625C617.416 86.7448 616.418 86.9123 615.556 87.3194C615.239 87.4687 614.786 87.3927 614.437 87.5C613.833 87.6861 613.29 88.0468 612.681 88.25C611.804 88.5421 611.029 89.08 610.194 89.4375C609.392 89.7815 608.381 90.0078 607.764 90.625C607.344 91.0451 606.999 91.5176 606.694 92.0278C606.409 92.5063 606.051 92.9528 605.722 93.4028C605.557 93.6288 605.386 93.8503 605.187 94.0486C605.051 94.1853 604.603 94.3372 604.764 94.4444C604.986 94.5927 605.288 94.3329 605.542 94.25C606.811 93.8355 608.062 93.3589 609.299 92.8542C610.447 92.3854 611.696 91.9288 612.764 91.2847C613.784 90.6695 614.662 89.8372 615.708 89.2639C616.212 88.988 618.797 87.7681 618.007 89.3264C616.636 92.0287 614.398 94.3981 612.542 96.7778C612.343 97.032 612.108 97.4185 611.847 97.6319C611.773 97.6923 611.879 97.4425 611.875 97.3472C611.837 96.3934 608.429 98.6292 608.194 98.8056C607.31 99.4716 606.343 100.163 605.625 101" stroke="black" stroke-width="3" stroke-linecap="round"/>
<path d="M603.625 104.375C602.806 103.749 602.875 103.424 602.875 102.5C602.875 101.889 603 101.328 603 100.688C603 99.8689 603.174 99.2469 603.528 98.5C603.81 97.9044 603.619 97.2361 604.063 96.6944C604.273 96.4377 604.511 96.1323 604.625 95.8194C604.681 95.6659 604.794 95.5782 604.931 95.5C604.991 95.4653 604.973 95.4172 604.917 95.4583C604.594 95.6948 604.369 96.1913 604.208 96.5278C603.286 98.4616 603.983 100.751 603.722 102.806C603.635 103.493 603.125 104.083 603.125 104.75C603.125 105.062 603.125 105.375 603.125 105.688C603.125 106.39 604.789 105.371 605 105.25" stroke="black" stroke-width="3" stroke-linecap="round"/>
<path d="M604 95.75C603.836 95.878 603.5 96.3617 603.5 96" stroke="black" stroke-width="3" stroke-linecap="round"/>
<path d="M604.25 104.875C603.681 105.323 603.089 105.811 602.694 106.431C602.57 106.627 602.398 106.895 602.792 106.556C604.246 105.303 605.437 103.841 606.785 102.493C608.673 100.605 611.157 99.4551 613.5 98.25" stroke="black" stroke-width="2" stroke-linecap="round"/>
<path d="M637.75 80.75L637.25 81.25" stroke="black" stroke-width="2" stroke-linecap="round"/>
<path d="M596.5 122.375C596.596 121.952 596.599 121.506 596.653 121.542C596.829 121.659 597.492 121.157 597.333 121.014C597.158 120.856 596.417 121.102 597.181 120.861C597.726 120.689 598.231 120.477 598.75 120.25" stroke="black" stroke-width="2" stroke-linecap="round"/>
</svg>
