<svg xmlns="http://www.w3.org/2000/svg" xmlns:xlink="http://www.w3.org/1999/xlink" width="1080" zoomAndPan="magnify" viewBox="0 0 810 809.999993" height="1080" preserveAspectRatio="xMidYMid meet" version="1.0"><defs><clipPath id="id1"><path d="M 104.792969 271 L 705.542969 271 L 705.542969 810 L 104.792969 810 Z M 104.792969 271 " clip-rule="nonzero"/></clipPath></defs><g clip-path="url(#id1)"><path fill="rgb(47.44873%, 31.759644%, 55.288696%)" d="M 544.539062 271.652344 C 484.816406 271.652344 432.75 304.246094 405.066406 352.582031 C 377.382812 304.246094 325.308594 271.652344 265.585938 271.652344 C 176.871094 271.652344 104.957031 343.527344 104.957031 432.191406 C 104.957031 620.734375 405.066406 810 405.066406 810 C 405.066406 810 705.175781 639.941406 705.175781 432.191406 C 705.175781 343.527344 633.253906 271.652344 544.539062 271.652344 " fill-opacity="1" fill-rule="nonzero"/></g><path fill="rgb(47.44873%, 31.759644%, 55.288696%)" d="M 289.515625 49.753906 L 298.410156 37.152344 C 285.441406 30.855469 276.601562 28.246094 276.601562 28.246094 C 276.601562 28.246094 278.25 28.742188 281.082031 29.761719 L 289.515625 49.753906 " fill-opacity="1" fill-rule="nonzero"/><path fill="rgb(47.44873%, 31.759644%, 55.288696%)" d="M 276.601562 28.246094 C 276.601562 28.246094 275.832031 29.820312 274.628906 32.640625 C 275.832031 29.820312 276.601562 28.246094 276.601562 28.246094 " fill-opacity="1" fill-rule="nonzero"/><path fill="rgb(47.44873%, 31.759644%, 55.288696%)" d="M 298.417969 37.164062 C 299.4375 37.660156 300.488281 38.179688 301.550781 38.726562 C 300.488281 38.1875 299.4375 37.660156 298.417969 37.164062 " fill-opacity="1" fill-rule="nonzero"/><path fill="rgb(47.44873%, 31.759644%, 55.288696%)" d="M 338.632812 184.246094 L 323.425781 148.210938 L 260.671875 142.8125 C 262.542969 154.402344 265.675781 166.339844 270.445312 178.371094 L 338.632812 184.246094 " fill-opacity="1" fill-rule="nonzero"/><path fill="rgb(47.44873%, 31.759644%, 55.288696%)" d="M 304.972656 40.507812 L 292.859375 57.675781 L 308.003906 93.539062 L 332.851562 58.339844 C 321.6875 49.84375 310.828125 43.453125 301.675781 38.785156 C 302.742188 39.339844 303.84375 39.910156 304.972656 40.507812 " fill-opacity="1" fill-rule="nonzero"/><path fill="rgb(47.44873%, 31.759644%, 55.288696%)" d="M 259.621094 135.246094 L 320.15625 140.460938 L 304.9375 104.425781 L 258.765625 100.453125 C 257.898438 113.597656 258.261719 127.894531 260.664062 142.773438 C 260.257812 140.246094 259.902344 137.730469 259.621094 135.246094 " fill-opacity="1" fill-rule="nonzero"/><path fill="rgb(47.44873%, 31.759644%, 55.288696%)" d="M 267.796875 51.566406 L 283.167969 52.890625 L 274.628906 32.640625 C 272.714844 37.121094 269.703125 44.84375 266.769531 55.050781 C 267.109375 53.851562 267.449219 52.683594 267.796875 51.566406 " fill-opacity="1" fill-rule="nonzero"/><path fill="rgb(47.44873%, 31.759644%, 55.288696%)" d="M 259.371094 93.042969 C 259.132812 95.453125 258.933594 97.917969 258.765625 100.417969 C 258.933594 97.917969 259.132812 95.453125 259.371094 93.042969 " fill-opacity="1" fill-rule="nonzero"/><path fill="rgb(47.44873%, 31.759644%, 55.288696%)" d="M 405.050781 242.445312 C 405.125 240.957031 405.171875 239.433594 405.238281 237.917969 C 405.171875 239.433594 405.125 240.957031 405.050781 242.445312 " fill-opacity="1" fill-rule="nonzero"/><path fill="rgb(47.44873%, 31.759644%, 55.288696%)" d="M 366.804688 232.808594 L 381.949219 268.679688 L 405.339844 235.558594 C 405.886719 218.726562 405.347656 200.339844 402.789062 181.839844 L 366.804688 232.808594 " fill-opacity="1" fill-rule="nonzero"/><path fill="rgb(47.44873%, 31.759644%, 55.288696%)" d="M 404.644531 249.175781 C 404.757812 247.472656 404.859375 245.730469 404.957031 243.992188 C 404.859375 245.730469 404.757812 247.472656 404.644531 249.175781 " fill-opacity="1" fill-rule="nonzero"/><path fill="rgb(47.44873%, 31.759644%, 55.288696%)" d="M 338.59375 62.859375 L 311.339844 101.453125 L 326.492188 137.324219 L 362.464844 86.355469 C 364.082031 88.265625 365.664062 90.246094 367.226562 92.265625 L 329.828125 145.238281 L 344.980469 181.109375 L 386.03125 122.945312 C 387.023438 125.046875 388.003906 127.167969 388.921875 129.351562 C 375.261719 96.992188 353.570312 74.101562 332.871094 58.355469 C 334.773438 59.804688 336.679688 61.292969 338.59375 62.859375 " fill-opacity="1" fill-rule="nonzero"/><path fill="rgb(47.44873%, 31.759644%, 55.288696%)" d="M 402.671875 181.019531 C 402.273438 178.261719 401.835938 175.503906 401.355469 172.742188 C 401.828125 175.503906 402.273438 178.261719 402.671875 181.019531 " fill-opacity="1" fill-rule="nonzero"/><path fill="rgb(47.44873%, 31.759644%, 55.288696%)" d="M 397.054688 304.453125 C 399.085938 294.921875 402.914062 274.582031 404.644531 249.183594 L 385.292969 276.601562 L 397.054688 304.453125 " fill-opacity="1" fill-rule="nonzero"/><path fill="rgb(47.44873%, 31.759644%, 55.288696%)" d="M 348.316406 189.023438 L 363.460938 224.894531 L 401.132812 171.53125 C 398.621094 157.648438 394.871094 143.855469 389.460938 130.734375 L 348.316406 189.023438 " fill-opacity="1" fill-rule="nonzero"/><path fill="rgb(47.44873%, 31.759644%, 55.288696%)" d="M 286.449219 60.640625 L 265.707031 58.851562 C 263.109375 68.554688 260.699219 80.128906 259.371094 93.035156 L 301.667969 96.675781 L 286.449219 60.640625 " fill-opacity="1" fill-rule="nonzero"/><path fill="rgb(47.44873%, 31.759644%, 55.288696%)" d="M 393.992188 309.371094 C 393.742188 309.21875 393.46875 309.0625 393.15625 308.882812 C 393.476562 309.0625 393.734375 309.21875 393.992188 309.371094 " fill-opacity="1" fill-rule="nonzero"/><path fill="rgb(47.44873%, 31.759644%, 55.288696%)" d="M 395.152344 310.03125 C 394.984375 309.949219 394.792969 309.832031 394.5625 309.699219 C 394.8125 309.839844 394.976562 309.941406 395.152344 310.03125 " fill-opacity="1" fill-rule="nonzero"/><path fill="rgb(47.44873%, 31.759644%, 55.288696%)" d="M 392.292969 308.367188 C 391.945312 308.152344 391.574219 307.9375 391.175781 307.6875 C 391.574219 307.9375 391.945312 308.152344 392.292969 308.367188 " fill-opacity="1" fill-rule="nonzero"/><path fill="rgb(47.44873%, 31.759644%, 55.288696%)" d="M 395.855469 309.792969 C 395.90625 309.585938 395.960938 309.351562 396.039062 309.023438 C 395.960938 309.335938 395.90625 309.585938 395.855469 309.792969 " fill-opacity="1" fill-rule="nonzero"/><path fill="rgb(47.44873%, 31.759644%, 55.288696%)" d="M 396.601562 306.546875 C 396.707031 306.074219 396.816406 305.5625 396.941406 304.988281 C 396.816406 305.5625 396.699219 306.082031 396.601562 306.546875 " fill-opacity="1" fill-rule="nonzero"/><path fill="rgb(47.44873%, 31.759644%, 55.288696%)" d="M 395.714844 310.363281 C 395.714844 310.363281 395.746094 310.246094 395.796875 310.023438 C 395.753906 310.222656 395.714844 310.363281 395.714844 310.363281 " fill-opacity="1" fill-rule="nonzero"/><path fill="rgb(47.44873%, 31.759644%, 55.288696%)" d="M 396.160156 308.46875 C 396.246094 308.136719 396.328125 307.773438 396.425781 307.347656 C 396.328125 307.761719 396.246094 308.136719 396.160156 308.46875 " fill-opacity="1" fill-rule="nonzero"/><path fill="rgb(47.44873%, 31.759644%, 55.288696%)" d="M 339.746094 269.839844 C 340.554688 270.550781 341.367188 271.246094 342.164062 271.941406 C 341.367188 271.246094 340.554688 270.542969 339.746094 269.839844 " fill-opacity="1" fill-rule="nonzero"/><path fill="rgb(47.44873%, 31.759644%, 55.288696%)" d="M 378.882812 279.574219 L 348.101562 276.917969 C 366.523438 292.074219 382.71875 302.53125 390.601562 307.339844 L 378.882812 279.574219 " fill-opacity="1" fill-rule="nonzero"/><path fill="rgb(47.44873%, 31.759644%, 55.288696%)" d="M 341.90625 192.003906 L 273.761719 186.125 C 279.691406 199.15625 287.1875 211.402344 295.578125 222.734375 L 357.121094 228.039062 L 341.90625 192.003906 " fill-opacity="1" fill-rule="nonzero"/><path fill="rgb(47.44873%, 31.759644%, 55.288696%)" d="M 395.714844 310.363281 L 395.441406 310.207031 L 395.714844 310.363281 " fill-opacity="1" fill-rule="nonzero"/><path fill="rgb(47.44873%, 31.759644%, 55.288696%)" d="M 295.792969 223.015625 C 297.597656 225.425781 299.421875 227.785156 301.277344 230.101562 C 299.421875 227.785156 297.597656 225.425781 295.792969 223.015625 " fill-opacity="1" fill-rule="nonzero"/><path fill="rgb(47.44873%, 31.759644%, 55.288696%)" d="M 344.625 274.027344 C 345.492188 274.757812 346.371094 275.484375 347.222656 276.207031 C 346.371094 275.484375 345.492188 274.757812 344.625 274.027344 " fill-opacity="1" fill-rule="nonzero"/><path fill="rgb(47.44873%, 31.759644%, 55.288696%)" d="M 266.746094 55.117188 C 266.394531 56.320312 266.066406 57.5625 265.71875 58.835938 C 266.066406 57.5625 266.394531 56.328125 266.746094 55.117188 " fill-opacity="1" fill-rule="nonzero"/><path fill="rgb(47.44873%, 31.759644%, 55.288696%)" d="M 375.609375 271.828125 L 360.394531 235.789062 L 301.789062 230.730469 C 313.347656 245.078125 326.070312 257.785156 338.34375 268.605469 L 375.609375 271.828125 " fill-opacity="1" fill-rule="nonzero"/><path fill="rgb(47.44873%, 31.759644%, 55.288696%)" d="M 482.449219 199.859375 L 468.972656 219.8125 L 509.648438 224.761719 C 511.621094 217.519531 512.730469 210.375 513.246094 203.601562 L 482.449219 199.859375 " fill-opacity="1" fill-rule="nonzero"/><path fill="rgb(47.44873%, 31.759644%, 55.288696%)" d="M 496.074219 254.242188 L 449.554688 248.578125 L 436.078125 268.546875 L 478.664062 273.714844 C 485.132812 267.933594 491.085938 261.453125 496.074219 254.242188 " fill-opacity="1" fill-rule="nonzero"/><path fill="rgb(47.44873%, 31.759644%, 55.288696%)" d="M 406.191406 312.8125 C 413.035156 310.710938 428.714844 305.402344 445.925781 296.199219 C 443.425781 297.539062 440.949219 298.796875 438.53125 299.972656 L 416.652344 297.316406 L 406.191406 312.8125 " fill-opacity="1" fill-rule="nonzero"/><path fill="rgb(47.44873%, 31.759644%, 55.288696%)" d="M 508.285156 229.332031 C 508.765625 227.824219 509.21875 226.335938 509.617188 224.84375 C 509.21875 226.335938 508.765625 227.824219 508.285156 229.332031 " fill-opacity="1" fill-rule="nonzero"/><path fill="rgb(47.44873%, 31.759644%, 55.288696%)" d="M 494.914062 172.699219 L 488.105469 160.140625 C 475.773438 163.171875 459.675781 169.066406 445.039062 180.429688 L 464.921875 217.121094 L 478.464844 197.0625 L 463.296875 169.082031 C 464.707031 168.402344 466.105469 167.730469 467.480469 167.117188 L 481.378906 192.75 L 494.914062 172.699219 " fill-opacity="1" fill-rule="nonzero"/><path fill="rgb(47.44873%, 31.759644%, 55.288696%)" d="M 452.519531 244.183594 L 498.941406 249.820312 C 503.03125 243.117188 506.0625 236.21875 508.265625 229.355469 L 466.003906 224.222656 L 452.519531 244.183594 " fill-opacity="1" fill-rule="nonzero"/><path fill="rgb(47.44873%, 31.759644%, 55.288696%)" d="M 402.796875 272.910156 C 402.738281 273.679688 402.671875 274.433594 402.605469 275.1875 C 402.671875 274.433594 402.738281 273.679688 402.796875 272.910156 " fill-opacity="1" fill-rule="nonzero"/><path fill="rgb(47.44873%, 31.759644%, 55.288696%)" d="M 433.105469 272.953125 L 419.636719 292.910156 L 446.066406 296.125 C 455.253906 291.191406 464.871094 285.15625 473.785156 277.894531 L 433.105469 272.953125 " fill-opacity="1" fill-rule="nonzero"/><path fill="rgb(47.44873%, 31.759644%, 55.288696%)" d="M 505.425781 157.125 C 502.351562 157.417969 497.152344 158.070312 490.679688 159.519531 C 491.394531 159.363281 492.097656 159.214844 492.769531 159.0625 L 497.820312 168.386719 L 505.425781 157.125 " fill-opacity="1" fill-rule="nonzero"/><path fill="rgb(47.44873%, 31.759644%, 55.288696%)" d="M 409.871094 234.648438 C 406.546875 245.808594 404.519531 257.140625 403.335938 267.628906 L 415.578125 290.214844 L 429.113281 270.164062 L 409.871094 234.648438 " fill-opacity="1" fill-rule="nonzero"/><path fill="rgb(47.44873%, 31.759644%, 55.288696%)" d="M 403.203125 268.871094 C 403.128906 269.542969 403.0625 270.21875 402.996094 270.882812 C 403.0625 270.21875 403.128906 269.542969 403.203125 268.871094 " fill-opacity="1" fill-rule="nonzero"/><path fill="rgb(47.44873%, 31.759644%, 55.288696%)" d="M 423.179688 204.488281 C 418.453125 211.988281 414.714844 220.152344 411.808594 228.554688 L 432.019531 265.847656 L 445.5625 245.796875 L 423.179688 204.488281 " fill-opacity="1" fill-rule="nonzero"/><path fill="rgb(47.44873%, 31.759644%, 55.288696%)" d="M 411.699219 228.894531 C 411.105469 230.640625 410.542969 232.394531 410.011719 234.160156 C 410.542969 232.394531 411.105469 230.640625 411.699219 228.894531 " fill-opacity="1" fill-rule="nonzero"/><path fill="rgb(47.44873%, 31.759644%, 55.288696%)" d="M 402.53125 313.882812 L 402.507812 313.632812 L 402.53125 313.882812 " fill-opacity="1" fill-rule="nonzero"/><path fill="rgb(47.44873%, 31.759644%, 55.288696%)" d="M 402.863281 313.789062 C 402.996094 313.765625 403.160156 313.707031 403.382812 313.648438 C 403.167969 313.707031 402.988281 313.757812 402.863281 313.789062 " fill-opacity="1" fill-rule="nonzero"/><path fill="rgb(47.44873%, 31.759644%, 55.288696%)" d="M 402.53125 313.882812 L 402.753906 313.824219 L 402.53125 313.882812 " fill-opacity="1" fill-rule="nonzero"/><path fill="rgb(47.44873%, 31.759644%, 55.288696%)" d="M 402.507812 313.609375 C 402.480469 313.261719 402.414062 312.605469 402.347656 311.65625 C 402.421875 312.597656 402.480469 313.277344 402.507812 313.609375 " fill-opacity="1" fill-rule="nonzero"/><path fill="rgb(47.44873%, 31.759644%, 55.288696%)" d="M 403.722656 313.542969 C 403.921875 313.492188 404.121094 313.433594 404.378906 313.359375 C 404.128906 313.433594 403.921875 313.492188 403.722656 313.542969 " fill-opacity="1" fill-rule="nonzero"/><path fill="rgb(47.44873%, 31.759644%, 55.288696%)" d="M 512.589844 177.152344 L 498.898438 175.488281 L 485.421875 195.449219 L 513.511719 198.867188 C 513.453125 200.40625 513.378906 201.972656 513.246094 203.554688 C 514.171875 191.464844 513.21875 180.5625 511.929688 172.328125 C 512.160156 173.847656 512.390625 175.457031 512.589844 177.152344 " fill-opacity="1" fill-rule="nonzero"/><path fill="rgb(47.44873%, 31.759644%, 55.288696%)" d="M 474.164062 277.570312 C 475.488281 276.488281 476.800781 275.378906 478.089844 274.226562 C 476.800781 275.378906 475.488281 276.488281 474.164062 277.570312 " fill-opacity="1" fill-rule="nonzero"/><path fill="rgb(47.44873%, 31.759644%, 55.288696%)" d="M 402.242188 309.980469 L 412.671875 294.527344 L 402.566406 275.867188 C 401.246094 292.863281 401.960938 306.503906 402.347656 311.644531 C 402.316406 311.164062 402.273438 310.609375 402.242188 309.980469 " fill-opacity="1" fill-rule="nonzero"/><path fill="rgb(47.44873%, 31.759644%, 55.288696%)" d="M 501.871094 171.09375 L 511.917969 172.308594 C 510.429688 162.832031 508.515625 156.902344 508.515625 156.902344 C 508.515625 156.902344 508.863281 158.003906 509.375 159.964844 L 501.871094 171.09375 " fill-opacity="1" fill-rule="nonzero"/><path fill="rgb(47.44873%, 31.759644%, 55.288696%)" d="M 441.421875 183.378906 C 442.613281 182.367188 443.808594 181.390625 445.015625 180.449219 C 443.808594 181.390625 442.613281 182.359375 441.421875 183.378906 " fill-opacity="1" fill-rule="nonzero"/><path fill="rgb(47.44873%, 31.759644%, 55.288696%)" d="M 508.515625 156.902344 C 508.515625 156.902344 507.445312 156.945312 505.566406 157.109375 C 507.4375 156.945312 508.515625 156.902344 508.515625 156.902344 " fill-opacity="1" fill-rule="nonzero"/><path fill="rgb(47.44873%, 31.759644%, 55.288696%)" d="M 490.441406 159.578125 C 489.710938 159.734375 488.96875 159.925781 488.203125 160.117188 C 488.96875 159.925781 489.710938 159.742188 490.441406 159.578125 " fill-opacity="1" fill-rule="nonzero"/><path fill="rgb(47.44873%, 31.759644%, 55.288696%)" d="M 404.984375 313.175781 C 405.214844 313.113281 405.429688 313.046875 405.679688 312.96875 C 405.4375 313.046875 405.199219 313.121094 404.984375 313.175781 " fill-opacity="1" fill-rule="nonzero"/><path fill="rgb(47.44873%, 31.759644%, 55.288696%)" d="M 448.476562 241.484375 L 462.003906 221.425781 L 441.394531 183.394531 C 435.914062 188.097656 430.710938 193.636719 426.082031 200.160156 L 448.476562 241.484375 " fill-opacity="1" fill-rule="nonzero"/><path fill="rgb(47.44873%, 31.759644%, 55.288696%)" d="M 416.296875 0 C 416.296875 0 415.683594 0.398438 414.648438 1.160156 C 415.675781 0.40625 416.296875 0 416.296875 0 " fill-opacity="1" fill-rule="nonzero"/><path fill="rgb(47.44873%, 31.759644%, 55.288696%)" d="M 417.085938 11.324219 L 423.355469 8.601562 C 419.371094 3.097656 416.296875 0 416.296875 0 C 416.296875 0 416.863281 0.570312 417.8125 1.640625 L 417.085938 11.324219 " fill-opacity="1" fill-rule="nonzero"/><path fill="rgb(47.44873%, 31.759644%, 55.288696%)" d="M 385.839844 40.152344 C 386.195312 39.109375 386.570312 38.082031 386.957031 37.078125 C 386.570312 38.082031 386.195312 39.109375 385.839844 40.152344 " fill-opacity="1" fill-rule="nonzero"/><path fill="rgb(47.44873%, 31.759644%, 55.288696%)" d="M 425.550781 110.210938 C 424.507812 111.949219 423.472656 113.632812 422.4375 115.230469 L 408.792969 121.164062 L 407.773438 134.640625 C 411.089844 130.925781 418.507812 122.082031 425.550781 110.210938 " fill-opacity="1" fill-rule="nonzero"/><path fill="rgb(47.44873%, 31.759644%, 55.288696%)" d="M 409.035156 74.621094 L 410.351562 57.179688 L 385.824219 40.191406 C 384.175781 45.085938 382.949219 50.417969 382.386719 56.171875 L 409.035156 74.621094 " fill-opacity="1" fill-rule="nonzero"/><path fill="rgb(47.44873%, 31.759644%, 55.288696%)" d="M 423.363281 8.617188 C 424 9.503906 424.664062 10.4375 425.335938 11.441406 L 416.796875 15.148438 L 415.476562 32.527344 L 432.996094 24.910156 C 433.476562 25.921875 433.949219 26.945312 434.398438 28 C 430.96875 20 426.824219 13.394531 423.363281 8.617188 " fill-opacity="1" fill-rule="nonzero"/><path fill="rgb(47.44873%, 31.759644%, 55.288696%)" d="M 407.816406 6.863281 C 407.070312 7.558594 406.292969 8.3125 405.496094 9.113281 C 406.292969 8.3125 407.070312 7.558594 407.816406 6.863281 " fill-opacity="1" fill-rule="nonzero"/><path fill="rgb(47.44873%, 31.759644%, 55.288696%)" d="M 414.574219 1.21875 C 413.058594 2.335938 410.65625 4.207031 407.816406 6.855469 L 413.828125 11.019531 L 414.574219 1.21875 " fill-opacity="1" fill-rule="nonzero"/><path fill="rgb(47.44873%, 31.759644%, 55.288696%)" d="M 410.632812 53.421875 L 411.949219 35.96875 L 393.910156 23.476562 C 391.332031 27.492188 388.9375 32.019531 386.976562 37.039062 L 410.632812 53.421875 " fill-opacity="1" fill-rule="nonzero"/><path fill="rgb(47.44873%, 31.759644%, 55.288696%)" d="M 412.230469 32.21875 L 413.546875 14.777344 L 405.445312 9.15625 C 402.347656 12.261719 398.945312 16.136719 395.707031 20.769531 L 412.230469 32.21875 " fill-opacity="1" fill-rule="nonzero"/><path fill="rgb(47.44873%, 31.759644%, 55.288696%)" d="M 384.242188 83.722656 C 385.980469 91.964844 388.523438 99.863281 391.273438 106.941406 L 405.84375 117.027344 L 407.152344 99.574219 L 384.242188 83.722656 " fill-opacity="1" fill-rule="nonzero"/><path fill="rgb(47.44873%, 31.759644%, 55.288696%)" d="M 395.671875 20.828125 C 395.085938 21.679688 394.496094 22.558594 393.917969 23.460938 C 394.496094 22.558594 395.085938 21.679688 395.671875 20.828125 " fill-opacity="1" fill-rule="nonzero"/><path fill="rgb(47.44873%, 31.759644%, 55.288696%)" d="M 434.40625 28.015625 L 415.195312 36.351562 L 413.886719 53.726562 L 439.25 42.699219 C 438.023438 37.417969 436.328125 32.5 434.40625 28.015625 " fill-opacity="1" fill-rule="nonzero"/><path fill="rgb(47.44873%, 31.759644%, 55.288696%)" d="M 405.992188 136.597656 L 406.109375 136.472656 L 405.992188 136.597656 " fill-opacity="1" fill-rule="nonzero"/><path fill="rgb(47.44873%, 31.759644%, 55.288696%)" d="M 437.097656 85.0625 C 436.699219 86.277344 436.285156 87.480469 435.855469 88.671875 C 436.285156 87.480469 436.699219 86.277344 437.097656 85.0625 " fill-opacity="1" fill-rule="nonzero"/><path fill="rgb(47.44873%, 31.759644%, 55.288696%)" d="M 406.125 136.464844 L 406.425781 136.140625 L 406.125 136.464844 " fill-opacity="1" fill-rule="nonzero"/><path fill="rgb(47.44873%, 31.759644%, 55.288696%)" d="M 407.160156 135.335938 L 407.558594 134.890625 L 407.160156 135.335938 " fill-opacity="1" fill-rule="nonzero"/><path fill="rgb(47.44873%, 31.759644%, 55.288696%)" d="M 406.539062 136.023438 L 406.929688 135.59375 L 406.539062 136.023438 " fill-opacity="1" fill-rule="nonzero"/><path fill="rgb(47.44873%, 31.759644%, 55.288696%)" d="M 439.257812 42.734375 C 439.515625 43.84375 439.738281 44.96875 439.964844 46.101562 L 413.589844 57.550781 L 412.289062 74.929688 L 441.230469 62.355469 C 441.199219 63.390625 441.148438 64.433594 441.074219 65.492188 C 441.6875 57.386719 440.882812 49.746094 439.257812 42.734375 " fill-opacity="1" fill-rule="nonzero"/><path fill="rgb(47.44873%, 31.759644%, 55.288696%)" d="M 411.992188 78.761719 L 410.691406 96.121094 L 437.238281 84.582031 C 439.117188 78.664062 440.476562 72.46875 441.007812 66.152344 L 411.992188 78.761719 " fill-opacity="1" fill-rule="nonzero"/><path fill="rgb(47.44873%, 31.759644%, 55.288696%)" d="M 405.992188 136.597656 L 405.894531 136.445312 L 405.992188 136.597656 " fill-opacity="1" fill-rule="nonzero"/><path fill="rgb(47.44873%, 31.759644%, 55.288696%)" d="M 410.390625 99.957031 L 409.074219 117.324219 L 425.566406 110.164062 C 429.320312 103.835938 432.9375 96.652344 435.765625 88.945312 L 410.390625 99.957031 " fill-opacity="1" fill-rule="nonzero"/><path fill="rgb(47.44873%, 31.759644%, 55.288696%)" d="M 383.453125 79.582031 C 383.679688 80.839844 383.917969 82.097656 384.175781 83.347656 C 383.917969 82.097656 383.679688 80.839844 383.453125 79.582031 " fill-opacity="1" fill-rule="nonzero"/><path fill="rgb(47.44873%, 31.759644%, 55.288696%)" d="M 382.113281 59.929688 C 381.824219 66.34375 382.328125 72.828125 383.390625 79.167969 L 407.433594 95.824219 L 408.753906 78.375 L 382.113281 59.929688 " fill-opacity="1" fill-rule="nonzero"/><path fill="rgb(47.44873%, 31.759644%, 55.288696%)" d="M 393.410156 112.199219 C 392.757812 110.652344 392.09375 109.027344 391.441406 107.371094 C 392.09375 109.035156 392.757812 110.652344 393.410156 112.199219 " fill-opacity="1" fill-rule="nonzero"/><path fill="rgb(47.44873%, 31.759644%, 55.288696%)" d="M 404.535156 134.226562 L 405.546875 120.777344 L 393.511719 112.449219 C 399.234375 125.792969 405.082031 135.171875 405.886719 136.4375 C 405.6875 136.125 405.214844 135.378906 404.535156 134.226562 " fill-opacity="1" fill-rule="nonzero"/><path fill="rgb(47.44873%, 31.759644%, 55.288696%)" d="M 462.304688 100.535156 C 462.304688 100.535156 461.824219 100.652344 460.96875 100.90625 C 461.804688 100.652344 462.304688 100.535156 462.304688 100.535156 " fill-opacity="1" fill-rule="nonzero"/><path fill="rgb(47.44873%, 31.759644%, 55.288696%)" d="M 460.222656 108.042969 L 464.902344 107.710938 C 463.578125 103.234375 462.304688 100.535156 462.304688 100.535156 C 462.304688 100.535156 462.542969 101.039062 462.917969 101.941406 L 460.222656 108.042969 " fill-opacity="1" fill-rule="nonzero"/><path fill="rgb(47.44873%, 31.759644%, 55.288696%)" d="M 433.402344 119.582031 C 433.875 118.988281 434.347656 118.40625 434.835938 117.84375 C 434.347656 118.40625 433.875 118.988281 433.402344 119.582031 " fill-opacity="1" fill-rule="nonzero"/><path fill="rgb(47.44873%, 31.759644%, 55.288696%)" d="M 443.101562 174.015625 C 442.035156 174.910156 440.980469 175.753906 439.945312 176.566406 L 429.75 177.277344 L 426.015625 185.777344 C 429.011719 184.132812 435.839844 180.101562 443.101562 174.015625 " fill-opacity="1" fill-rule="nonzero"/><path fill="rgb(47.44873%, 31.759644%, 55.288696%)" d="M 440.550781 147.191406 L 445.378906 136.199219 L 433.386719 119.609375 C 431.191406 122.398438 429.1875 125.570312 427.511719 129.171875 L 440.550781 147.191406 " fill-opacity="1" fill-rule="nonzero"/><path fill="rgb(47.44873%, 31.759644%, 55.288696%)" d="M 464.914062 107.730469 C 465.128906 108.441406 465.335938 109.203125 465.535156 110.003906 L 459.164062 110.460938 L 454.34375 121.414062 L 467.429688 120.476562 C 467.511719 121.246094 467.578125 122.007812 467.628906 122.796875 C 467.230469 116.835938 466.054688 111.613281 464.914062 107.730469 " fill-opacity="1" fill-rule="nonzero"/><path fill="rgb(47.44873%, 31.759644%, 55.288696%)" d="M 455.246094 103.042969 C 454.609375 103.324219 453.921875 103.632812 453.226562 103.96875 C 453.921875 103.632812 454.609375 103.324219 455.246094 103.042969 " fill-opacity="1" fill-rule="nonzero"/><path fill="rgb(47.44873%, 31.759644%, 55.288696%)" d="M 460.910156 100.925781 C 459.667969 101.304688 457.699219 101.976562 455.253906 103.035156 L 458.1875 107.109375 L 460.910156 100.925781 " fill-opacity="1" fill-rule="nonzero"/><path fill="rgb(47.44873%, 31.759644%, 55.288696%)" d="M 446.425781 133.832031 L 451.269531 122.835938 L 442.441406 110.617188 C 439.863281 112.636719 437.261719 115.023438 434.851562 117.820312 L 446.425781 133.832031 " fill-opacity="1" fill-rule="nonzero"/><path fill="rgb(47.44873%, 31.759644%, 55.288696%)" d="M 452.304688 120.46875 L 457.144531 109.46875 L 453.183594 103.988281 C 450.464844 105.292969 447.386719 107.015625 444.222656 109.285156 L 452.304688 120.46875 " fill-opacity="1" fill-rule="nonzero"/><path fill="rgb(47.44873%, 31.759644%, 55.288696%)" d="M 422.417969 147.433594 C 421.648438 153.160156 421.5 158.867188 421.664062 164.074219 L 428.78125 173.933594 L 433.625 162.929688 L 422.417969 147.433594 " fill-opacity="1" fill-rule="nonzero"/><path fill="rgb(47.44873%, 31.759644%, 55.288696%)" d="M 444.1875 109.316406 C 443.601562 109.722656 443.035156 110.171875 442.449219 110.609375 C 443.035156 110.171875 443.601562 109.722656 444.1875 109.316406 " fill-opacity="1" fill-rule="nonzero"/><path fill="rgb(47.44873%, 31.759644%, 55.288696%)" d="M 467.628906 122.804688 L 453.292969 123.832031 L 448.460938 134.773438 L 467.40625 133.425781 C 467.820312 129.726562 467.84375 126.148438 467.628906 122.804688 " fill-opacity="1" fill-rule="nonzero"/><path fill="rgb(47.44873%, 31.759644%, 55.288696%)" d="M 424.414062 186.640625 L 424.515625 186.589844 L 424.414062 186.640625 " fill-opacity="1" fill-rule="nonzero"/><path fill="rgb(47.44873%, 31.759644%, 55.288696%)" d="M 456.332031 160.363281 C 455.800781 161.066406 455.261719 161.746094 454.714844 162.425781 C 455.261719 161.746094 455.800781 161.066406 456.332031 160.363281 " fill-opacity="1" fill-rule="nonzero"/><path fill="rgb(47.44873%, 31.759644%, 55.288696%)" d="M 424.523438 186.582031 L 424.796875 186.441406 L 424.523438 186.582031 " fill-opacity="1" fill-rule="nonzero"/><path fill="rgb(47.44873%, 31.759644%, 55.288696%)" d="M 425.449219 186.09375 L 425.824219 185.894531 L 425.449219 186.09375 " fill-opacity="1" fill-rule="nonzero"/><path fill="rgb(47.44873%, 31.759644%, 55.288696%)" d="M 424.886719 186.390625 L 425.242188 186.203125 L 424.886719 186.390625 " fill-opacity="1" fill-rule="nonzero"/><path fill="rgb(47.44873%, 31.759644%, 55.288696%)" d="M 467.40625 133.449219 C 467.324219 134.226562 467.207031 135.007812 467.089844 135.785156 L 447.394531 137.191406 L 442.582031 148.136719 L 464.199219 146.605469 C 463.941406 147.265625 463.667969 147.9375 463.378906 148.601562 C 465.625 143.492188 466.851562 138.359375 467.40625 133.449219 " fill-opacity="1" fill-rule="nonzero"/><path fill="rgb(47.44873%, 31.759644%, 55.288696%)" d="M 441.511719 150.554688 L 436.699219 161.496094 L 456.539062 160.089844 C 459.105469 156.6875 461.390625 152.988281 463.191406 149.015625 L 441.511719 150.554688 " fill-opacity="1" fill-rule="nonzero"/><path fill="rgb(47.44873%, 31.759644%, 55.288696%)" d="M 424.414062 186.640625 L 424.382812 186.523438 L 424.414062 186.640625 " fill-opacity="1" fill-rule="nonzero"/><path fill="rgb(47.44873%, 31.759644%, 55.288696%)" d="M 435.640625 163.914062 L 430.820312 174.867188 L 443.136719 173.992188 C 447.003906 170.746094 450.996094 166.929688 454.582031 162.574219 L 435.640625 163.914062 " fill-opacity="1" fill-rule="nonzero"/><path fill="rgb(47.44873%, 31.759644%, 55.288696%)" d="M 422.851562 144.578125 C 422.699219 145.4375 422.570312 146.308594 422.453125 147.175781 C 422.570312 146.308594 422.699219 145.4375 422.851562 144.578125 " fill-opacity="1" fill-rule="nonzero"/><path fill="rgb(47.44873%, 31.759644%, 55.288696%)" d="M 426.46875 131.539062 C 424.820312 135.621094 423.660156 139.941406 422.898438 144.285156 L 434.660156 160.5625 L 439.507812 149.558594 L 426.46875 131.539062 " fill-opacity="1" fill-rule="nonzero"/><path fill="rgb(47.44873%, 31.759644%, 55.288696%)" d="M 421.839844 167.972656 C 421.773438 166.8125 421.707031 165.613281 421.675781 164.386719 C 421.707031 165.613281 421.773438 166.8125 421.839844 167.972656 " fill-opacity="1" fill-rule="nonzero"/><path fill="rgb(47.44873%, 31.759644%, 55.288696%)" d="M 424.011719 184.777344 L 427.746094 176.292969 L 421.855469 168.152344 C 422.503906 178.097656 424.152344 185.503906 424.382812 186.515625 C 424.332031 186.265625 424.191406 185.671875 424.011719 184.777344 " fill-opacity="1" fill-rule="nonzero"/></svg>