<?xml version="1.0" encoding="utf-8"?>

<!DOCTYPE svg PUBLIC "-//W3C//DTD SVG 1.1//EN" "http://www.w3.org/Graphics/SVG/1.1/DTD/svg11.dtd">
<svg version="1.1" id="Layer_1" xmlns="http://www.w3.org/2000/svg" xmlns:xlink="http://www.w3.org/1999/xlink" x="0px" y="0px"
	 viewBox="-30.1937 13.4652 1937.1937 1579.1622" enable-background="new -30.1937 13.4652 1937.1937 1579.1622"
	 xml:space="preserve">
<g>
	<path fill="#989933" stroke="#989933" stroke-width="0.0938" d="M1033.26,38.78c27.73,39.79,52.92,81.39,75.59,124.26
		c40.49,77.21,72.55,159.62,87.37,245.79c8.02,47.82,10.66,96.85,4.1901,145.02c-5.7101,43-19,85.44-42.13,122.35
		c-20.97,33.87-50.53,62.38-85.24,81.96c-43.62,24.8-94.0701,35.61-143.9301,36.52c2.06-23.23,7.13-46.11,13.07-68.63
		c11.26-41.35,27.56-81.08,44.39-120.41c16.17-37.84,32.92-75.56,45.05-114.94c7.17-23.38,12.58-47.36,14.95-71.73
		c3.5901-36.33-0.13-73.4-11.24-108.18c2.74,21.95,4.55,44.13,3.53,66.27c-0.77,25.36-4.78,50.6-11.67,75.01
		c-11.8799,42.39-32.84,81.43-54.72,119.36c-22.3799,39.22-45.4399,78.39-61.12,120.91c-7.65,20.36-13.72,41.33-17.97,62.67
		c-2.19,9.41-2.92,19.14-5.13,28.51c-5.57-17.2-11.82-34.2-16.94-51.55c-14.53-47.15-25.98-95.41-30.95-144.5699
		c-2.78-29.03-3.21-58.39,0.05-87.41c3.84-33.81,13.11-67.04,27.91-97.7c14.83-31.25,35-59.56,56.19-86.76
		c17.93-23.15,36.61-45.76,53.09-69.99c17.3-25.18,31.98-52.36,41.58-81.43C1032.6899,123.92,1036.14,80.91,1033.26,38.78
		 M1037.77,107.11c-3.24,30.8-9.92,61.29-20.45,90.43l-0.19,0.05c-5.31,14.64-11.6,28.91-18.49,42.88
		c-6.66,12.94-13.62,25.74-21.1,38.24c-6.45,10.76-13.15,21.38-19.82,32c-8.3799,12.85-16.65,25.76-24.78,38.76
		c-5.25,8.3-10.55,16.64-15.32,25.2c-5.43,8.78-10.32,17.9-15.09,27.06c-4.34,8.38-8.61,16.84-12.16,25.59l-0.18-0.1
		c-6.91,15.87-12.89,32.16-17.53,48.84c-6.29,21.42-9.84,43.58-11.78,65.79c-1.43,15.12-1.8,30.44-0.92,45.6
		c-0.73,2.68-0.09,5.54,0.28,8.25c-0.52,7.78,0.9,15.53,1.38,23.29c1.69,16.39,4.01,32.74,7.26,48.9c0.48,6.59,2.4,12.98,3.67,19.45
		c2.73,13.7,6.81,27.0699,10.1,40.6299c0.18-3.03-0.56-6-0.94-8.98c-2.76-17.86-4.37-35.89-4.68-53.96
		c-0.09-3.17,0.24-6.39-0.4901-9.51c0.71-13.82,0.84-27.78,2.51-41.57c-0.01-1.48,0.67-3.12-0.05-4.49
		c1.91-11.45,3.22-23.01,5.3-34.44c1.73-9.72,3.95-19.34,6.08-28.97c4.03-17.25,9.12-34.23,14.53-51.09
		c0.91-3.14,2.48-6.13,2.9301-9.37c6.05-17.05,12.56-33.98,19.05-50.86c3.97-8.88,7.55-17.95,11.39-26.9
		c3.34-7.61,6.7-15.22,10.04-22.83c3.85-8.77,7.99-17.43,11.83-26.21c5.2599-11.5,10.65-22.95,15.8199-34.49
		c6.0601-13.4,12.3-26.72,18.07-40.24c5.09-11.81,10.23-23.6,14.8-35.61c5.97-15.11,11.5-30.4,16.18-45.96
		C1034.17,171.66,1040.38,139.38,1037.77,107.11 M1150.9301,384.29c0.24,4.29,1.1599,8.51,2.0099,12.72
		c1.3101,4.8,0.89,9.9,2.4801,14.66c1.0299,2.75-0.4401,6.17,1.5599,8.52c3.39,22.39,4.37,45.08,3.91,67.7
		c-0.87,12.32-1.79,24.7-4.37,36.81c-0.22,1.28-0.65,2.63-0.21,3.93c-2.39,8.02-3.78,16.31-6.3401,24.29
		c-2.61,9.8-6.4399,19.19-9.84,28.72c-7.88,19.46-17.62,38.12-28.15,56.27c-6.84,11.42-14.21,22.53-21.51,33.65
		c-15.95,22.74-32.95,44.76-50.7999,66.05c-4.4501,5.69-9.67,10.85-13.86,16.7c43.22-19.2,83.72-46.89,112.6799-84.73l0.27,0.04
		c8.47-11.27,16.24-23.12,22.55-35.75c9.0099-17.44,15.9099-36.11,19.96-55.33l0.29,0.36c3.5699-16.69,6.1899-33.63,6.73-50.7
		c0.89-4,0.52-8.13,0.6899-12.19c0.0701-14.82-0.1799-29.73-2.3199-44.41c0.0699-0.4,0.21-1.19,0.2799-1.58
		c-1.9399-19.53-5.45-38.89-9.7999-58.03c-0.4301-5.62-2.48-10.93-3.7001-16.39c-0.9099-4.04-2.2899-7.97-4.23-11.63
		c-0.1799,2.33-0.33,4.68-0.75,6.99c-0.27-1.57-0.52-3.13-0.6899-4.7C1162.27,384.68,1155.73,387.89,1150.9301,384.29z"/>
	<path fill="#989933" stroke="#989933" stroke-width="0.0938" d="M363.87,429.02c11.18,1.53,22.1,4.65,33.14,7
		c76.44,18.46,151.75,45.2,218.56,87.3c31.4,20.03,60.87,43.54,85.37,71.72c19.81,22.76,36.33,48.63,46.95,76.95
		c9.96,26.41,14.44,54.88,12.64,83.08c-2.3701,42.86-19.33,83.87-43.51,118.96c-17.87,25.93-39.57,49.0699-63.3,69.7
		c-7.0099,5.82-13.7599,12.08-21.3199,17.16c-11.37-21.01-19.8-43.52-25.88-66.59c-14.74-54.79-17.23-111.88-29.36-167.19
		c-7.73-34.59-20.45-69.16-44.03-96.23c-11.38-13.44-25.22-24.66-40.16-33.89c6.56,7.11,13.67,13.77,19.83,21.28
		c13.78,16.4,25.17,34.85,33.02,54.8c12.28,30.39,15.98,63.38,17.02,95.9c1.35,35.35-0.27,70.84,3.22,106.1
		c2.28,24.06,6.93,47.98,15.03,70.8c3.7599,11.22,9.04,21.86,13.93,32.6c-42.95-23.6-84.91-49.97-120.57-83.86
		c-26.91-25.64-50.11-56.19-62.5-91.53c-12.33-33.8-13.68-70.55-10.04-106.03c3.15-33.17,9.86-65.9,13.03-99.07
		c1.87-19.58,2.29-39.37,0.21-58.95c-2.07-17.23-6.18-34.27-12.89-50.31C393.21,466.7,379.69,446.72,363.87,429.02 M515.13,487.11
		c2.95,3.42,7.27,5.16,10.46,8.31c17.2,14.12,34.64,27.99,51.44,42.6c4.09,3.21,7.3799,7.31,11.56,10.43
		c2.55,1.85,4.34,4.63,7.0699,6.23c14.8701,13.72,29,28.33,41.8701,43.95c0.3,0.19,0.91,0.56,1.22,0.75
		c6.48,8.8,13.36,17.35,19.27,26.58c4.99,7.18,8.95,15.07,13.54,22.44c2.43,5.84,5.61,11.35,7.95,17.24
		c3.09,6.95,5.38,14.21,8.05,21.32c6.92,22.4,10.65,45.73,11.61,69.14c0.88,15.71,0.04,31.46-1.12,47.13
		c-1.21,14.83-3.6,29.57-5.76,44.25c-4.53,23.37-9.61,46.67-16.24,69.55c2.05-1.32,2.82-3.79,4.18-5.7
		c11.78-18.62,22.42-38.01,31.22-58.22c7.07-15.83,12.7-32.38,17.01-49.2c5.77-23.47,8.7-47.87,6.75-72.02
		c-0.92-15.68-3.66-31.4-8.72-46.28c0.25-1.15-0.57-2.3-0.77-3.39c-4.91-14.48-11.06-28.64-19.08-41.67
		c-0.16-0.39-0.47-1.17-0.63-1.56c-8.4-14.05-18.11-27.34-29.06-39.5c-2.55-3.84-6.17-6.86-9.22-10.29
		c-14.63-15.32-30.84-29.08-47.87-41.64c-5.29-4.65-11.28-8.43-17.22-12.18C575.09,516.57,545.64,500.57,515.13,487.11 M425.39,519
		c3.46,14.29,6.15,28.81,7.26,43.49c1.01,12.45,1.27,24.95,0.75,37.43c-0.88,10.6-1.39,21.37-2.99,31.95
		c-2.63,18.46-5.82,36.83-8.94,55.2c-4.33,25.71-7.13,52.06-3.5,78.05c2.79,21.53,10.3,42.35,20.98,61.21
		c2.1,4.89,5.39,9.15,8.1,13.71c3.12,4.22,5.66,8.9,9.28,12.73l-0.39,0.33c6.95,8.98,14.3,17.65,21.96,26.04
		c9.16,10.76,19.83,20.1,29.91,29.97c12.07,9.58,22.67,20.92,35.56,29.46c4.98,3.58,9.23,8.27,14.61,11.26
		c-0.75-1.5-2.14-2.49-3.36-3.55c-4.28-3.69-7.92-8-11.41-12.42c-3.58-3.5-7.08-7.1-9.89-11.27c-7.47-8.57-14.39-17.61-21.12-26.78
		c-5.95-7.62-10.55-16.21-16.23-23.99c-4.72-8.57-9.73-16.99-13.96-25.83c-1.93-3.34-2.85-7.25-5.28-10.28
		c-1.6-5.31-4.11-10.41-6.23-15.56c-7.29-19.83-12.84-40.32-16.06-61.21c-0.42-2.5-0.59-5.06-1.53-7.42
		c-0.91-10.52-2.36-21-2.88-31.55c-0.84-10.37-0.81-20.78-1.41-31.16c-0.46-22.33,0.15-44.71-1.06-67.01
		c-0.24-8.67-0.82-17.38-1.89-25.98c-0.98-12.04-2.97-24.03-5.77-35.79l-0.22-0.11C436.55,545.83,431.97,531.88,425.39,519z"/>
	<path fill="#989933" stroke="#989933" stroke-width="0.0938" d="M1587.8101,484.75c42.2699-6.56,85.0199-10.14,127.7599-10.79
		c4.29,1.63,8.92,0.92,13.4,1.01c6,0.04,12.01-0.02,18.02,0c4.51-0.02,9.15,0.48,13.52-0.99c38.54,0.55,77.0699,3.68,115.41,7.67
		c-0.0601,0.24-0.17,0.73-0.2301,0.97c-35.72,15.94-69.3999,37.2-97.23,64.87c-26.2899,25.87-46.6,57.19-62.85,90.15
		c-19.52,38.98-34.54,80.12-55.49,118.41c-17.38,32.13-39.36,62.01-66.59,86.49c-28.9,26.33-62.88,46.6-98.54,62.36
		c-65.9399,29-136.95,44.16-207.88,54.9c14.78-10.96,29.3101-22.32,42.7001-34.97c28.5-26.59,52.5599-57.55,74.0299-89.99
		c21.99-33.09,41.78-67.64,65.0901-99.86c21.6799-30.15,47.11-57.93,77.23-79.82c27.1-20.16,57.63-35.31,89.22-47
		c-39.41,6.94-76.97,23.4901-109.38,46.89c-32.96,23.52-60.76,53.35-86.8,84.15c-24.0599,28.65-46.7799,58.41-71.01,86.93
		c-26,30.83-53.96,60.23-85.6,85.36c-7.9399,6.05-15.6899,12.47-24.26,17.58c-20.12-39.74-33.72-83.38-35.24-128.09
		c-0.83-8.99,0.0601-17.99,0.4301-26.97c2.98-44.08,19.01-86.95,44.59-122.89c21.84-31.08,50.0701-57.32,81.3201-78.76
		c34.62-23.96,72.95-42.18,112.5299-56.32C1502.77,501.57,1545.0601,491.51,1587.8101,484.75 M1644.85,496.53
		c-10.4399,1.77-21.0399,2.69-31.4199,4.67c-13.02,1.22-25.91,3.74-38.8601,5.59c-32.22,5.16-64.23,11.96-95.6499,20.87
		c-11.9601,3.36-23.8,7.21-35.5,11.41c-21.63,7.46-42.55,16.92-62.7301,27.7c-18.61,10.22-36.74,21.79-52.6599,35.84
		c-7.02,5.03-13.02,11.36-19.13,17.43c-5.88,5.63-11,11.98-16.2101,18.21c-9.0399,11.36-17.09,23.54-23.7799,36.43
		c-2.23,3.42-3.7001,7.23-5.4,10.92c-2.75,6.25-5.92,12.45-7.4401,19.14c-1.88,2.62-2.3099,5.96-3.4199,8.94
		c-4.05,13.47-7.3301,27.23-8.91,41.23c-1.1,2.14-0.83,4.66-1.1899,6.9901c-2.42,20.03-2.04,40.27-0.87,60.37
		c0.72,3.16-0.12,6.7,1.3899,9.64c1.05-0.66,1.1801-2,1.65-3.04c6.53-18.74,14.04-37.14,21.26-55.61
		c6.25-14.8,13.16-29.35,19.74-43.96c5.0601-9.6,10.25-19.16,15.3-28.76c7.36-12.43,14.85-24.81,23.2-36.62
		c6.5-9.33,13.72-18.14,20.97-26.89c5.5901-6.09,11.27-12.1,16.9901-18.05c11.5599-10.8,23.7-21.02,36.88-29.81
		c4.99-3.71,10.74-6.41,15.5399-10.34c1.11-0.02,2-0.87,2.99-1.35c17.04-9.9,35.12-17.84,53.39-25.15
		c9.27-3.54,18.63-6.85,28.03-10.05c28.35-9.53,57.22-17.39,85.97-25.63c13.4-3.86,26.8101-7.64,40.23-11.45l0.2101-0.31
		c13.63-3.4,26.8999-8.12,40.5199-11.55C1658.84,493.92,1651.9,495.66,1644.85,496.53 M1807.66,500.62
		c-20.6801,11.46-39.25,26.42-56.04,43c-3.64,3.87-7.92,7.29-10.89,11.71c-1.0599,0.24-1.62,1.37-2.37,2.03
		c-12.49,13.66-24.51,27.79-35.54,42.63c-18.0399,22.91-34.86,46.78-51.6599,70.6c-5.5801,7.86-11.2201,15.69-16.76,23.58l0.02,0.32
		c-19.0901,25.97-37.9301,52.17-58.27,77.2c-14.66,18.24-30.25,35.72-46.36,52.67c-15.67,15.98-32.0901,31.25-49.4601,45.37
		c-38.5599,31.08-82.1499,56.65-129.3199,71.97c0.26,0.14,0.78,0.41,1.04,0.55c20.6699-5.74,41.35-11.48,61.59-18.63
		c38.6799-13.47,76.23-30.75,110.35-53.54c22.8-15.37,44.1901-33.07,62.63-53.5l0.21-0.04c12.7001-13.58,24.14-28.3,34.64-43.62
		c18.26-26.63,33.66-55.13,48.03-84c4.1-6.8,7.37-14.21,11.24-21.2c7.63-14.8799,15.58-29.6,23.86-44.1299
		c3.77-6.8,8.2001-13.23,11.89-20.07l0.34-0.02c10.53-16.59,22-32.59,34.74-47.56c18.79-21.99,40.2201-41.7,63.4901-58.85
		C1812.35,497.72,1810.02,499.25,1807.66,500.62z"/>
	<path fill="#81842F" stroke="#81842F" stroke-width="0.0938" d="M1715.5699,473.96c14.9701-0.3,29.9601-0.29,44.9401,0.02
		c-4.37,1.47-9.01,0.97-13.52,0.99c-6.01-0.02-12.02,0.04-18.02,0C1724.49,474.88,1719.86,475.59,1715.5699,473.96z"/>
	<linearGradient id="SVGID_1_" gradientUnits="userSpaceOnUse" x1="859.4868" y1="417.54" x2="1038.3699" y2="417.54">
		<stop  offset="0" style="stop-color:#A5A64A"/>
		<stop  offset="0.1555" style="stop-color:#A8A950"/>
		<stop  offset="0.3576" style="stop-color:#B1B160"/>
		<stop  offset="0.5855" style="stop-color:#BFBE7B"/>
		<stop  offset="0.8304" style="stop-color:#D3D1A0"/>
		<stop  offset="1" style="stop-color:#E3E0BE"/>
	</linearGradient>
	<linearGradient id="SVGID_2_" gradientUnits="userSpaceOnUse" x1="859.4399" y1="417.5431" x2="1038.4167" y2="417.5431">
		<stop  offset="0" style="stop-color:#A5A64A"/>
		<stop  offset="1" style="stop-color:#E3E0BE"/>
	</linearGradient>
	<path fill="url(#SVGID_1_)" stroke="url(#SVGID_2_)" stroke-width="0.0938" d="M1037.77,107.11
		c-3.24,30.7999-9.92,61.2899-20.45,90.4301l-0.1901,0.0499c-5.3099,14.64-11.6,28.91-18.49,42.88
		c-6.66,12.9399-13.62,25.74-21.1,38.24c-6.45,10.76-13.15,21.38-19.8201,32c-8.3799,12.8501-16.6499,25.76-24.78,38.76
		c-5.25,8.3-10.5499,16.64-15.3199,25.2c-5.4301,8.78-10.3199,17.9001-15.09,27.0601c-4.3401,8.38-8.6101,16.8401-12.16,25.5901
		l-0.1801-0.1001c-6.9099,15.87-12.8899,32.16-17.53,48.8401C866.37,497.48,862.8201,519.64,860.88,541.85
		c-1.4301,15.12-1.7999,30.4401-0.92,45.6c-0.73,2.68-0.09,5.54,0.28,8.25c-0.52,7.78,0.9,15.53,1.38,23.29
		c1.6901,16.39,4.01,32.74,7.26,48.9c0.48,6.59,2.4,12.98,3.67,19.45c2.73,13.7,6.8099,27.0699,10.1,40.6299
		c0.1801-3.03-0.5599-6-0.9401-8.98c-2.76-17.86-4.3699-35.89-4.6799-53.96c-0.0901-3.17,0.24-6.39-0.49-9.51
		c0.71-13.82,0.84-27.78,2.51-41.57c-0.01-1.48,0.6699-3.12-0.05-4.49c1.9099-11.45,3.22-23.01,5.3-34.44
		c1.73-9.72,3.95-19.3401,6.08-28.97c4.0299-17.25,9.12-34.23,14.5299-51.0901c0.9102-3.1399,2.4801-6.13,2.9302-9.37
		C913.89,468.54,920.4,451.61,926.89,434.73c3.97-8.88,7.5499-17.95,11.39-26.9c3.34-7.61,6.7-15.22,10.04-22.83
		c3.8499-8.77,7.99-17.4299,11.83-26.21c5.2599-11.5,10.65-22.9501,15.8199-34.49c6.0601-13.4001,12.3-26.7201,18.0701-40.24
		c5.09-11.8101,10.23-23.6001,14.8-35.6101c5.97-15.11,11.5-30.3999,16.1799-45.96C1034.17,171.6599,1040.38,139.38,1037.77,107.11z
		"/>
	
		<linearGradient id="SVGID_3_" gradientUnits="userSpaceOnUse" x1="1201.8248" y1="373.8141" x2="1049.1062" y2="771.8572" gradientTransform="matrix(1.0252 -0.0598 0.0582 0.9983 -57.7552 66.5055)">
		<stop  offset="0" style="stop-color:#989933"/>
		<stop  offset="0.1913" style="stop-color:#939431"/>
		<stop  offset="0.4111" style="stop-color:#86862C"/>
		<stop  offset="0.5408" style="stop-color:#81812A"/>
		<stop  offset="0.6988" style="stop-color:#737226"/>
		<stop  offset="0.8706" style="stop-color:#5B591E"/>
		<stop  offset="1" style="stop-color:#444216"/>
	</linearGradient>
	<path fill="url(#SVGID_3_)" d="M1187.4768,449.498c0.0565-0.4341,0.1702-1.2916,0.2273-1.7148
		c-3.4833-20.8304-8.7854-41.3715-15.0525-61.6194c-0.853-6.0029-3.5741-11.5629-5.3378-17.3405
		c-1.3131-4.2743-3.1672-8.3988-5.6571-12.1953c-0.0637,2.5132-0.0914,5.0456-0.4363,7.5536
		c-0.413-1.6667-0.802-3.3242-1.0983-4.9977c-6.5078-1.3221-13.9277,2.5679-19.7462-0.9698
		c0.5482,4.5882,1.8844,9.0552,3.1383,13.5161c1.8271,5.063,1.657,10.5654,3.8079,15.5664
		c1.3722,2.8817-0.1266,6.6524,2.3511,9.0388c5.3521,23.8015,7.9146,48.0889,8.7947,72.3989
		c-0.2424,13.2825-0.5394,26.633-2.7876,39.8063c-0.1763,1.3889-0.5928,2.8672,0.0013,4.2325
		c-2.2828,8.7706-3.3837,17.7629-5.8672,26.5021c-2.4277,10.6961-6.3027,21.035-9.668,31.495
		c-7.964,21.4225-18.1454,42.113-29.2793,62.3096c-7.2554,12.7224-15.1478,25.148-22.9581,37.5797
		c-17.1621,25.4916-35.593,50.2819-55.0599,74.3464c-4.8293,6.4097-10.5889,12.3029-15.105,18.8666
		c49.1606-23.5455,94.6201-56.0189,125.9969-98.6021l0.3171,0.0246c9.1642-12.6722,17.4764-25.9193,24.0386-39.9044
		c9.407-19.3313,16.2784-39.8394,19.7946-60.744l0.3605,0.3666c3.115-18.1566,5.1074-36.5168,4.6681-54.8754
		c0.7866-4.3538,0.0969-8.7614,0.0408-13.1308C1192.1144,481.0954,1190.8895,465.1091,1187.4768,449.498z"/>
	<linearGradient id="SVGID_4_" gradientUnits="userSpaceOnUse" x1="1515.0063" y1="501.2521" x2="1303.673" y2="867.9188">
		<stop  offset="0" style="stop-color:#E3E0BE"/>
		<stop  offset="0.1696" style="stop-color:#D3D1A0"/>
		<stop  offset="0.4145" style="stop-color:#BFBE7B"/>
		<stop  offset="0.6424" style="stop-color:#B1B160"/>
		<stop  offset="0.8445" style="stop-color:#A8A950"/>
		<stop  offset="1" style="stop-color:#A5A64A"/>
	</linearGradient>
	<linearGradient id="SVGID_5_" gradientUnits="userSpaceOnUse" x1="1240.7156" y1="662.6351" x2="1665.9514" y2="662.6351">
		<stop  offset="0" style="stop-color:#A5A64A"/>
		<stop  offset="1" style="stop-color:#E3E0BE"/>
	</linearGradient>
	<path fill="url(#SVGID_4_)" stroke="url(#SVGID_5_)" stroke-width="0.0938" d="M1644.85,496.53
		c-10.4399,1.77-21.0399,2.6899-31.4199,4.6699c-13.02,1.22-25.91,3.74-38.8601,5.5901c-32.22,5.1599-64.23,11.96-95.6499,20.8699
		c-11.9601,3.3601-23.8,7.2101-35.5,11.4102c-21.63,7.46-42.55,16.9199-62.7301,27.7c-18.61,10.22-36.74,21.79-52.6599,35.84
		c-7.02,5.03-13.02,11.36-19.13,17.43c-5.88,5.63-11,11.98-16.2101,18.21c-9.0399,11.36-17.09,23.54-23.7799,36.43
		c-2.23,3.42-3.7001,7.23-5.4,10.92c-2.75,6.25-5.92,12.45-7.4401,19.14c-1.88,2.62-2.3099,5.96-3.4199,8.94
		c-4.05,13.47-7.3301,27.23-8.91,41.23c-1.1,2.14-0.83,4.66-1.1899,6.9901c-2.42,20.03-2.04,40.27-0.87,60.37
		c0.72,3.16-0.12,6.7,1.3899,9.64c1.05-0.66,1.1801-2,1.65-3.04c6.53-18.74,14.04-37.14,21.26-55.61
		c6.25-14.8,13.16-29.35,19.74-43.96c5.0601-9.6,10.25-19.16,15.3-28.76c7.36-12.43,14.85-24.81,23.2-36.62
		c6.5-9.33,13.72-18.14,20.97-26.89c5.5901-6.09,11.27-12.1,16.9901-18.05c11.5599-10.8,23.7-21.02,36.88-29.81
		c4.99-3.71,10.74-6.41,15.5399-10.3399c1.11-0.02,2-0.8701,2.99-1.3501c17.04-9.8999,35.12-17.84,53.39-25.1499
		c9.27-3.54,18.63-6.8501,28.03-10.05c28.35-9.53,57.22-17.39,85.97-25.63c13.4-3.86,26.8101-7.64,40.23-11.4501l0.2101-0.3099
		c13.63-3.4,26.8999-8.12,40.5199-11.55C1658.84,493.9199,1651.9,495.6599,1644.85,496.53z"/>
	<path fill="#870607" stroke="#870607" stroke-width="0.0938" d="M907.51,759.47c0.54,22.4901-0.06,45.03,0.09,67.54
		c0.02,30.87,0.44,61.75,2.21,92.57c-2.69-4.03-2.17-9.02-2.17-13.6c0.1-4.36-1.02-8.62-1-12.96c0.03-9,0.36-18.03-0.59-26.99
		c-0.19-25.32-0.29-50.66-0.11-75.98c0.16-3.39,0.14-6.79-0.4-10.13c-0.3,6.76-1.94,13.34-2.57,20.07
		c-2.35,13.55-3.27,27.29-5.09,40.92c-0.62,4-0.65,8.05-0.69,12.1c-0.9,13.3-2.89,26.65-1.72,40c0.91-4.44-1.1899-9.86,2.1801-13.48
		c-0.78,12.96-1.4,25.92-1.59,38.9c-1.88,62.92,6.02,126.29,25.35,186.28c11.09,35.62,25.73,70.04,41.84,103.65
		c2.58,5.41,5.22,10.8,7.98,16.13c-2.92-0.85-5.85-1.64-8.77-2.46c-11.04-3.35-21.95-7.0801-32.84-10.9
		c-29.27-10.73-58-23.04-85.74-37.28c0.35-0.25,1.06-0.75,1.41-1c38.46,19.0601,78.7401,34.35,119.87,46.5601
		c-18.84-35.89-34.5-73.48-46.1-112.3401c-12.24-41.0399-20.21-83.34-23.82-126.0099C888.61,907.07,894.84,832.47,907.51,759.47z"/>
	<path fill="#960202" stroke="#960202" stroke-width="0.0938" d="M905.54,779.92c0.54,3.34,0.56,6.74,0.4,10.13
		c-0.18,25.32-0.08,50.66,0.11,75.98c0.95,8.96,0.62,17.99,0.59,26.99c-0.02,4.34,1.1,8.6,1,12.96c0,4.58-0.52,9.57,2.17,13.6
		c2.98,45.43,9.01,90.9,21.63,134.7499c1.39,5.91,3.84,11.6001,4.98,17.54c-0.51,1.17-1.02,2.34-1.55,3.51
		c-7.37-19.42-12.74-39.51-17.48-59.71c-2.02-8.82-3.25-17.78-5.08-26.63c-1.27-10.35-3.1-20.63-4.03-31.02
		c-0.6-13.71-2.54-27.31-2.7-41.03c-1.33-5.65,0.66-11.51-1.11-17.06c-0.7599,7.63,0.02,15.32-0.7599,22.95
		c-0.61,5.07,0.36,10.29-1.23,15.24c-0.91-6.5,0.32-13.39-2.38-19.53c-0.13-2.02-0.13-4.05-0.13-6.05c0.08-1.78,0.01-3.55-0.09-5.3
		c-0.53-21.83,0.03-43.69,0.77-65.5c-1.89,12.5-1.95,25.2-3,37.79c-3.37,3.62-1.27,9.04-2.1801,13.48c-1.17-13.35,0.82-26.7,1.72-40
		c0.04-4.05,0.07-8.1,0.69-12.1c1.82-13.6299,2.74-27.37,5.09-40.92C903.6,793.26,905.24,786.68,905.54,779.92z"/>
	<linearGradient id="SVGID_6_" gradientUnits="userSpaceOnUse" x1="576.4669" y1="465.952" x2="734.9669" y2="893.452">
		<stop  offset="0" style="stop-color:#86862C"/>
		<stop  offset="0.2203" style="stop-color:#81812A"/>
		<stop  offset="0.4885" style="stop-color:#737226"/>
		<stop  offset="0.7803" style="stop-color:#5B591E"/>
		<stop  offset="1" style="stop-color:#444216"/>
	</linearGradient>
	<path fill="url(#SVGID_6_)" stroke="#444216" stroke-width="0.0938" d="M735.21,731.89c-0.9199-15.68-3.6599-31.4-8.72-46.28
		c0.25-1.15-0.5701-2.3-0.77-3.39c-4.9099-14.48-11.0601-28.64-19.08-41.67c-0.16-0.39-0.4701-1.17-0.63-1.56
		c-8.4-14.05-18.11-27.34-29.06-39.5c-2.55-3.84-6.17-6.86-9.22-10.29c-14.63-15.32-30.84-29.08-47.87-41.64
		c-5.29-4.6501-11.28-8.4301-17.22-12.1801c-27.55-18.8099-57-34.8099-87.51-48.27c2.95,3.42,7.27,5.16,10.46,8.3099
		c17.2,14.1201,34.64,27.99,51.44,42.6001c4.09,3.21,7.3799,7.3101,11.56,10.4299c2.55,1.8501,4.34,4.6301,7.0699,6.23
		C610.53,568.4,624.66,583.01,637.53,598.63c0.3,0.19,0.91,0.56,1.22,0.75c6.48,8.8,13.36,17.35,19.27,26.58
		c4.99,7.18,8.95,15.07,13.54,22.44c2.43,5.84,5.61,11.35,7.95,17.24c3.09,6.95,5.38,14.21,8.05,21.32
		c6.92,22.4,10.65,45.73,11.61,69.14c0.88,15.71,0.04,31.46-1.12,47.13c-1.21,14.83-3.6,29.57-5.76,44.25
		c-4.53,23.37-9.61,46.67-16.24,69.55c2.05-1.32,2.82-3.79,4.18-5.7c11.78-18.62,22.42-38.01,31.22-58.22
		c7.0701-15.83,12.7001-32.38,17.01-49.2C734.23,780.44,737.1599,756.04,735.21,731.89z"/>
	<linearGradient id="SVGID_7_" gradientUnits="userSpaceOnUse" x1="1836.5728" y1="519.4463" x2="1377.2394" y2="961.4463">
		<stop  offset="0" style="stop-color:#797827"/>
		<stop  offset="0.1775" style="stop-color:#6C6B23"/>
		<stop  offset="0.5036" style="stop-color:#4B4A18"/>
		<stop  offset="0.9391" style="stop-color:#151407"/>
		<stop  offset="1" style="stop-color:#0D0C04"/>
	</linearGradient>
	<linearGradient id="SVGID_8_" gradientUnits="userSpaceOnUse" x1="1350.8912" y1="719.6722" x2="1815.0879" y2="719.6722">
		<stop  offset="0" style="stop-color:#797827"/>
		<stop  offset="0.1633" style="stop-color:#737225"/>
		<stop  offset="0.3733" style="stop-color:#636220"/>
		<stop  offset="0.6089" style="stop-color:#494817"/>
		<stop  offset="0.8613" style="stop-color:#24230C"/>
		<stop  offset="1" style="stop-color:#0D0C04"/>
	</linearGradient>
	<path fill="url(#SVGID_7_)" stroke="url(#SVGID_8_)" stroke-width="0.0938" d="M1807.6602,500.62
		c-20.6802,11.4601-39.25,26.42-56.04,43c-3.6401,3.87-7.9202,7.2899-10.8901,11.7101c-1.0601,0.24-1.6201,1.3699-2.3701,2.0299
		c-12.4899,13.66-24.5099,27.79-35.5399,42.63c-18.0399,22.91-34.86,46.78-51.6599,70.6c-5.5801,7.86-11.2201,15.69-16.76,23.58
		l0.02,0.32c-19.0901,25.97-37.9301,52.17-58.27,77.2c-14.66,18.24-30.25,35.72-46.36,52.67
		c-15.67,15.98-32.0901,31.25-49.4601,45.37c-38.5599,31.08-82.1499,56.65-129.3199,71.97c0.26,0.14,0.78,0.41,1.04,0.55
		c20.6699-5.74,41.35-11.48,61.59-18.63c38.6799-13.47,76.23-30.75,110.35-53.54c22.8-15.37,44.1901-33.07,62.63-53.5l0.21-0.04
		c12.7001-13.58,24.14-28.3,34.64-43.62c18.26-26.63,33.66-55.13,48.03-84c4.1-6.8,7.37-14.21,11.24-21.2
		c7.63-14.8799,15.58-29.6,23.86-44.1299c3.77-6.8,8.2001-13.23,11.89-20.07l0.34-0.02c10.53-16.59,22.0001-32.5901,34.7399-47.5601
		c18.79-21.99,40.2202-41.7,63.4902-58.85C1812.3501,497.72,1810.02,499.25,1807.6602,500.62z"/>
	<linearGradient id="SVGID_9_" gradientUnits="userSpaceOnUse" x1="388.8135" y1="530.4559" x2="517.8135" y2="960.4559">
		<stop  offset="0" style="stop-color:#E3E0BE"/>
		<stop  offset="0.1696" style="stop-color:#D3D1A0"/>
		<stop  offset="0.4145" style="stop-color:#BFBE7B"/>
		<stop  offset="0.6424" style="stop-color:#B1B160"/>
		<stop  offset="0.8445" style="stop-color:#A8A950"/>
		<stop  offset="1" style="stop-color:#A5A64A"/>
	</linearGradient>
	<linearGradient id="SVGID_10_" gradientUnits="userSpaceOnUse" x1="416.2531" y1="734.4617" x2="558.0897" y2="734.4617">
		<stop  offset="0" style="stop-color:#A5A64A"/>
		<stop  offset="1" style="stop-color:#E3E0BE"/>
	</linearGradient>
	<path fill="url(#SVGID_9_)" stroke="url(#SVGID_10_)" stroke-width="0.0938" d="M554.62,946.28c-4.28-3.69-7.92-8-11.41-12.42
		c-3.58-3.5-7.08-7.1-9.89-11.27c-7.47-8.57-14.39-17.61-21.12-26.78c-5.95-7.62-10.55-16.21-16.23-23.99
		c-4.72-8.57-9.73-16.99-13.96-25.83c-1.93-3.34-2.85-7.25-5.28-10.28c-1.6-5.31-4.11-10.41-6.23-15.56
		c-7.29-19.83-12.84-40.32-16.06-61.21c-0.42-2.5-0.59-5.06-1.53-7.42c-0.91-10.52-2.36-21-2.88-31.55
		c-0.84-10.37-0.81-20.78-1.41-31.16c-0.46-22.33,0.15-44.71-1.06-67.01c-0.24-8.67-0.82-17.38-1.89-25.98
		c-0.98-12.04-2.97-24.03-5.77-35.79l-0.22-0.1101c-3.13-14.0898-7.71-28.0399-14.29-40.9199c3.46,14.29,6.15,28.8101,7.26,43.49
		c1.01,12.45,1.27,24.95,0.75,37.43c-0.88,10.6-1.39,21.37-2.99,31.95c-2.63,18.46-5.82,36.83-8.94,55.2
		c-4.33,25.71-7.13,52.06-3.5,78.05c2.79,21.53,10.3,42.35,20.98,61.21c2.1,4.89,5.39,9.15,8.1,13.71
		c3.1201,4.22,5.66,8.9,9.28,12.73l-0.39,0.33c6.95,8.98,14.3,17.65,21.96,26.04c9.16,10.76,19.83,20.1,29.91,29.97
		c12.07,9.58,22.67,20.92,35.56,29.46c4.98,3.58,9.23,8.27,14.61,11.26C557.23,948.33,555.84,947.34,554.62,946.28z"/>
	<path fill="#7B0001" stroke="#7B0001" stroke-width="0.0938" d="M904.47,899.93c1.77,5.55-0.22,11.41,1.11,17.06
		c0.16,13.72,2.1,27.32,2.7,41.03c0.93,10.39,2.7599,20.67,4.03,31.02c-1.56-1.63-2.78-3.52-3.23-5.74
		c-0.58-2.51-2.91-3.89-4.76-5.39c-1.71-13.96-2.65-28-3.45-42.04c-0.4-5.76-0.57-11.52-0.77-17.28c2.7,6.14,1.47,13.03,2.38,19.53
		c1.59-4.95,0.62-10.17,1.23-15.24C904.49,915.25,903.71,907.56,904.47,899.93z"/>
	<path fill="#6A0000" stroke="#6A0000" stroke-width="0.0938" d="M1259.74,957.74c7.12-6.07,14.2-12.2,21.46-18.12
		c-5.3999,6.76-11.75,12.76-17.25,19.46C1262.53,958.63,1261.13,958.15,1259.74,957.74z"/>
	<path fill="#8B0907" stroke="#8B0907" stroke-width="0.0938" d="M600.9,949.37c4.24,6.12,8.09,12.53,12.44,18.59
		c-1.05-0.07-2.08-0.19-3.1-0.35c-0.46,0.37-1.39,1.11-1.85,1.49C605.89,962.52,602.76,956.13,600.9,949.37z"/>
	<path fill="#920303" stroke="#920303" stroke-width="0.0938" d="M1209.28,1006.49c15.6599-17.39,32.8099-33.4,50.46-48.75
		c1.39,0.41,2.79,0.89,4.21,1.34c-9.23,10.85-18.1399,21.99-26.35,33.64c-0.9-0.56-1.77-1.1299-2.61-1.71
		c-1.24,0.89-2.6,1.62-3.71,2.67c-1.7101-0.82-3.54-1.28-5.28-1.92c-2.61,4.09-6.98,6.46-10.11,10.09
		C1213.8199,1003.54,1212.28,1006.58,1209.28,1006.49z"/>
	<path fill="#970202" stroke="#970202" stroke-width="0.0938" d="M610.24,967.61c1.02,0.16,2.05,0.28,3.1,0.35
		c6.19,9.37,12.97,18.37,19.5699,27.44c0.25,1.4-0.03,3.06,0.86,4.3199c28.34,45.11,64.28,85.4,105.54,119.0801
		c18.55,15.24,38.27,29.01,58.66,41.6799c10.27,6.3301,20.77,12.3,31.36,18.1c27.5,14.79,56.02,27.63,85.14,38.91
		c-4.81,2.66-9.02-2.45-13.55-3.48c-3.3,2.61-6.28,5.63-8.94,8.89c2.22,1.09,4.63,1.64,7.02,2.24c1.64,0.39,2.36,2.3199,4,2.77
		c7.84,2.26,14.52,7.4099,22.44,9.51c0.1,0.58,0.28,1.75,0.38,2.33c-1.67-0.7-3.33-1.35-4.96-2.08
		c-18.25-8.4-36.57-16.65-54.43-25.87c-15.8-8.4401-31.6-16.92-46.95-26.1801c-15.52-9.78-31.05-19.5599-46.05-30.12
		c-13.58-10.36-27.47-20.37-40.35-31.63c-4.9-4.2-9.75-8.45-14.68-12.6c-5.36-6.52-12.38-11.37-18.04-17.6
		c-8.28-7.7301-15.55-16.42-23.38-24.6001c-5.61-5.7899-10.32-12.36-15.9-18.1599c-2.67-2.9601-4.32-6.9401-7.98-8.86
		c0.2,1.5,0.61,3.01,1.73,4.12c3.18,3.61,5.48,7.85,8.29,11.74c6.65,9.0399,13.02,18.2799,20,27.08c8.25,9.75,15.7,20.16,24.54,29.4
		c16.64,18.08,33.72,35.9399,53.3,50.9c13.45,11.1499,27.61,21.48,42.43,30.72c18.23,11.54,37.04,22.2,56.52,31.49
		c19.04,9.14,38.3701,17.77,58.21,25.04c5.08,2.02,10.17,3.99,15.3,5.9099c-2.92,0.9601-5.67-1.36-8.52-0.49
		c3.85,3.0901,9.69,2.73,12.7,6.9301c-39.6-14.77-78.15-32.54-114.7599-53.7001c-32.46-18.87-63.27-40.6899-91.1801-65.85
		c-29.59-26.65-55.86-57.01-77.78-90.26c-17.97-27.0599-33.02-56.0099-45.49-85.98C608.85,968.72,609.78,967.98,610.24,967.61z"/>
	<path fill="#680100" stroke="#680100" stroke-width="0.0938" d="M904.32,977.91c1.85,1.5,4.18,2.88,4.76,5.39
		c0.45,2.22,1.67,4.11,3.23,5.74c1.83,8.85,3.06,17.81,5.08,26.63c4.74,20.2,10.11,40.29,17.48,59.71c0.8,2.5,1.5,5.04,2.36,7.54
		c-0.55,0.1899-1.64,0.5699-2.19,0.76c-0.84-0.6101-1.67-1.1901-2.5099-1.7401c0.18,1.9,0.08,3.8,0.2,5.7201
		c-0.87,0.3199-1.7,0.71-2.49,1.1599c-1.28-4.48,2.67-8.59,0.49-12.8899c-0.48,1.58-0.86,3.1799-1.27,4.7899
		c-0.55,0.05-1.65,0.14-2.2,0.1901c-0.6-2.89,0.7-5.53,1.86-8.0701c-1.76-1.1-4.61-1.4199-4.91-3.89
		c-0.77-5.1599-3.03-9.8999-4.18-14.96c-0.78-2.87-1.1801-6.1799-3.83-7.99C910.82,1023.58,906.89,1000.82,904.32,977.91z"/>
	<path fill="#6D0000" stroke="#6D0000" stroke-width="0.0938" d="M1231.28,993.68c1.11-1.05,2.47-1.78,3.71-2.67
		c0.84,0.58,1.71,1.15,2.61,1.71c-7.1899,10.04-13.8199,20.47-20.0699,31.1201c-2.5901,0-5.23,0.5099-7.48-1.15
		C1216.61,1012.64,1224.03,1003.22,1231.28,993.68z"/>
	<path fill="#990100" stroke="#990100" stroke-width="0.0938" d="M1215.89,1001.85c3.13-3.63,7.5-6,10.11-10.09
		c1.74,0.64,3.5699,1.1,5.28,1.92c-7.25,9.54-14.67,18.96-21.23,29.01c-15.7101,23.02-29.8301,47.22-40.51,72.9999
		c-12.87,29.8701-22.5601,61.2201-27.2001,93.4501c-1.39,8.01-2.71,16.08-2.86,24.24c-1.91,14.14-1.9299,28.46-1.87,42.72
		c3.61,2.35,8.27,2.62,11.5701,5.64c1.13,1.3,1.99,2.8,3.0099,4.22c-0.2799,0.4401-0.8199,1.3201-1.09,1.76
		c-10.5699-1.64-21.0599-3.6899-31.5699-5.65c-30.26-6.0199-60.1801-13.59-90.15-20.8999c-1.88-0.5-3.73-0.99-5.59-1.4501
		l0.47-1.0499c0.14-0.38,0.4299-1.13,0.5699-1.5c-5.36-7.49-11.0499-14.74-16.3699-22.25c0.28-0.36,0.85-1.0901,1.14-1.4501
		c1.39,1.53,3.06,2.75,5.02,3.49c5.28,6.25,10.3,12.76,15.79,18.8501c6.3199,2.1699,13.1,2.9099,19.62,4.47
		c21.5599,4.4299,43.26,8.1599,65,11.59c2.12-46.1,8.62-92.5,25.12-135.83c15.2-40.76,39.64-77.64,69.03-109.54l0.1-0.01
		C1212.28,1006.58,1213.8199,1003.54,1215.89,1001.85z"/>
	<path fill="#870A0A" stroke="#870A0A" stroke-width="0.0938" d="M632.91,995.4c32.7,43.01,70.5,82.28,113.33,115.2899
		c-0.3,0.53-0.91,1.6001-1.22,2.13l-0.5-0.38c-31.6-23.6499-60.81-50.62-86.22-80.85c-8.66-10.24-16.52-21.1299-24.53-31.87
		C632.88,998.46,633.16,996.8,632.91,995.4z"/>
	<path fill="#5C0100" stroke="#5C0100" stroke-width="0.0938" d="M1169.54,1095.6899c10.6799-25.7799,24.7999-49.98,40.51-72.9999
		c2.25,1.66,4.8899,1.15,7.48,1.15c-10.9601,18.89-20.28,38.71-28.11,59.09c-0.15-0.4701-0.4501-1.4-0.6001-1.87
		c-1.45,2.1399-2.86,4.5-5.4099,5.46c0.72,0.23,1.47,0.48,2.22,0.75c-0.34,2.21-1.16,4.36-3.14,5.6c-0.85-4.1-4.34-6.85-5.41-10.85
		c0.16,2.61,0.14,5.34,1.3501,7.76c0.74,2.11,2.7999,4.5699,0.6699,6.59c-3.37-1.54-3.25-5.29-3.66-8.42
		c-1.11,1.7201-1.35,3.78-1.9399,5.7101C1172.5,1094.8,1170.85,1095.0699,1169.54,1095.6899z"/>
	<path fill="#6B0000" stroke="#6B0000" stroke-width="0.0938" d="M653.1,1042.05c3.66,1.9199,5.31,5.8999,7.98,8.86
		c5.58,5.7999,10.29,12.37,15.9,18.1599c7.83,8.1801,15.1,16.87,23.38,24.6001c5.66,6.23,12.68,11.08,18.04,17.6
		c-3.05,0.1899-5.7401-2.6-8.75-1.53c-1.1801,1.27-1.45,3.0601-1.9901,4.65c-8.84-9.24-16.29-19.65-24.54-29.4
		c-6.98-8.8-13.35-18.04-20-27.08c-2.81-3.89-5.11-8.13-8.29-11.74C653.71,1045.0601,653.3,1043.55,653.1,1042.05z"/>
	<path fill="#550100" stroke="#550100" stroke-width="0.0938" d="M916.2,1046c2.65,1.8101,3.05,5.12,3.83,7.99
		c1.15,5.0601,3.41,9.8,4.18,14.96c0.3,2.4701,3.15,2.79,4.91,3.89c-1.16,2.54-2.46,5.1801-1.86,8.0701
		c0.55-0.05,1.65-0.14,2.2-0.1901c0.41-1.61,0.79-3.21,1.27-4.7899c2.18,4.2999-1.77,8.4099-0.49,12.8899
		c0.79-0.45,1.62-0.84,2.49-1.1599c-0.12-1.92-0.02-3.8201-0.2-5.7201c0.84,0.55,1.67,1.13,2.5099,1.7401
		c0.55-0.1901,1.64-0.5701,2.19-0.76c4.04,10.7699,8.59,21.36,13.19,31.8999c3.64,8.5601,8.36,16.6001,12.05,25.14
		c-1.97-0.6899-3.43-2.13-4.6-3.7899c-0.36,3.13,0.42,6.14,3.07,8.0599c-0.63,0.9501-1.21,1.9301-1.69,2.97
		c-2.01-2.9399-4.6-5.36-7.91-6.74c-2.2401-0.9399-1.72-3.5699-1.89-5.48c-2.84-1.51-3.64-4.75-5.11-7.35
		c-0.36-0.92-1.04-1.22-2.05-0.9c-5.17-12.63-9.86-25.45-14.11-38.41C923.58,1074.39,919.64,1060.25,916.2,1046z"/>
	<path fill="#8B070B" stroke="#8B070B" stroke-width="0.0938" d="M936.42,1071.87l0.24-0.65c12.58,39.7001,30.95,77.54,53.91,112.28
		c7.49,11.52,15.77,22.5,24.05,33.46c-1.96-0.74-3.63-1.96-5.02-3.49c-0.29,0.36-0.86,1.0901-1.14,1.4501
		c-4.21-5.53-7.97-11.36-11.92-17.0601c-4.83-8.13-10.27-15.89-15.03-24.0599c-6.54-11.17-12.86-22.4701-19.04-33.8401
		c-3.6899-8.5399-8.41-16.58-12.05-25.14c-4.6-10.5399-9.15-21.13-13.19-31.8999c-0.86-2.5-1.56-5.04-2.36-7.54
		C935.4,1074.21,935.91,1073.04,936.42,1071.87z"/>
	<path fill="#430001" stroke="#430001" stroke-width="0.0938" d="M1183.41,1086.52c2.5499-0.96,3.96-3.3201,5.4099-5.46
		c0.15,0.47,0.4501,1.3999,0.6001,1.87c-10.9701,29.0599-18.78,59.2599-24.05,89.85c-0.63,0.12-1.9,0.38-2.53,0.5
		c-1.7999,3.1699-2.4299,6.8099-3.9399,10.12c-1.1-3.74-0.41-8.25-3.89-10.86c-3.36,2.86-0.34,7.1599-1.83,10.6899
		c-0.77,1.65-0.9401,4.14-2.9501,4.74c0.38-5.36,0-10.73-0.49-16.0599c-0.36,0.36-1.0699,1.08-1.4299,1.4399
		c-0.4301,2.49-0.02,5.36-1.6201,7.49c-0.5299-0.96-1.0399-1.9099-1.5399-2.84c-0.17,3.1899-0.35,6.39-0.55,9.59
		c-0.5699,0.38-1.7,1.16-2.26,1.55c4.64-32.23,14.3301-63.58,27.2001-93.4501c1.3099-0.62,2.96-0.8899,3.96-2.0299
		c0.59-1.9301,0.83-3.99,1.9399-5.7101c0.41,3.13,0.29,6.88,3.66,8.42c2.13-2.02,0.0701-4.48-0.6699-6.59
		c-1.2101-2.42-1.1901-5.15-1.3501-7.76c1.0701,4,4.5601,6.75,5.41,10.85c1.98-1.24,2.8-3.39,3.14-5.6
		C1184.88,1087,1184.13,1086.75,1183.41,1086.52z"/>
	<path fill="#5A0000" stroke="#5A0000" stroke-width="0.0938" d="M709.65,1109.74c3.0099-1.0699,5.7,1.72,8.75,1.53
		c4.93,4.15,9.78,8.4,14.68,12.6c12.88,11.26,26.77,21.27,40.35,31.63c-2.37-0.04-4.72-0.1801-7.07-0.12
		c-0.02-0.84-0.03-1.67-0.03-2.47c-4.16-0.04-6.46,3.8199-9.13,6.4c1.23,0.8799,2.05,2.1899,3.36,3.0399
		c0.1,0.73,0.3,2.2101,0.4,2.9401c-19.58-14.9601-36.66-32.8201-53.3-50.9C708.2,1112.8,708.47,1111.01,709.65,1109.74z"/>
	<path fill="#5C0100" stroke="#5C0100" stroke-width="0.0938" d="M746.24,1110.6899c30.78,24.04,64.21,44.5801,99.05,62.16
		c-0.35,0.25-1.06,0.75-1.41,1c-3.16-1.6-6.3-3.25-9.42-4.91c-10.19-5.1799-20.1-10.8999-29.96-16.6699
		c-20.57-11.99-40.32-25.3301-59.48-39.4501C745.33,1112.29,745.94,1111.22,746.24,1110.6899z"/>
	<path fill="#470101" stroke="#470101" stroke-width="0.0938" d="M942.29,1126.73c1.01-0.3199,1.69-0.02,2.05,0.9
		c1.47,2.6,2.27,5.84,5.11,7.35c0.17,1.91-0.35,4.54,1.89,5.48c3.31,1.38,5.9,3.8,7.91,6.74c0.48-1.0399,1.06-2.0199,1.69-2.97
		c-2.65-1.9199-3.43-4.9299-3.07-8.0599c1.17,1.6599,2.63,3.1,4.6,3.7899c6.1801,11.37,12.5,22.67,19.04,33.8401
		c-4.68,0.5699-8.83,3.1599-12.26,6.26c4.42,4.8799,6.66,11.1299,8.88,17.22l-1.5-0.03c-2.92-5.49-5.97-10.89-8.87-16.38
		C958.36,1163.27,949.85,1145.2,942.29,1126.73z"/>
	<path fill="#4A0001" stroke="#4A0001" stroke-width="0.0938" d="M757.2,1159.3101c2.67-2.5801,4.97-6.4401,9.13-6.4
		c0,0.7999,0.01,1.63,0.03,2.47c2.35-0.0601,4.7,0.08,7.07,0.12c15,10.5601,30.53,20.34,46.05,30.12c-3.33,4-8.52,5.08-13.12,6.9
		c-1.61,0.49-2.09,2.25-2.97,3.49c-14.82-9.24-28.98-19.5701-42.43-30.72c-0.1-0.73-0.3-2.2101-0.4-2.9401
		C759.25,1161.5,758.43,1160.1899,757.2,1159.3101z"/>
	<path fill="#330000" stroke="#330000" stroke-width="0.0938" d="M1148.3101,1173.35c0.36-0.36,1.0699-1.08,1.4299-1.4399
		c0.49,5.33,0.87,10.7,0.49,16.0599c2.01-0.6,2.1801-3.09,2.9501-4.74c1.49-3.53-1.53-7.83,1.83-10.6899
		c3.48,2.61,2.79,7.12,3.89,10.86c1.51-3.3101,2.14-6.9501,3.9399-10.12c0.63-0.12,1.9-0.38,2.53-0.5
		c-2.91,16.1-4.76,32.37-6.59,48.61c-1.63-4.33-1.6-8.98-2.37-13.48c-0.3101,2.87-0.01,5.9199-1.3101,8.61
		c-2.45-4.36-0.46-9.72-1.38-14.48c-0.76,2.5299-2.1599,4.7799-3.38,7.11c-0.9,3.6899,0.7101,7.9299-1.37,11.3099
		c-0.76-1.0399-1.08-2.1799-0.99-3.4199c0.3101-4.38,1.3301-8.6901,1.4401-13.0801c-1.02,0.14-2.04,0.24-3.04,0.27
		c-1.17,3.8301-1.21,7.85-1.77,11.79c-1.8199-1.87-1.72-4.6801-2.84-6.91c-0.8201,1.39-1.63,2.79-2.29,4.27
		c0.15-8.16,1.47-16.23,2.86-24.24c0.5601-0.39,1.6901-1.17,2.26-1.55c0.2001-3.2,0.38-6.4,0.55-9.59
		c0.5,0.9301,1.01,1.88,1.5399,2.84C1148.29,1178.71,1147.88,1175.84,1148.3101,1173.35z"/>
	<path fill="#3A0001" stroke="#3A0001" stroke-width="0.0938" d="M969.25,1180.0601c3.43-3.1001,7.58-5.6901,12.26-6.26
		c4.76,8.1699,10.2,15.9299,15.03,24.0599c-2.13-0.96-4.68-3.53-6.53-0.74c1.1,0.52,2.25,0.9301,3.4,1.42
		c0.39,1.73,0.53,3.49,0.58,5.2799c-3.88,0.0701-4.15-4.5499-7.19-5.7899c-0.58,2.3099-1.53,4.5399-1.72,6.95
		c0.77,2.09,1.67,4.17,1.8,6.4501c-3.16-4.5601-6.06-9.3-8.75-14.15C975.91,1191.1899,973.67,1184.9399,969.25,1180.0601z"/>
	<path fill="#3B0000" stroke="#3B0000" stroke-width="0.0938" d="M806.36,1192.52c4.6-1.8201,9.79-2.9,13.12-6.9
		c15.35,9.26,31.15,17.74,46.95,26.1801c-1.81,0.3899-3.63-0.03-5.43,0.1899c-3.19,2.15-5.45,5.39-8.15,8.09
		c1.44,2.5,4.52,2.77,6.71,4.3401c1.24,0.74,0.84,1.96,0.35,3.08c-19.48-9.29-38.29-19.95-56.52-31.49
		C804.27,1194.77,804.75,1193.01,806.36,1192.52z"/>
	<path fill="#2C0001" stroke="#2C0001" stroke-width="0.0938" d="M990.01,1197.12c1.85-2.79,4.4-0.22,6.53,0.74
		c3.95,5.7001,7.71,11.53,11.92,17.0601c5.32,7.51,11.0099,14.76,16.3699,22.25c-0.14,0.37-0.4299,1.12-0.5699,1.5
		c-8.65-2.8101-17.28-5.79-25.69-9.15c-4.28-5.76-7.86-12.02-11.69-18.09c-0.13-2.28-1.03-4.3601-1.8-6.4501
		c0.19-2.41,1.14-4.64,1.72-6.95c3.04,1.24,3.31,5.86,7.19,5.7899c-0.05-1.7899-0.19-3.5499-0.58-5.2799
		C992.26,1198.05,991.11,1197.64,990.01,1197.12z"/>
	<path fill="#8A060D" stroke="#8A060D" stroke-width="0.0938" d="M976.63,1197.25l1.5,0.03c2.69,4.85,5.59,9.59,8.75,14.15
		c3.83,6.0699,7.41,12.33,11.69,18.09c8.41,3.36,17.04,6.34,25.69,9.15l-0.47,1.0499c-8.62-2.1-17.17-4.4399-25.73-6.72
		C990.55,1221.3,983.29,1209.4399,976.63,1197.25z"/>
	<path fill="#270001" stroke="#270001" stroke-width="0.0938" d="M1153.72,1202.04c0.92,4.76-1.0699,10.12,1.38,14.48
		c1.3-2.6901,1-5.74,1.3101-8.61c0.77,4.5,0.74,9.15,2.37,13.48c-0.0601,3.45-0.53,6.92-0.9301,10.37
		c-1.72,5.59-1.22,11.48-1.58,17.25c-0.1901,5.36-1.4301,10.61-1.74,15.96c-1.87-0.95-3.6801-2-5.35-3.23
		c-3.3-3.02-7.9601-3.29-11.5701-5.64c-0.0599-14.26-0.04-28.58,1.87-42.72c0.66-1.48,1.47-2.88,2.29-4.27
		c1.12,2.23,1.02,5.04,2.84,6.91c0.5601-3.9401,0.6-7.96,1.77-11.79c1-0.03,2.02-0.13,3.04-0.27
		c-0.11,4.39-1.13,8.7001-1.4401,13.0801c-0.09,1.24,0.23,2.38,0.99,3.4199c2.0801-3.38,0.47-7.62,1.37-11.3099
		C1151.5601,1206.8199,1152.96,1204.5699,1153.72,1202.04z"/>
	<path fill="#2C0001" stroke="#2C0001" stroke-width="0.0938" d="M861,1211.99c1.8-0.22,3.62,0.2,5.43-0.1899
		c17.86,9.22,36.18,17.47,54.43,25.87c-2.33,0.5599-5.04,0.49-6.74,2.45c-2.48,2.45-6.01,3.6-8.06,6.51
		c4.74,0,8.57,3.0699,12.06,5.91c-19.84-7.27-39.17-15.9-58.21-25.04c0.4901-1.12,0.89-2.34-0.35-3.08
		c-2.19-1.5701-5.27-1.8401-6.71-4.3401C855.55,1217.38,857.81,1214.14,861,1211.99z"/>
	<path fill="#990100" stroke="#990100" stroke-width="0.0938" d="M891.98,1222.9c2.66-3.26,5.64-6.28,8.94-8.89
		c4.53,1.03,8.74,6.14,13.55,3.48c1.96,0.8101,3.9901,1.45,5.98,2.27c15.78,6.14,31.83,11.6,47.93,16.86
		c19.06,6.26,38.35,11.8101,57.6899,17.16c27.7201,7.6799,55.7401,14.26,83.79,20.63c34.41,7.71,69.17,13.6899,103.99,19.24
		c17.62,2.85,35.3,5.39,52.9601,8.01c13.6599,2.14,27.3799,3.87,41.0399,6.0599c21.36,3.0701,42.7101,6.1901,64.01,9.66
		c12.05,1.95,24.11,3.83,36.12,6.02c19.34,3.41,38.67,6.9199,57.89,10.97c28.17,6.01,56.3,12.3,84.03,20.1
		c21.37,5.9501,42.5399,12.5701,63.6,19.51c-1.96-9.59,1.0699-19.77,7.37-27.15c2.89-3.61,6.65-6.35,10.09-9.39
		c-22.88-4.5099-45.71-9.37-68.6899-13.37c-24.28-4.4099-48.51-9.1399-72.88-12.99c-22.62-3.88-45.26-7.6899-67.96-11.0399
		c-13.6901-2-27.3401-4.27-41.0701-5.98c-20.58-2.9401-41.1799-5.8-61.83-8.16c-11.37-1.24-22.6901-2.9601-34.0801-3.92
		c-23.95-2.66-47.9299-5.1899-71.96-7c-19.22-1.5599-38.4299-3.49-57.45-6.64c0.48-2.9099,0.12-6.1899,1.58-8.7899
		c6.33-0.2101,12.79,2.5399,19.16,0.7999c1.08-0.13,2.1699,0.24,3.27,0.41c-0.79,0.1899-2.3501,0.55-3.13,0.74
		c10.5199,1.76,21.1799,2.5699,31.7799,3.8c7.99,1.8099,16.26,1.0299,24.28,2.73c10,0.84,19.9501,2.22,29.97,2.9099
		c5.3301,0.5601,10.6001,1.6901,15.9801,1.8301c6.7,0.23,13.2599,1.9299,19.99,1.84c7.1-0.13,13.96,2.25,21.08,2.09
		c6.37-0.01,12.55,1.77,18.9,2.01c5.74,0.23,11.38,1.4701,17.12,1.8c8.0699,0.1799,15.9399,2.21,24.02,2.37
		c8.9199,1.58,18.0399,1.42,26.9099,3.3199c3.3401,0.54,6.76,0.27,10.13,0.8c6.41,1.05,13.0601,2.74,19.5601,1.46
		c72.5499,8.9401,144.95,21.9601,214.79,44.01c4.0099,1.48,8.5499,2.28,11.7,5.4401c3.5,3.3099,3.95,8.49,3.99,13.0499
		c-0.53,12.3201-1.27,24.7101,0.58,36.9701c2.5901,18.34,9.52,35.8199,18.3,52.0499c8.6801,16.11,15.8,33.04,21.4301,50.46
		c5.45,17.67,10.08,35.9601,9.85,54.5801c-0.26,6.3099-1.0701,13.09-4.99,18.28c-3.17,4.1499-9.04,4.76-13.7101,3.22
		c-8.22-2.64-15.23-8.0801-21.59-13.74c-0.4299-4.3401-3.04-7.97-4.55-11.9501c-14.99-31.6799-34.6599-61.1-47.0699-93.99
		c-8.0699-21-13.1-43.48-11.87-66.0599c-2.37-1.9-5.38-2.49-8.14-3.53c-31.13-10.15-62.8199-18.79-94.98-24.9301
		c-19.6801-4.5699-39.73-7.1-59.6901-10.08c-12.09-1.3099-24.11-3.35-36.25-3.99c-11.75-1.67-23.62-2.27-35.3899-3.72
		c-15.9501-0.3301-31.75-2.75-47.7001-3.02c-9.6799-1.8-19.63-1.33-29.36-2.8c-16.28-0.99-32.52-2.5399-48.71-4.47
		c-12.52-1.33-24.9301-3.45-37.41-5.01c-11.5599-1.5599-22.99-3.96-34.51-5.74c-14.77-3-29.49-6.28-44.14-9.85
		c-20.83-5.9301-41.77-11.51-62.21-18.71c-8.34-2.3501-16.17-7.1001-25.0601-6.9601c-22.99-0.77-45.9999-0.7-68.9999-0.47
		c-14.97,1.51-30.09,0.34-45.01,2.51c-4.29,0.74-8.68,0.2-12.95,1.04c-8.54,1.47-17.25,1.1899-25.75,2.88
		c-11.27-0.6801-22.18,2.7899-33.27,4.24c-7.45,1.7699-15.7,1.2799-22.17,6.01c-2.44-1.62-5.12-1.12-7.68-0.15
		c-3.2-0.02-6.37,0.3099-9.27,1.76c-2.8199,1.5399-6.48-0.6901-8.91,1.77c1.72,0.3099,3.46,0.59,5.2,0.9199
		c-4.47,0.91-9.34-0.5699-13.52,1.47c0.76,0.64,1.52,1.3101,2.28,2.01c-20.1801,3.27-40.29,7.1801-60.45,10.42
		c-2.01-0.24-3.96-0.74-5.96-0.91c0.14-0.39,0.43-1.1699,0.57-1.5599c39.92-13.4601,80.58-24.9,121.98-32.8301
		c25.11-5.01,50.53-8.2699,75.98-10.7799c-1.15-0.4801-2.3-0.9601-3.42-1.41c-3.0099-4.2001-8.85-3.84-12.7-6.9301
		c2.85-0.87,5.6,1.4501,8.52,0.49c6.42,2.2001,12.85,4.4501,19.17,6.9701c2.85-4.3101,6.45-8.0801,11.21-10.28
		c-12.94-4.37-25.38-10.12-37.98-15.39c-0.1-0.58-0.28-1.75-0.38-2.33c-7.92-2.1001-14.6-7.25-22.44-9.51
		c-1.64-0.4501-2.36-2.38-4-2.77C896.61,1224.54,894.2,1223.99,891.98,1222.9 M1632.8101,1374.87
		c-5.6801,16.41-6.41,34.76-0.5601,51.24c10.64,29.11,24.63,56.84,39.4,84.05c6.87,11.99,13.71,24.0699,21.9199,35.22
		c2.89,3.38,5.16,7.79,9.63,9.33c2.0601-2.7999,0.92-6.47,1.2301-9.6699c-0.53-7.28-1-14.64-3.2401-21.64
		c-3.5599-14.65-10.7999-27.97-17.36-41.42c-8.61-17.03-17.1-34.33-21.86-52.9c-3.34-11.38-4.85-23.23-5.85-35
		c-1.36-10.0699,0.6901-20.4099-1.78-30.35c-0.23-3.84-3.11-8.76-7.46-8.1899C1639.24,1359.13,1635.8101,1367.53,1632.8101,1374.87z
		"/>
	<path fill="#989933" stroke="#989933" stroke-width="0.0938" d="M362.4,1253.47c42.06-16.48,87.45-23.6799,132.54-22.6699
		c46.99,0.8999,93.53,9.47,138.83,21.63c41,11.08,81.19,25.09,120.62,40.86c-11.84,0.98-23.72,1.4199-35.5,2.96
		c-43.2,5.1-85.28,17.17-125.77,32.83c-39.54,15.24-78.02,33.24-118.2,46.8101c-45.15,15.54-93.12,23.5699-140.9,21.04
		c-20.24-1.04-40.39-3.55-60.29-7.38c-0.47-0.01-1.43-0.03-1.91-0.04c20.92,7.1,42.47,12.54,64.45,15.04
		c48.5,6.0499,97.58-0.89,144.7-12.5701c42.77-10.4399,84.57-24.38,126.99-36.08c50.34-14.1,101.99-24.9,154.41-26.3
		c-5.09,45.39-20.9,90.28-49.49,126.29c-23.37,29.99-54.83,53.1899-89.48,68.54c-42.77,19.09-89.79,26.95-136.39,27.8099
		c-47.87,0.75-95.62-5.89-142.09-17.05c-82.07-19.9399-160.19-53.95-233.53-95.5099C75.3,1419.09,40.24,1396.7,6.4,1372.6
		c-1.71-1.65-4.37-2.2899-5.49-4.49c45.17,6.08,91.71,5.4401,136.01-6c41.02-10.17,78.93-29.65,115.15-50.98
		C287.92,1290.26,323.45,1268.24,362.4,1253.47 M471.83,1247.72c-9,0.36-17.94,1.75-26.82,3.2001c-9.48,1.39-18.92,3.22-28.16,5.75
		c-27.05,6.33-53.29,15.7999-78.7,26.9299c-25.82,11.6-51.21,24.13-76.39,37.04c-25.39,12.58-51.03,24.74-77.53,34.83
		c-15.39,5.99-31.21,10.88-47.18,15.1c-14.51,3.9301-29.33,6.51-44.14,8.9801c-10.62,1.3199-21.26,2.5399-31.95,3.0499
		c-2.41,0.05-4.81,0.3101-7.13,0.9601c9.39,0.7699,18.8,1.25,28.22,1.5399c10.15-0.66,20.41-0.3199,30.47-2.02
		c16.1-1.48,32.21-4.5299,47.95-8.4199c7.75-1.35,15.35-3.67,22.99-5.5901c27.93-7.33,55.27-16.74,82.67-25.8199
		c24.72-8.29,49.23-17.1899,74.04-25.21c27.09-8.88,54.27-17.5801,81.82-24.9501c18.45-4.7799,37-9.2,55.66-13.09
		c4.74-0.4,9.35-1.65,14.04-2.41c11.9-2.36,24.04-3.34,35.91-5.7899c3.16,0.8099,6.36-0.02,9.53-0.41
		c26.51-2.97,53.24-3.1,79.88-2.52c7.95,1.16,16.02,0.98,24.04,0.8101c-1.62-0.3401-3.24-0.7001-4.86-0.92
		c1.09-1.36,3.47-0.76,5.05-1.47c1.24-1.17-0.68-2.28-1.65-2.7201c-9.83-2.58-19.7401-4.8999-29.59-7.4199
		c-21.51-4.01-43.05-8.17-64.92-9.67c-5.21-0.34-10.58-1.62-15.72-0.2999c-0.87-0.9301-2.26-0.7401-3.38-0.8501
		C507.94,1245.71,489.74,1245.39,471.83,1247.72 M740.73,1356.73c-8.18,8.53-16.43,17.01-24.86,25.3101
		c-9.91,9.83-20.2,19.2799-30.44,28.75c-15.82,13.88-32.17,27.21-49.18,39.64c-7.58,4.95-15.03,10.2599-22.75,15.0499l-0.19-0.01
		c-15.3,9.47-31.27,17.91-47.93,24.75c-25.77,10.6-53.13,17.0801-80.82,19.9501c-1.52-0.3-3.08,0.0299-4.59,0.11
		c-19.57,1.6799-39.27,1.35-58.86,0.4199c-17.69-1.37-35.4-3.0199-53.05-5.0599c-15.33-2.1901-30.73-3.98-46.08-6.0701
		c-26.58-4.0499-53.31-7.1799-79.99-10.5199c-2.95-0.51-5.94-0.8201-8.94-0.7101c29.07,6.88,57.46,16.51,86.53,23.29
		c11.35,3.15,22.88,5.71,34.39,8.27c6.57,1.16,13.01,3.3099,19.67,3.91c17.3,3.58,34.81,6.21,52.35,8.25
		c11.85,1.12,23.74,2.3999,35.63,2.73c37.01,1.96,74.5-0.42,110.51-9.53c4.5-1.41,9.34-2.03,13.56-4.12
		c14.09-3.85,27.67-9.6901,40.7-16.3l0.07-0.1799c11.56-5.61,22.43-12.61,32.71-20.28c14.64-10.91,27.86-23.65,39.6-37.62
		l-0.04-0.21c11.31-13.2101,20.86-27.89,29.22-43.12c5.49-9.9401,10.14-20.3101,14.75-30.67l0.08,1.13c1.2-0.53,1.29-2,1.81-3.02
		c1.73-5.14,4.53-9.95,5.44-15.34l-0.88,0.5499c1.21-4.21,2.86-8.26,4.18-12.4199C748.77,1347.63,745.01,1352.45,740.73,1356.73
		 M355.95,1407.47c4.94,1.02,10.04,0.3301,15.05,0.5901c7-0.26,14.06,0.4099,21.02-0.5601
		C380.03,1406.89,367.96,1407.1,355.95,1407.47z"/>
	<path fill="#6A0000" stroke="#6A0000" stroke-width="0.0938" d="M1156.27,1249.01c0.36-5.77-0.14-11.66,1.58-17.25
		c-0.28,8.76-1.51,17.49-1.37,26.26c6.46,0.51,12.88,1.41,19.3,2.33c-6.37,1.74-12.8301-1.01-19.16-0.7999
		c-1.46,2.6-1.1,5.88-1.58,8.7899c-1.3401-0.1799-2.65-0.39-3.9401-0.62c0.27-0.4399,0.8101-1.3199,1.09-1.76
		c-1.0199-1.4199-1.8799-2.9199-3.0099-4.22c1.6699,1.23,3.48,2.28,5.35,3.23C1154.84,1259.62,1156.08,1254.37,1156.27,1249.01z"/>
	<path fill="#1D0000" stroke="#1D0000" stroke-width="0.0938" d="M914.12,1240.12c1.7-1.96,4.41-1.89,6.74-2.45
		c1.63,0.73,3.29,1.38,4.96,2.08c12.6,5.27,25.04,11.02,37.98,15.39c-4.76,2.2-8.36,5.97-11.21,10.28
		c-6.32-2.52-12.75-4.77-19.17-6.9701c-5.13-1.9199-10.22-3.8899-15.3-5.9099c-3.49-2.8401-7.32-5.91-12.06-5.91
		C908.11,1243.72,911.64,1242.5699,914.12,1240.12z"/>
	<path fill="#6A0000" stroke="#6A0000" stroke-width="0.0938" d="M1175.92,1261.5c0.7799-0.1899,2.34-0.55,3.13-0.74
		c9.9399,1.15,19.9099,2.1799,29.85,3.5c1.6,1.53,3.9,0.99,5.9,0.84c10.47,0.54,20.85,2.1801,31.2899,3.12
		c63.2001,6.5901,126.55,11.9401,189.55,20.24c-6.5,1.28-13.15-0.4099-19.5601-1.46c-3.37-0.53-6.7899-0.26-10.13-0.8
		c-8.87-1.8999-17.99-1.74-26.9099-3.3199c-8.0801-0.16-15.9501-2.1901-24.02-2.37c-5.74-0.33-11.38-1.5701-17.12-1.8
		c-6.35-0.24-12.53-2.02-18.9-2.01c-7.12,0.16-13.98-2.22-21.08-2.09c-6.7301,0.09-13.29-1.61-19.99-1.84
		c-5.38-0.14-10.65-1.27-15.9801-1.8301c-10.0199-0.6899-19.97-2.0699-29.97-2.9099c-8.02-1.7001-16.29-0.92-24.28-2.73
		C1197.1,1264.0699,1186.4399,1263.26,1175.92,1261.5z"/>
	<path fill="#C46B6A" stroke="#C46B6A" stroke-width="0.0938" d="M1208.9,1264.26c1.51-1.04,4.97-0.35,5.9,0.84
		C1212.8,1265.25,1210.5,1265.79,1208.9,1264.26z"/>
	<path fill="#880505" stroke="#880505" stroke-width="0.0938" d="M862.97,1288.17c11.09-1.4501,22-4.92,33.27-4.24
		c-2.22,1.71-5.56,1.23-7.2,3.7699c6.17-1.85,12.59-2.21,18.95-2.9099c2.07,0.11,4.16,0.74,6.25,0.34
		c4.97-0.88,10.02-0.6,15.04-0.77c13.53-1.62,27.2-0.45,40.8-0.75c11.99,0.3201,24.34-0.89,35.98,2.64
		c-1.43,0.63-2.83,1.34-4.29,1.88c-64.59-4.6-129.25,3.11-192.87,13.83c-0.76-0.7-1.52-1.37-2.28-2.01
		c4.18-2.0399,9.05-0.5599,13.52-1.47c-1.74-0.33-3.48-0.61-5.2-0.9199c2.43-2.4601,6.09-0.2301,8.91-1.77
		c2.9-1.4501,6.07-1.78,9.27-1.76c2.56-0.97,5.24-1.47,7.68,0.15C847.27,1289.45,855.52,1289.9399,862.97,1288.17z"/>
	<path fill="#930506" stroke="#930506" stroke-width="0.0938" d="M1073.8,1308.26c4.48-1.8101,8.84,0.9,13.13,1.99
		c10.5199,2.61,21.0699,5.08,31.59,7.7c32.25,7.05,64.28,15.05,96.49,22.27c8.99,1.79,17.73,4.6801,26.8,6.14
		c21.6299,5.34,43.2999,10.54,64.85,16.1901c6.09,1.72,12.21,3.3199,18.38,4.76c20.0399,5.5099,39.96,11.4399,59.89,17.33
		c30.6699,9.67,61.0499,20.3099,90.75,32.66c39.4399,16.13,77.5199,35.76,113.08,59.26c12.29,8.1299,24.11,16.97,35.5599,26.25
		c-0.8999,0.61-1.7899,1.24-2.6499,1.8799c-60.52-46.6899-130.91-78.72-202.8-103.58c-84.01-28.89-170.71-48.75-256.84-70.0499
		C1132.5601,1323.6899,1103.02,1316.52,1073.8,1308.26z"/>
	<path fill="#770908" stroke="#770908" stroke-width="0.0938" d="M723.56,1316.71c6.4-2.52,13.04-4.3999,19.5-6.7999
		c-0.14,0.39-0.43,1.1699-0.57,1.5599c2,0.17,3.95,0.67,5.96,0.91C740.2,1314.0601,731.89,1315.55,723.56,1316.71z"/>
	<linearGradient id="SVGID_11_" gradientUnits="userSpaceOnUse" x1="809.5615" y1="933.5554" x2="1519.5615" y2="1490.5553">
		<stop  offset="0" style="stop-color:#E5BCBC"/>
		<stop  offset="0.2582" style="stop-color:#D28D8D"/>
		<stop  offset="0.6052" style="stop-color:#BB5354"/>
		<stop  offset="0.8627" style="stop-color:#AC3030"/>
		<stop  offset="1" style="stop-color:#A72223"/>
	</linearGradient>
	<path fill="url(#SVGID_11_)" stroke="#A72223" stroke-width="0.0938" d="M1562.27,1324.0699
		c-24.28-4.4099-48.51-9.1399-72.88-12.99c-22.62-3.88-45.26-7.6899-67.96-11.0399c-13.6901-2-27.3401-4.27-41.0701-5.98
		c-20.58-2.9401-41.1799-5.8-61.83-8.16c-11.37-1.24-22.6901-2.9601-34.0801-3.92c-23.95-2.66-47.9299-5.1899-71.96-7
		c-19.22-1.5599-38.4299-3.49-57.45-6.64c-1.3401-0.1799-2.65-0.39-3.9401-0.62c-10.5699-1.64-21.0599-3.6899-31.5699-5.65
		c-30.26-6.0199-60.1801-13.59-90.15-20.8999c-1.88-0.5-3.73-0.99-5.59-1.4501c-8.6201-2.1-17.17-4.4399-25.73-6.72
		c-7.51-11.7-14.77-23.5601-21.4301-35.75c-2.92-5.49-5.9701-10.89-8.87-16.38c-9.4-17.6-17.91-35.67-25.47-54.14
		c-5.17-12.63-9.8601-25.45-14.1101-38.41c-0.96-0.5699-1.8899-1.13-2.7999-1.7c0.91,0.5699,1.84,1.13,2.7999,1.7
		C923.5801,1074.39,919.64,1060.25,916.2,1046c-5.3799-22.42-9.3099-45.18-11.8799-68.09c-1.7101-13.96-2.6501-28-3.4501-42.04
		c-0.4-5.76-0.5699-11.52-0.77-17.28c-0.13-2.02-0.13-4.05-0.13-6.05c0.0801-1.78,0.01-3.55-0.09-5.3
		c-0.53-21.83,0.0299-43.69,0.77-65.5c-1.89,12.5-1.9501,25.2-3,37.79c-0.78,12.9599-1.4,25.9199-1.59,38.8998v0.0001
		c-1.8801,62.9199,6.0199,126.2899,25.3499,186.2798c0,0,0,0,0,0.0001c11.0901,35.62,25.7301,70.04,41.8401,103.65
		c2.5801,5.41,5.22,10.8,7.98,16.13c-2.9199-0.85-5.85-1.64-8.77-2.46c-11.04-3.35-21.95-7.0801-32.84-10.9
		c-29.27-10.73-58-23.04-85.74-37.28c-3.16-1.6-6.2999-3.25-9.42-4.91c-10.1899-5.1799-20.1-10.8999-29.96-16.6699
		c-20.5701-11.99-40.3201-25.3301-59.48-39.4501l-0.5-0.38c-31.6001-23.6499-60.81-50.62-86.22-80.85
		c-8.66-10.24-16.52-21.1299-24.53-31.87c28.34,45.11,64.28,85.4,105.54,119.0801c18.5499,15.24,38.27,29.01,58.6599,41.6799
		c10.27,6.3301,20.77,12.3,31.3601,18.1c27.5,14.79,56.0199,27.63,85.1399,38.91c1.96,0.8101,3.99,1.45,5.98,2.27
		c15.78,6.14,31.8301,11.6,47.9301,16.86c19.0599,6.26,38.35,11.8101,57.6899,17.16c27.7201,7.6799,55.7401,14.26,83.79,20.63
		c34.41,7.71,69.17,13.6899,103.99,19.24c17.62,2.85,35.3,5.39,52.9601,8.01c13.6599,2.14,27.3799,3.87,41.0399,6.0599
		c21.36,3.0701,42.7101,6.1901,64.01,9.66c12.05,1.95,24.11,3.83,36.12,6.02c19.34,3.41,38.67,6.9199,57.89,10.97
		c28.17,6.01,56.3,12.3,84.03,20.1c21.37,5.9501,42.5399,12.5701,63.6,19.51c-1.96-9.59,1.0699-19.77,7.37-27.15
		c2.89-3.61,6.65-6.35,10.09-9.39C1608.08,1332.9301,1585.25,1328.0699,1562.27,1324.0699z M899.1001,905.675
		c-0.26-0.515-0.52-1.025-0.78-1.5349V904.14C898.5801,904.65,898.8401,905.16,899.1001,905.675z M899.0463,931.1
		c-0.0787-2.3675-0.1362-4.735-0.2062-7.1c-0.0088-0.4813-0.0229-0.9648-0.0381-1.4497c-0.03-0.9698-0.0632-1.9447-0.0624-2.9163
		c-0.0009,0.9716,0.0323,1.9465,0.0624,2.9163c0.0151,0.4849,0.0293,0.9684,0.0381,1.4497
		C898.91,926.365,898.9675,928.7325,899.0463,931.1s0.1788,4.735,0.3337,7.1C899.2251,935.835,899.125,933.4675,899.0463,931.1z
		 M921.12,1091.79c-0.73-0.5601-1.4601-1.0901-2.1901-1.5901l0,0C919.6599,1090.7,920.39,1091.23,921.12,1091.79z M962.03,1200.84
		c0.275,1.015,0.63,2.01,1.0449,2.9824C962.6599,1202.85,962.3051,1201.855,962.03,1200.84z M965.5205,1187.0713
		c-0.8562-1.171-1.4598-2.4723-1.4504-4.0613C964.0608,1184.599,964.6643,1185.9003,965.5205,1187.0713z M966.45,1205.2
		c-0.1663-0.2013-0.3242-0.4144-0.4778-0.634c0.1536,0.2196,0.3115,0.4326,0.4778,0.6339V1205.2z"/>
	<path fill="#B4B569" stroke="#B4B569" stroke-width="0.0938" d="M749.15,1356.08l0.88-0.5499c-0.91,5.39-3.71,10.2-5.44,15.34
		c-0.52,1.02-0.61,2.49-1.81,3.02l-0.08-1.13C745.04,1367.27,747.15,1361.6899,749.15,1356.08z"/>
	<path stroke="#000000" stroke-width="0.0938" d="M1632.8101,1374.87c3-7.34,6.4299-15.74,14.0699-19.33
		c4.35-0.5701,7.23,4.35,7.46,8.1899c2.4701,9.9401,0.42,20.28,1.78,30.35c1,11.77,2.51,23.62,5.85,35
		c4.76,18.5701,13.25,35.87,21.86,52.9c6.5601,13.4501,13.8,26.77,17.36,41.42c2.2401,7,2.7101,14.36,3.2401,21.64
		c-0.3101,3.2,0.83,6.87-1.2301,9.6699c-4.47-1.5399-6.74-5.95-9.63-9.33c-8.21-11.15-15.0499-23.23-21.9199-35.22
		c-14.77-27.2101-28.76-54.9401-39.4-84.05C1626.4,1409.63,1627.13,1391.28,1632.8101,1374.87z"/>
	<linearGradient id="SVGID_12_" gradientUnits="userSpaceOnUse" x1="1624.5526" y1="1460.1125" x2="967.2192" y2="1287.4459">
		<stop  offset="0" style="stop-color:#0D0C04"/>
		<stop  offset="0.1834" style="stop-color:#1B1A08"/>
		<stop  offset="0.5272" style="stop-color:#3E3D14"/>
		<stop  offset="0.9914" style="stop-color:#787727"/>
		<stop  offset="1" style="stop-color:#797827"/>
	</linearGradient>
	<linearGradient id="SVGID_13_" gradientUnits="userSpaceOnUse" x1="888.9316" y1="1415.0944" x2="1676.0481" y2="1415.0944">
		<stop  offset="0" style="stop-color:#797827"/>
		<stop  offset="0.1633" style="stop-color:#737225"/>
		<stop  offset="0.3733" style="stop-color:#636220"/>
		<stop  offset="0.6089" style="stop-color:#494817"/>
		<stop  offset="0.8613" style="stop-color:#24230C"/>
		<stop  offset="1" style="stop-color:#0D0C04"/>
	</linearGradient>
	<path fill="url(#SVGID_12_)" stroke="url(#SVGID_13_)" stroke-width="0.0938" d="M1671.4399,1540.83
		c-14.99-31.6799-34.6599-61.1-47.0699-93.99c-8.0699-21-13.1-43.48-11.87-66.0599c-2.37-1.9-5.38-2.49-8.14-3.53
		c-31.13-10.15-62.8199-18.79-94.98-24.9301c-19.6801-4.5699-39.73-7.1-59.6901-10.08c-12.09-1.3099-24.11-3.35-36.25-3.99
		c-11.75-1.67-23.62-2.27-35.3899-3.72c-15.9501-0.3301-31.75-2.75-47.7001-3.02c-9.6799-1.8-19.63-1.33-29.36-2.8
		c-16.28-0.99-32.52-2.5399-48.71-4.47c-12.52-1.33-24.9301-3.45-37.41-5.01c-11.5599-1.5599-22.99-3.96-34.51-5.74
		c-14.77-3-29.49-6.28-44.14-9.85c-20.83-5.9301-41.77-11.51-62.21-18.71c-8.34-2.3501-16.17-7.1001-25.0601-6.9601
		c-22.99-0.77-46-0.7-69-0.47c-14.97,1.51-30.09,0.34-45.01,2.51c-4.2899,0.74-8.6799,0.2-12.95,1.04
		c-8.54,1.47-17.25,1.1899-25.75,2.88c-2.22,1.71-5.5601,1.23-7.2,3.7699c6.1699-1.85,12.59-2.21,18.95-2.9099
		c2.0701,0.11,4.16,0.74,6.25,0.34c4.97-0.88,10.02-0.6,15.04-0.77c13.53-1.62,27.2-0.45,40.8-0.75
		c11.99,0.3201,24.3398-0.89,35.98,2.64c-1.4301,0.63-2.8301,1.34-4.29,1.88c3.98-0.13,7.6,1.61,11.34,2.7
		c20.14,6.1001,40.34,12.11,60.6901,17.4301c4.48-1.8101,8.84,0.9,13.13,1.99c10.5199,2.61,21.0699,5.08,31.59,7.7
		c32.25,7.05,64.28,15.05,96.49,22.27c8.99,1.79,17.73,4.6801,26.8,6.14c21.6299,5.34,43.2999,10.54,64.85,16.1901
		c6.09,1.72,12.21,3.3199,18.38,4.76c20.0399,5.5099,39.96,11.4399,59.89,17.33c30.6699,9.67,61.0499,20.3099,90.75,32.66
		c39.4399,16.13,77.5199,35.76,113.08,59.26c12.29,8.1299,24.11,16.97,35.5599,26.25c11.9601,9.5299,23.28,19.8999,34.0701,30.74
		c4.83,5.48,9.87,10.7799,14.5699,16.3899c0.88,1.0701,1.9401,1.91,3.03,2.8401
		C1675.5601,1548.4399,1672.95,1544.8101,1671.4399,1540.83z"/>
	<linearGradient id="SVGID_14_" gradientUnits="userSpaceOnUse" x1="643.6915" y1="1241.4404" x2="46.7672" y2="1366.1444">
		<stop  offset="0" style="stop-color:#A5A64A"/>
		<stop  offset="0.1555" style="stop-color:#A8A950"/>
		<stop  offset="0.3576" style="stop-color:#B1B160"/>
		<stop  offset="0.5855" style="stop-color:#BFBE7B"/>
		<stop  offset="0.8304" style="stop-color:#D3D1A0"/>
		<stop  offset="1" style="stop-color:#E3E0BE"/>
	</linearGradient>
	<linearGradient id="SVGID_15_" gradientUnits="userSpaceOnUse" x1="636.7776" y1="1242.8848" x2="50.0355" y2="1365.4617">
		<stop  offset="0" style="stop-color:#A5A64A"/>
		<stop  offset="1" style="stop-color:#E3E0BE"/>
	</linearGradient>
	<path fill="url(#SVGID_14_)" stroke="url(#SVGID_15_)" stroke-width="0.0938" d="M639.59,1264.5699
		c-9.83-2.58-19.7401-4.8999-29.59-7.4199c-21.51-4.01-43.05-8.17-64.92-9.67c-5.21-0.34-10.58-1.62-15.72-0.2999
		c-0.87-0.9301-2.26-0.7401-3.38-0.8501c-18.04-0.62-36.24-0.9399-54.15,1.39c-9,0.36-17.94,1.75-26.82,3.2001
		c-9.48,1.39-18.92,3.22-28.16,5.75c-27.05,6.33-53.29,15.7999-78.7,26.9299c-25.82,11.6-51.21,24.13-76.39,37.04
		c-25.39,12.58-51.03,24.74-77.53,34.83c-15.39,5.99-31.21,10.88-47.18,15.1c-14.51,3.9301-29.33,6.51-44.14,8.9801
		C82.29,1380.87,71.65,1382.09,60.96,1382.6c-2.41,0.05-4.81,0.3101-7.13,0.9601c9.39,0.7699,18.8,1.25,28.22,1.5399
		c10.15-0.66,20.41-0.3199,30.47-2.02c16.1-1.48,32.21-4.5299,47.95-8.4199c7.75-1.35,15.35-3.67,22.99-5.5901
		c27.93-7.33,55.27-16.74,82.67-25.8199c24.72-8.29,49.23-17.1899,74.04-25.21c27.09-8.88,54.27-17.5801,81.8199-24.9501
		c18.45-4.7799,37-9.2,55.66-13.09c4.74-0.4,9.35-1.65,14.04-2.41c11.9-2.36,24.04-3.34,35.91-5.7899
		c3.16,0.8099,6.36-0.02,9.53-0.41c26.51-2.97,53.24-3.1,79.88-2.52c7.95,1.16,16.02,0.98,24.04,0.8101
		c-1.62-0.3401-3.24-0.7001-4.86-0.92c1.09-1.36,3.47-0.76,5.05-1.47C642.48,1266.12,640.56,1265.01,639.59,1264.5699z"/>
	<path fill="#828233" stroke="#828233" stroke-width="0.0938" d="M355.95,1407.47c12.01-0.37,24.08-0.58,36.07,0.03
		c-6.96,0.97-14.02,0.3-21.02,0.5601C365.99,1407.8,360.89,1408.49,355.95,1407.47z"/>
	<path fill="#8C0C10" stroke="#8C0C10" stroke-width="0.0938" d="M1624.3199,1502.8101c11.9601,9.5299,23.28,19.8999,34.0701,30.74
		c4.83,5.48,9.87,10.7799,14.5699,16.3899c-16.4199-15.8199-33.11-31.4299-51.2899-45.25
		C1622.53,1504.05,1623.42,1503.42,1624.3199,1502.8101z"/>
	<linearGradient id="SVGID_16_" gradientUnits="userSpaceOnUse" x1="233.05" y1="1439.5443" x2="753.3301" y2="1439.5443">
		<stop  offset="0" style="stop-color:#797827"/>
		<stop  offset="0.1633" style="stop-color:#737225"/>
		<stop  offset="0.3733" style="stop-color:#636220"/>
		<stop  offset="0.6089" style="stop-color:#494817"/>
		<stop  offset="0.8613" style="stop-color:#24230C"/>
		<stop  offset="1" style="stop-color:#0D0C04"/>
	</linearGradient>
	<linearGradient id="SVGID_17_" gradientUnits="userSpaceOnUse" x1="233.0392" y1="1439.4952" x2="753.4253" y2="1439.4952">
		<stop  offset="0" style="stop-color:#797827"/>
		<stop  offset="0.1633" style="stop-color:#737225"/>
		<stop  offset="0.3733" style="stop-color:#636220"/>
		<stop  offset="0.6089" style="stop-color:#494817"/>
		<stop  offset="0.8613" style="stop-color:#24230C"/>
		<stop  offset="1" style="stop-color:#0D0C04"/>
	</linearGradient>
	<path fill="url(#SVGID_16_)" stroke="url(#SVGID_17_)" stroke-width="0.0938" d="M740.73,1356.73
		c-8.1799,8.53-16.4299,17.01-24.86,25.3101c-9.91,9.83-20.2,19.2799-30.44,28.75c-15.82,13.88-32.17,27.21-49.18,39.64
		c-7.58,4.95-15.03,10.2599-22.75,15.0499l-0.19-0.01c-15.3,9.47-31.27,17.91-47.93,24.75c-25.77,10.6-53.13,17.0801-80.82,19.9501
		c-1.52-0.3-3.08,0.0299-4.59,0.11c-19.57,1.6799-39.27,1.35-58.86,0.4199c-17.6899-1.37-35.4-3.0199-53.05-5.0599
		c-15.33-2.1901-30.73-3.98-46.08-6.0701c-26.58-4.0499-53.31-7.1799-79.9901-10.5199c-2.95-0.51-5.94-0.8201-8.94-0.7101
		c29.07,6.88,57.46,16.51,86.53,23.29c11.35,3.15,22.88,5.71,34.39,8.27c6.57,1.16,13.01,3.3099,19.67,3.91
		c17.3,3.58,34.81,6.21,52.35,8.25c11.85,1.12,23.7401,2.3999,35.63,2.73c37.01,1.96,74.5-0.42,110.51-9.53
		c4.5-1.41,9.34-2.03,13.56-4.12c14.09-3.85,27.67-9.6901,40.7-16.3l0.07-0.1799c11.56-5.61,22.43-12.61,32.71-20.28
		c14.64-10.91,27.86-23.65,39.6-37.62l-0.04-0.21c11.3101-13.2101,20.8601-27.89,29.22-43.12
		c5.49-9.9401,10.1401-20.3101,14.75-30.67c2.3401-5.49,4.4501-11.0701,6.4501-16.6801c1.21-4.21,2.86-8.26,4.1801-12.4199
		C748.77,1347.63,745.01,1352.45,740.73,1356.73z"/>
</g>
</svg>
