<?xml version="1.0" encoding="UTF-8" standalone="no"?>
<svg id="svg2" xmlns:rdf="http://www.w3.org/1999/02/22-rdf-syntax-ns#" xmlns="http://www.w3.org/2000/svg" height="908.22pt" width="1114.6pt" version="1.1" xmlns:cc="http://creativecommons.org/ns#" xmlns:dc="http://purl.org/dc/elements/1.1/" viewBox="0 0 1114.5507 908.21906">
<g id="g6191" transform="matrix(.45051 0 0 .45051 1904.7 1542.3)">
<path id="path4202" d="m-4227.9-3423.5v0.15l0.15-0.15h-0.15zm1361.1 0c6.61 72.61-5.2597 147.59-38.03 213.04-45.66 93.45-127.4 163.08-174.06 255.93-24.29 46.85-38.499 98.63-42.859 151.17-10.09 123.95 23.829 246.22 64.689 362.01 5.74-42.05 15.901-83.539 31.181-123.16 34.62-93.19 96.48-172.96 134.45-264.55 31.32-73.03 38.709-154.37 28.839-232.76 23.96 76.02 18.311 158.51-5.8594 233.74-42.59 134.76-121.61 258.43-135.32 401.67 89.45-1.59 181.71-28.7 248.09-90.9 52.41-47.83 86.08-113.58 101.73-182.26 19.38-84.85 15.629-173.59-1.3109-258.53-34.2-168.51-114.05-324.07-210-465.4h-1.5391zm-881.97 513.88c32.99 38.09 58.45 83.87 65.75 134.27 15.65 103.98-30.8 205.9-14.95 309.95 7.2 54.29 33.85 104.45 69.98 145.02 51.41 56.34 115.73 99.819 183.03 134.96-27.69-56.42-39.799-119.39-39.919-182.02-2.79-70.93 3.7388-144.69-21.431-212.61-13.99-40.54-40.089-75.77-70.439-105.58 57.36 32.58 91.21 94.499 105.9 157.11 26.06 106.69 21.57 222.76 76.13 321.13 78.23-59.97 147.38-142.02 165.48-241.48 14.33-76.07-9.4991-155.63-55.439-216.82-49.32-66.35-118.32-115.34-191.28-152.73-85.97-43.27-178.67-72.05-272.81-91.2zm1807.6 58.889c-1.7909-0.01-3.5819 0-5.3719 0.01-8.5916 0.06-17.169 0.3419-25.708 0.9719-143.58 2.99-289.94 27.98-418.63 94.25-66.9 35.34-128.93 83.351-171.01 146.99-33.54 49.73-53.05 109.01-54.03 169.08-2.63 66.17 16.97 131.34 46.35 190.05 123.27-81.35 195.92-214.45 299.42-316.38 52.97-51.95 119.5-93.061 193.37-105.63-64.71 24.37-125.16 61.741-171.97 113.03-68.07 72.82-108.64 165.8-171.16 242.84-31.68 40.45-69.299 76.051-111.01 106.01 111.09-15.54 222.98-41.681 322.11-95.911 70.98-38.87 130.18-98.39 168.03-169.98 45.65-82.66 70.92-177.08 132.67-250.32 40.92-49.81 95.28-87.58 154.22-113.02v-0.8094c-49.74-5.31-99.66-9.6003-149.7-10.22-12.491-0.4703-25.044-0.9223-37.58-0.9609zm-1091.1 378.74c-21.3 124.3-28.769 252.73-4.1891 377.1 14.65 79.42 42.89 155.74 79.33 227.63-140.97-40.06-273.79-114.07-374.58-221.38-39.34-40.45-72.92-86.04-104.22-132.83 30.89 86.21 80.37 166.06 144.82 231.23 83.66 85.84 191.36 143.49 302.52 185.56-96.89 8.81-192.3 32.34-283.34 66.18 122.26-20.15 245.62-47.74 370.26-36.23 188.47 58.58 384.7 90.079 570.53 157.51 109.99 40.1 216.26 95.941 300.29 178.71 3.75 4.52 8.0397 8.6397 12.78 12.18 8.47 8.24 18.61 14.98 29.83 18.83h8.75c17.53-8.02 13.3-31.26 13.52-46.72-5.49-41.35-19.89-81.21-39.03-118.13-18.44-32.27-29.68-69.26-27.17-106.7 1.22-13.2 2.83-32.94-13.95-36.32-212.82-68.8-438.73-69.88-658.21-101.3 6.41-120.33 33.21-243.58 103.8-343.48 17.55-25.72 38.2-49.069 58.52-72.559-74.05 58.99-142.93 129.97-179.04 219.01-24.64 60.13-34.74 125.32-36.98 189.96-37.55-6.21-76.081-11.249-112.41-22.019-69.12-77.9-117.29-173.96-139.43-275.71-25.83-114.94-21.3-233.58-22.4-350.52zm-555.68 620.25c-57.65-0.073-115.35 10.561-168.78 32.366-85.87 33.63-158.38 93.731-244.77 126.24-71.66 27.57-150.71 33.829-226.36 22.489v0.7609c163.57 117.28 349.92 212.09 551.69 237.68 84.27 9.97 172.19 6.4294 252.02-24.591 55.91-21.2 106.75-57.419 141.89-106.12 33.65-46.09 52.929-101.9 58.509-158.47-106.6 2.58-208.61 36.309-310 65.989-106.94 32.45-225.38 54.221-333.22 13.911 54.62 9.49 110.63 13.62 165.73 5.6203 99.24-13.1 187.51-62.46 280.67-95.35 59.96-22.09 123.28-34.211 186.99-37.841-107.63-42.33-220.06-78.08-336.49-82.32-5.9578-0.2363-11.922-0.3581-17.886-0.3656z" fill="#990100"/>
<path id="path6" fill="#004415" d="m-2866.9-3423.5c6.61 72.61-5.2597 147.59-38.03 213.04-45.66 93.45-127.4 163.08-174.06 255.93-24.29 46.85-38.499 98.63-42.859 151.17-10.09 123.95 23.829 246.22 64.689 362.01 5.74-42.05 15.901-83.539 31.181-123.16 34.62-93.19 96.48-172.96 134.45-264.55 31.32-73.03 38.709-154.37 28.839-232.76 23.96 76.02 18.311 158.51-5.8594 233.74-42.59 134.76-121.61 258.43-135.32 401.67 89.45-1.59 181.71-28.7 248.09-90.9 52.41-47.83 86.08-113.58 101.73-182.26 19.38-84.85 15.629-173.59-1.3109-258.53-34.2-168.51-114.05-324.07-210-465.4h-1.5391zm6.9703 92.009c3.81 66.68-17.581 131.13-41.761 192.28-43.23 105.12-97.509 205.78-132.91 314.07-33.95 100.07-48.311 208.22-29.561 312.89-35.12-123.26-48.3-259.68 1.5-380.95 42.39-108.05 124.04-194.88 167.67-302.31 18.1-43.3 29.42-89.27 34.1-135.95l0.9609-0.031zm99.189 156.75c38.25 89.99 75.021 181.82 91.261 278.74 16.21 90.38 12.169 189.06-34.891 270.1-37.75 65.6-100.13 114.23-168.82 144.14 75.19-94.36 156.84-195.54 172.23-319.73 15.48-127.99-36.34-249.8-59.78-373.25zm-988.13 265.12c32.99 38.09 58.45 83.87 65.75 134.27 15.65 103.98-30.8 205.9-14.95 309.95 7.2 54.29 33.85 104.45 69.98 145.02 51.41 56.34 115.73 99.819 183.03 134.96-27.69-56.42-39.799-119.39-39.919-182.02-2.79-70.93 3.7388-144.69-21.431-212.61-13.99-40.54-40.089-75.77-70.439-105.58 57.36 32.58 91.21 94.499 105.9 157.11 26.06 106.69 21.57 222.76 76.13 321.13 78.23-59.97 147.38-142.02 165.48-241.48 14.33-76.07-9.4991-155.63-55.439-216.82-49.32-66.35-118.32-115.34-191.28-152.73-85.97-43.27-178.67-72.05-272.81-91.2zm1845.2 59.85c-22.89 0.38-45.779 0.4503-68.659 0.02-143.58 2.99-289.94 27.98-418.63 94.25-66.9 35.34-128.93 83.351-171.01 146.99-33.54 49.73-53.05 109.01-54.03 169.08-2.63 66.17 16.97 131.34 46.35 190.05 123.27-81.35 195.92-214.45 299.42-316.38 52.97-51.95 119.5-93.061 193.37-105.63-64.71 24.37-125.16 61.741-171.97 113.03-68.07 72.82-108.64 165.8-171.16 242.84-31.68 40.45-69.299 76.051-111.01 106.01 111.09-15.54 222.98-41.681 322.11-95.911 70.98-38.87 130.18-98.39 168.03-169.98 45.65-82.66 70.92-177.08 132.67-250.32 40.92-49.81 95.28-87.58 154.22-113.02v-0.8094c-49.74-5.31-99.66-9.6003-149.7-10.22zm-1642.2 19.191c67.65 29.56 131.51 69.75 185.45 120.52 51.93 49.44 92.08 114.71 99.9 187.07 10.19 83.21-20.26 165.21-62.4 235.56-4.22 6-6.5491 13.96-12.889 18.15 19.01-74.25 34.07-150.96 27.55-227.97-5.07-61.48-28.38-121.18-65.83-170.14-47.1-64.21-112.25-111.99-171.78-163.19zm1508 7.1891c-98.2 32.28-201.2 51.501-295.11 95.911-50.18 24.29-95.371 59.119-130.31 102.69-59.5 73.59-94.869 162.51-126.97 250.57-12.35-98.26 12.04-204.7 82.05-277.49 52.35-55.82 122.02-91.95 193.82-116.17 89.27-30.97 183.55-41.721 276.52-55.511zm196.85 7.0312c-30.93 26.7-63.05 53.759-88 86.839-79.72 98.7-113.57 226.43-198.42 321.59-71.69 83.89-174.2 133.86-278.44 164.54-8.36 2.32-16.61 5.4612-25.38 5.7312 99.27-38.36 184.49-106.51 253.27-186.83 92.77-104.19 158.85-229.56 255.73-330.27 24.06-24 50.189-47.1 81.239-61.6zm-1825.9 28.75c31.92 64.71 27.901 139.4 29.681 209.47-0.52 68.12 7.6688 137.71 35.369 200.54 25.35 60.12 66.67 111.82 111.67 158.36-72.7-56.15-148.83-120-179.22-209.82-20.96-62.7-5.5797-128.87 4.9203-191.96 9.5-55.08 10.78-112.01-2.4203-166.59zm78.845 935.87c-57.65-0.074-115.35 10.561-168.78 32.366-85.87 33.63-158.38 93.731-244.77 126.24-71.66 27.57-150.71 33.829-226.36 22.489v0.761c163.57 117.28 349.92 212.09 551.69 237.68 84.27 9.97 172.19 6.4293 252.02-24.591 55.91-21.2 106.75-57.419 141.89-106.12 33.65-46.09 52.929-101.9 58.509-158.47-106.6 2.58-208.61 36.309-310 65.989-106.94 32.45-225.38 54.221-333.22 13.911 54.62 9.49 110.63 13.62 165.73 5.6203 99.24-13.1 187.51-62.46 280.67-95.35 59.96-22.09 123.28-34.211 186.99-37.841-107.63-42.33-220.06-78.08-336.49-82.32-5.9578-0.2363-11.922-0.3581-17.886-0.3656zm30.088 20.048c6.9331-0.014 13.868 0.1085 20.798 0.3672 76.51 3.67 152.17 20.48 224.26 45.82-64.98-14.66-132.22-19.779-198.61-13.559-136.12 12.07-264.59 61.689-393.04 104.96-81 26.24-165.12 52.51-251.37 44.5l0.07-0.8094c61.88-3.01 122.98-17.411 180.34-40.661 75.8-29.83 145.42-73.18 221.41-102.58 62.196-25.049 129.12-37.902 196.14-38.038zm320.95 132.13c-21.56 70.14-61.631 136.53-120.64 181.36-55.92 42.69-125.98 63.111-195.51 67.491-123 8.51-243.01-25.421-359.92-59.131 104.93 7.09 209.14 34.66 315.14 27.35 37.88-2.77 75.44-11.11 110.7-25.3 99.42-39.61 176.1-117.77 250.23-191.77z"/>
<path id="path8" fill="#9f9" d="m-2859.9-3331.5-0.9609 0.031c-4.68 46.68-16 92.65-34.1 135.95-43.63 107.43-125.28 194.26-167.67 302.31-49.8 121.27-36.62 257.69-1.5 380.95-18.75-104.67-4.3891-212.82 29.561-312.89 35.4-108.29 89.679-208.95 132.91-314.07 24.18-61.15 45.571-125.6 41.761-192.28zm913.31 480.77c-8.5916 0.06-17.169 0.3419-25.708 0.9719 22.88 0.43 45.769 0.3597 68.659-0.02-14.275-0.5375-28.632-1.0518-42.952-0.9516zm-91.219 27.331c-92.97 13.79-187.25 24.541-276.52 55.511-71.8 24.22-141.47 60.35-193.82 116.17-70.01 72.79-94.4 179.23-82.05 277.49 32.1-88.06 67.469-176.98 126.97-250.57 34.94-43.57 80.131-78.399 130.31-102.69 93.91-44.41 196.91-63.631 295.11-95.911zm-1629.1 35.781c13.2 54.58 11.92 111.51 2.4203 166.59-10.5 63.09-25.88 129.26-4.9203 191.96 30.39 89.82 106.52 153.67 179.22 209.82-45-46.54-86.32-98.239-111.67-158.36-27.7-62.83-35.889-132.42-35.369-200.54-1.78-70.07 2.2388-144.76-29.681-209.47zm108.93 955.92c-67.02 0.1354-133.95 12.989-196.14 38.038-75.99 29.4-145.61 72.75-221.41 102.58-57.36 23.25-118.46 37.651-180.34 40.661l-0.07 0.8094c86.25 8.01 170.37-18.26 251.37-44.5 128.45-43.27 256.92-92.889 393.04-104.96 66.39-6.22 133.63-1.1006 198.61 13.559-72.09-25.34-147.75-42.15-224.26-45.82-6.93-0.2587-13.865-0.3812-20.798-0.3672z"/>
<path id="path10" fill="#012815" d="m-2760.7-3174.7c23.44 123.45 75.26 245.26 59.78 373.25-15.39 124.19-97.04 225.37-172.23 319.73 68.69-29.91 131.07-78.541 168.82-144.14 47.06-81.04 51.101-179.72 34.891-270.1-16.24-96.92-53.011-188.75-91.261-278.74zm-785.12 344.16c59.53 51.2 124.68 98.979 171.78 163.19 37.45 48.96 60.76 108.66 65.83 170.14 6.52 77.01-8.54 153.72-27.55 227.97 6.34-4.19 8.6691-12.15 12.889-18.15 42.14-70.35 72.59-152.35 62.4-235.56-7.82-72.36-47.97-137.63-99.9-187.07-53.94-50.77-117.8-90.96-185.45-120.52zm1704.9 14.22c-31.05 14.5-57.179 37.6-81.239 61.6-96.88 100.71-162.96 226.08-255.73 330.27-68.78 80.32-154 148.47-253.27 186.83 8.77-0.27 17.02-3.4112 25.38-5.7312 104.24-30.68 206.75-80.649 278.44-164.54 84.85-95.16 118.7-222.89 198.42-321.59 24.95-33.08 57.07-60.139 88-86.839zm-1396 1116.8c-74.13 74-150.81 152.16-250.23 191.77-35.26 14.19-72.82 22.53-110.7 25.3-106 7.31-210.21-20.26-315.14-27.35 116.91 33.71 236.92 67.641 359.92 59.131 69.53-4.38 139.59-24.801 195.51-67.491 59.01-44.83 99.081-111.22 120.64-181.36z"/>
<path id="path28" d="m-3042.8-2352.3 0.92-0.12c-0.17 63.81-1.64 128.09 8.65 191.29 14.79 108.41 57 211.65 115.06 303.9 2.29 8.53 10.33 10.6 17.99 11.94 89 23.31 178.99 45.77 271.1 52.04 185.3 15.89 369.3 45.49 551.38 82.86-15.67 10.12-27.46 28.9-23.23 48.01-203.58-71.15-420.45-83.44-630.75-124.27-128.34-27.27-256.79-60.89-375.08-118.91-107-52.65-205.04-128.78-271.06-228.97 107.63 135.51 264.27 226.05 428.85 274.13-23.48-48.64-45.86-98.07-62.32-149.64-37.61-109.75-41.5-227.64-31.51-342.26z" fill="#ea4e01"/>
<path id="path30" fill="#440001" d="m-2588-2182.6c-90.17 97.67-143.6 230.66-140.68 364.22 7.58 3.84 15.63 6.95 21.93 13 1.01-3.72 1.6703-7.5197 2.3203-11.28 6.41-120.33 33.21-243.58 103.8-343.48-0.24-0.5-0.72-1.5-0.95-2 4.33-6.94 10.37-12.849 13.58-20.459zm-438.86 9.7094c-2.15 2.06-4.2903 4.1097-6.3703 6.2297-0.01 1.37-0.03 4.0909-0.041 5.4609 14.79 108.41 57.001 211.65 115.06 303.9 2.29 8.53 10.329 10.599 17.989 11.939 7.72-2.25 15.391 3.6009 23.211 3.9609-72.08-98.31-130.27-209.91-149.85-331.49zm-350.95 57.191c32.24 54.15 72.949 104.45 118.57 148.5 80.27 76.82 182.42 126.06 286.83 160.89 3.08-5.54 8.6094-8.5303 12.959-12.82-133.79-53.73-264.49-124.52-363.36-231.5-19.88-20.36-37.06-43.049-55-65.069zm472.82 325.36c-93.729 0.051-187.79 9.7359-278.47 33.445 90.78-14.98 182.96-30.101 275.29-22.541 148.12 48.68 303.05 72.04 452.65 115.52 137.2 38.95 275.79 90.26 384.98 185.02 13.66 12.9 29.101 24.571 39.591 40.391 3.75 4.52 8.0397 8.6397 12.78 12.18-31.29-74.8-88.19-143.21-85.15-228.62-131.04-46.41-270.62-57.69-408.29-66.88-107.27-7.85-214.49-26.031-315.67-63.341-8.13-3.46-16.99-4.1991-25.7-4.2391-17.311-0.6234-34.657-0.9453-52.014-0.9359zm849.02 103.77c-0.7043 0.032-1.4587 0.1695-2.264 0.4282-24.71 20.43-27.6 58.84-19.45 88.32 19.89 56.03 47.911 109.07 80.111 158.94 4.77 4.12 8.6203 15.61 16.12 13.8 4.23-51.38-30.151-93.729-47.391-139.51-13.96-33.94-17.61-70.87-17.5-107.25-0.58-5.4556-2.8184-15.034-9.6266-14.728z"/>
</g>
</svg>
